<svg xmlns="http://www.w3.org/2000/svg" width="1320" height="1040" viewBox="0 0 1320 1040"><rect width="100%" height="100%" fill="#f6f4ef"/><style>text{font-family:ui-sans-serif,system-ui,-apple-system,BlinkMacSystemFont,"Segoe UI",sans-serif;fill:#1f2937}.small{font-size:12px}.body{font-size:14px}.label{font-size:15px;font-weight:600}.title{font-size:28px;font-weight:700}.cardtitle{font-size:13px;font-weight:700;letter-spacing:.08em;text-transform:uppercase;fill:#475569}.metric{font-size:30px;font-weight:700}.paneltitle{font-size:18px;font-weight:700}</style><text x="40" y="56" class="title">Agent Lab Experiment Dashboard</text><text x="40" y="84" class="body">Best run AL-20260331-004 reached 1.3451 val_bpb. 88 scored runs are tracked here, with 23 kept and 65 discarded.</text><rect x="40" y="110" width="290" height="78" rx="14" fill="#ffffff" stroke="#d6d3d1"/><text x="60" y="134" class="cardtitle">Current Best</text><text x="60" y="164" class="metric">1.3451</text><text x="60" y="180" class="small">AL-20260331-004 (7641f2e)</text><rect x="350" y="110" width="290" height="78" rx="14" fill="#ffffff" stroke="#d6d3d1"/><text x="370" y="134" class="cardtitle">Tracked Runs</text><text x="370" y="164" class="metric">88</text><text x="370" y="180" class="small">23 keep / 65 discard</text><rect x="660" y="110" width="290" height="78" rx="14" fill="#ffffff" stroke="#d6d3d1"/><text x="680" y="134" class="cardtitle">Primary Metric</text><text x="680" y="164" class="metric">final_int8_ttt_lora</text><text x="680" y="180" class="small">lower is better</text><rect x="970" y="110" width="290" height="78" rx="14" fill="#ffffff" stroke="#d6d3d1"/><text x="990" y="134" class="cardtitle">Mean val_bpb</text><text x="990" y="164" class="metric">1.3832</text><text x="990" y="180" class="small">across scored runs</text><rect x="40" y="220" width="610" height="320" rx="18" fill="#ffffff" stroke="#d6d3d1"/><text x="60" y="248" class="paneltitle">val_bpb by experiment</text><line x1="110" y1="498" x2="626" y2="498" stroke="#94a3b8" stroke-width="1.5"/><line x1="110" y1="498" x2="110" y2="268" stroke="#94a3b8" stroke-width="1.5"/><text x="368.00" y="526.00" class="small">experiment order</text><text x="62.00" y="258.00" class="small">val_bpb</text><line x1="110" y1="498.00" x2="626" y2="498.00" stroke="#e5e7eb" stroke-width="1"/><text x="56.00" y="502.00" class="small">1.3451</text><line x1="110" y1="383.00" x2="626" y2="383.00" stroke="#e5e7eb" stroke-width="1"/><text x="56.00" y="387.00" class="small">1.4775</text><line x1="110" y1="268.00" x2="626" y2="268.00" stroke="#e5e7eb" stroke-width="1"/><text x="56.00" y="272.00" class="small">1.6099</text><polyline fill="none" stroke="#1d4ed8" stroke-width="3" points="110.00,268.00 115.93,283.46 121.86,429.56 127.79,439.11 133.72,451.18 139.66,440.50 145.59,457.61 151.52,457.87 157.45,452.66 163.38,451.53 169.31,444.58 175.24,447.62 181.17,454.40 187.10,459.09 193.03,452.92 198.97,464.39 204.90,457.70 210.83,457.18 216.76,458.48 222.69,474.55 228.62,458.22 234.55,468.90 240.48,466.99 246.41,463.08 252.34,475.59 258.28,453.09 264.21,470.64 270.14,469.68 276.07,472.64 282.00,483.84 287.93,486.62 293.86,482.63 299.79,485.41 305.72,488.19 311.66,488.19 317.59,487.66 323.52,485.15 329.45,487.32 335.38,488.10 341.31,470.90 347.24,479.33 353.17,487.84 359.10,484.19 365.03,467.08 370.97,474.81 376.90,462.04 382.83,477.68 388.76,473.16 394.69,460.48 400.62,481.76 406.55,476.55 412.48,488.62 418.41,494.79 424.34,484.80 430.28,452.75 436.21,428.17 442.14,462.30 448.07,475.42 454.00,417.48 459.93,489.14 465.86,487.84 471.79,487.32 477.72,486.71 483.66,490.79 489.59,488.36 495.52,485.84 501.45,487.58 507.38,488.45 513.31,488.36 519.24,473.33 525.17,462.91 531.10,487.06 537.03,488.01 542.97,464.73 548.90,497.83 554.83,493.57 560.76,494.79 566.69,498.00 572.62,495.74 578.55,485.84 584.48,480.80 590.41,493.57 596.34,494.70 602.28,492.27 608.21,359.72 614.14,493.83 620.07,351.90 626.00,362.07"/><circle cx="110.00" cy="268.00" r="5.5" fill="#1f7a4d" stroke="#ffffff" stroke-width="1.5"/><text x="118.00" y="260.00" class="small">001</text><circle cx="115.93" cy="283.46" r="5.5" fill="#1f7a4d" stroke="#ffffff" stroke-width="1.5"/><text x="123.93" y="275.46" class="small">002</text><circle cx="121.86" cy="429.56" r="5.5" fill="#1f7a4d" stroke="#ffffff" stroke-width="1.5"/><text x="129.86" y="421.56" class="small">003</text><circle cx="127.79" cy="439.11" r="5.5" fill="#1f7a4d" stroke="#ffffff" stroke-width="1.5"/><text x="135.79" y="431.11" class="small">004</text><circle cx="133.72" cy="451.18" r="5.5" fill="#1f7a4d" stroke="#ffffff" stroke-width="1.5"/><text x="141.72" y="443.18" class="small">001</text><circle cx="139.66" cy="440.50" r="5.5" fill="#b03a2e" stroke="#ffffff" stroke-width="1.5"/><text x="147.66" y="432.50" class="small">002</text><circle cx="145.59" cy="457.61" r="5.5" fill="#1f7a4d" stroke="#ffffff" stroke-width="1.5"/><text x="153.59" y="449.61" class="small">003</text><circle cx="151.52" cy="457.87" r="5.5" fill="#1f7a4d" stroke="#ffffff" stroke-width="1.5"/><text x="159.52" y="449.87" class="small">004</text><circle cx="157.45" cy="452.66" r="5.5" fill="#b03a2e" stroke="#ffffff" stroke-width="1.5"/><text x="165.45" y="444.66" class="small">005</text><circle cx="163.38" cy="451.53" r="5.5" fill="#b03a2e" stroke="#ffffff" stroke-width="1.5"/><text x="171.38" y="443.53" class="small">006</text><circle cx="169.31" cy="444.58" r="5.5" fill="#b03a2e" stroke="#ffffff" stroke-width="1.5"/><text x="177.31" y="436.58" class="small">007</text><circle cx="175.24" cy="447.62" r="5.5" fill="#b03a2e" stroke="#ffffff" stroke-width="1.5"/><text x="183.24" y="439.62" class="small">008</text><circle cx="181.17" cy="454.40" r="5.5" fill="#b03a2e" stroke="#ffffff" stroke-width="1.5"/><text x="189.17" y="446.40" class="small">009</text><circle cx="187.10" cy="459.09" r="5.5" fill="#b03a2e" stroke="#ffffff" stroke-width="1.5"/><text x="195.10" y="451.09" class="small">010</text><circle cx="193.03" cy="452.92" r="5.5" fill="#b03a2e" stroke="#ffffff" stroke-width="1.5"/><text x="201.03" y="444.92" class="small">011</text><circle cx="198.97" cy="464.39" r="5.5" fill="#1f7a4d" stroke="#ffffff" stroke-width="1.5"/><text x="206.97" y="456.39" class="small">012</text><circle cx="204.90" cy="457.70" r="5.5" fill="#b03a2e" stroke="#ffffff" stroke-width="1.5"/><text x="212.90" y="449.70" class="small">013</text><circle cx="210.83" cy="457.18" r="5.5" fill="#b03a2e" stroke="#ffffff" stroke-width="1.5"/><text x="218.83" y="449.18" class="small">014</text><circle cx="216.76" cy="458.48" r="5.5" fill="#b03a2e" stroke="#ffffff" stroke-width="1.5"/><text x="224.76" y="450.48" class="small">015</text><circle cx="222.69" cy="474.55" r="5.5" fill="#1f7a4d" stroke="#ffffff" stroke-width="1.5"/><text x="230.69" y="466.55" class="small">016</text><circle cx="228.62" cy="458.22" r="5.5" fill="#b03a2e" stroke="#ffffff" stroke-width="1.5"/><text x="236.62" y="450.22" class="small">017</text><circle cx="234.55" cy="468.90" r="5.5" fill="#b03a2e" stroke="#ffffff" stroke-width="1.5"/><text x="242.55" y="460.90" class="small">018</text><circle cx="240.48" cy="466.99" r="5.5" fill="#b03a2e" stroke="#ffffff" stroke-width="1.5"/><text x="248.48" y="458.99" class="small">019</text><circle cx="246.41" cy="463.08" r="5.5" fill="#b03a2e" stroke="#ffffff" stroke-width="1.5"/><text x="254.41" y="455.08" class="small">020</text><circle cx="252.34" cy="475.59" r="5.5" fill="#1f7a4d" stroke="#ffffff" stroke-width="1.5"/><text x="260.34" y="467.59" class="small">021</text><circle cx="258.28" cy="453.09" r="5.5" fill="#b03a2e" stroke="#ffffff" stroke-width="1.5"/><text x="266.28" y="445.09" class="small">022</text><circle cx="264.21" cy="470.64" r="5.5" fill="#b03a2e" stroke="#ffffff" stroke-width="1.5"/><text x="272.21" y="462.64" class="small">023</text><circle cx="270.14" cy="469.68" r="5.5" fill="#b03a2e" stroke="#ffffff" stroke-width="1.5"/><text x="278.14" y="461.68" class="small">024</text><circle cx="276.07" cy="472.64" r="5.5" fill="#b03a2e" stroke="#ffffff" stroke-width="1.5"/><text x="284.07" y="464.64" class="small">025</text><circle cx="282.00" cy="483.84" r="5.5" fill="#1f7a4d" stroke="#ffffff" stroke-width="1.5"/><text x="290.00" y="475.84" class="small">026</text><circle cx="287.93" cy="486.62" r="5.5" fill="#1f7a4d" stroke="#ffffff" stroke-width="1.5"/><text x="295.93" y="478.62" class="small">027</text><circle cx="293.86" cy="482.63" r="5.5" fill="#b03a2e" stroke="#ffffff" stroke-width="1.5"/><text x="301.86" y="474.63" class="small">028</text><circle cx="299.79" cy="485.41" r="5.5" fill="#b03a2e" stroke="#ffffff" stroke-width="1.5"/><text x="307.79" y="477.41" class="small">029</text><circle cx="305.72" cy="488.19" r="5.5" fill="#1f7a4d" stroke="#ffffff" stroke-width="1.5"/><text x="313.72" y="480.19" class="small">030</text><circle cx="311.66" cy="488.19" r="5.5" fill="#b03a2e" stroke="#ffffff" stroke-width="1.5"/><text x="319.66" y="480.19" class="small">001</text><circle cx="317.59" cy="487.66" r="5.5" fill="#b03a2e" stroke="#ffffff" stroke-width="1.5"/><text x="325.59" y="479.66" class="small">002</text><circle cx="323.52" cy="485.15" r="5.5" fill="#b03a2e" stroke="#ffffff" stroke-width="1.5"/><text x="331.52" y="477.15" class="small">003</text><circle cx="329.45" cy="487.32" r="5.5" fill="#b03a2e" stroke="#ffffff" stroke-width="1.5"/><text x="337.45" y="479.32" class="small">004</text><circle cx="335.38" cy="488.10" r="5.5" fill="#b03a2e" stroke="#ffffff" stroke-width="1.5"/><text x="343.38" y="480.10" class="small">005</text><circle cx="341.31" cy="470.90" r="5.5" fill="#b03a2e" stroke="#ffffff" stroke-width="1.5"/><text x="349.31" y="462.90" class="small">006</text><circle cx="347.24" cy="479.33" r="5.5" fill="#b03a2e" stroke="#ffffff" stroke-width="1.5"/><text x="355.24" y="471.33" class="small">007</text><circle cx="353.17" cy="487.84" r="5.5" fill="#b03a2e" stroke="#ffffff" stroke-width="1.5"/><text x="361.17" y="479.84" class="small">008</text><circle cx="359.10" cy="484.19" r="5.5" fill="#b03a2e" stroke="#ffffff" stroke-width="1.5"/><text x="367.10" y="476.19" class="small">009</text><circle cx="365.03" cy="467.08" r="5.5" fill="#b03a2e" stroke="#ffffff" stroke-width="1.5"/><text x="373.03" y="459.08" class="small">010</text><circle cx="370.97" cy="474.81" r="5.5" fill="#b03a2e" stroke="#ffffff" stroke-width="1.5"/><text x="378.97" y="466.81" class="small">011</text><circle cx="376.90" cy="462.04" r="5.5" fill="#b03a2e" stroke="#ffffff" stroke-width="1.5"/><text x="384.90" y="454.04" class="small">012</text><circle cx="382.83" cy="477.68" r="5.5" fill="#b03a2e" stroke="#ffffff" stroke-width="1.5"/><text x="390.83" y="469.68" class="small">013</text><circle cx="388.76" cy="473.16" r="5.5" fill="#b03a2e" stroke="#ffffff" stroke-width="1.5"/><text x="396.76" y="465.16" class="small">014</text><circle cx="394.69" cy="460.48" r="5.5" fill="#b03a2e" stroke="#ffffff" stroke-width="1.5"/><text x="402.69" y="452.48" class="small">015</text><circle cx="400.62" cy="481.76" r="5.5" fill="#b03a2e" stroke="#ffffff" stroke-width="1.5"/><text x="408.62" y="473.76" class="small">101</text><circle cx="406.55" cy="476.55" r="5.5" fill="#b03a2e" stroke="#ffffff" stroke-width="1.5"/><text x="414.55" y="468.55" class="small">102</text><circle cx="412.48" cy="488.62" r="5.5" fill="#1f7a4d" stroke="#ffffff" stroke-width="1.5"/><text x="420.48" y="480.62" class="small">103</text><circle cx="418.41" cy="494.79" r="5.5" fill="#1f7a4d" stroke="#ffffff" stroke-width="1.5"/><text x="426.41" y="486.79" class="small">104</text><circle cx="424.34" cy="484.80" r="5.5" fill="#b03a2e" stroke="#ffffff" stroke-width="1.5"/><text x="432.34" y="476.80" class="small">105</text><circle cx="430.28" cy="452.75" r="5.5" fill="#b03a2e" stroke="#ffffff" stroke-width="1.5"/><text x="438.28" y="444.75" class="small">106</text><circle cx="436.21" cy="428.17" r="5.5" fill="#b03a2e" stroke="#ffffff" stroke-width="1.5"/><text x="444.21" y="420.17" class="small">107</text><circle cx="442.14" cy="462.30" r="5.5" fill="#b03a2e" stroke="#ffffff" stroke-width="1.5"/><text x="450.14" y="454.30" class="small">108</text><circle cx="448.07" cy="475.42" r="5.5" fill="#b03a2e" stroke="#ffffff" stroke-width="1.5"/><text x="456.07" y="467.42" class="small">109</text><circle cx="454.00" cy="417.48" r="5.5" fill="#b03a2e" stroke="#ffffff" stroke-width="1.5"/><text x="462.00" y="409.48" class="small">110</text><circle cx="459.93" cy="489.14" r="5.5" fill="#1f7a4d" stroke="#ffffff" stroke-width="1.5"/><text x="467.93" y="481.14" class="small">116</text><circle cx="465.86" cy="487.84" r="5.5" fill="#b03a2e" stroke="#ffffff" stroke-width="1.5"/><text x="473.86" y="479.84" class="small">117</text><circle cx="471.79" cy="487.32" r="5.5" fill="#b03a2e" stroke="#ffffff" stroke-width="1.5"/><text x="479.79" y="479.32" class="small">118</text><circle cx="477.72" cy="486.71" r="5.5" fill="#b03a2e" stroke="#ffffff" stroke-width="1.5"/><text x="485.72" y="478.71" class="small">119</text><circle cx="483.66" cy="490.79" r="5.5" fill="#1f7a4d" stroke="#ffffff" stroke-width="1.5"/><text x="491.66" y="482.79" class="small">120</text><circle cx="489.59" cy="488.36" r="5.5" fill="#1f7a4d" stroke="#ffffff" stroke-width="1.5"/><text x="497.59" y="480.36" class="small">121</text><circle cx="495.52" cy="485.84" r="5.5" fill="#b03a2e" stroke="#ffffff" stroke-width="1.5"/><text x="503.52" y="477.84" class="small">122</text><circle cx="501.45" cy="487.58" r="5.5" fill="#b03a2e" stroke="#ffffff" stroke-width="1.5"/><text x="509.45" y="479.58" class="small">123</text><circle cx="507.38" cy="488.45" r="5.5" fill="#1f7a4d" stroke="#ffffff" stroke-width="1.5"/><text x="515.38" y="480.45" class="small">124</text><circle cx="513.31" cy="488.36" r="5.5" fill="#1f7a4d" stroke="#ffffff" stroke-width="1.5"/><text x="521.31" y="480.36" class="small">125</text><circle cx="519.24" cy="473.33" r="5.5" fill="#b03a2e" stroke="#ffffff" stroke-width="1.5"/><text x="527.24" y="465.33" class="small">126</text><circle cx="525.17" cy="462.91" r="5.5" fill="#b03a2e" stroke="#ffffff" stroke-width="1.5"/><text x="533.17" y="454.91" class="small">127</text><circle cx="531.10" cy="487.06" r="5.5" fill="#b03a2e" stroke="#ffffff" stroke-width="1.5"/><text x="539.10" y="479.06" class="small">128</text><circle cx="537.03" cy="488.01" r="5.5" fill="#b03a2e" stroke="#ffffff" stroke-width="1.5"/><text x="545.03" y="480.01" class="small">129</text><circle cx="542.97" cy="464.73" r="5.5" fill="#b03a2e" stroke="#ffffff" stroke-width="1.5"/><text x="550.97" y="456.73" class="small">130</text><circle cx="548.90" cy="497.83" r="5.5" fill="#1f7a4d" stroke="#ffffff" stroke-width="1.5"/><text x="556.90" y="489.83" class="small">001</text><circle cx="554.83" cy="493.57" r="5.5" fill="#b03a2e" stroke="#ffffff" stroke-width="1.5"/><text x="562.83" y="485.57" class="small">002</text><circle cx="560.76" cy="494.79" r="5.5" fill="#b03a2e" stroke="#ffffff" stroke-width="1.5"/><text x="568.76" y="486.79" class="small">003</text><circle cx="566.69" cy="498.00" r="5.5" fill="#1f7a4d" stroke="#ffffff" stroke-width="1.5"/><text x="574.69" y="490.00" class="small">004</text><circle cx="572.62" cy="495.74" r="5.5" fill="#1f7a4d" stroke="#ffffff" stroke-width="1.5"/><text x="580.62" y="487.74" class="small">005</text><circle cx="578.55" cy="485.84" r="5.5" fill="#b03a2e" stroke="#ffffff" stroke-width="1.5"/><text x="586.55" y="477.84" class="small">011</text><circle cx="584.48" cy="480.80" r="5.5" fill="#b03a2e" stroke="#ffffff" stroke-width="1.5"/><text x="592.48" y="472.80" class="small">012</text><circle cx="590.41" cy="493.57" r="5.5" fill="#b03a2e" stroke="#ffffff" stroke-width="1.5"/><text x="598.41" y="485.57" class="small">013</text><circle cx="596.34" cy="494.70" r="5.5" fill="#b03a2e" stroke="#ffffff" stroke-width="1.5"/><text x="604.34" y="486.70" class="small">014</text><circle cx="602.28" cy="492.27" r="5.5" fill="#b03a2e" stroke="#ffffff" stroke-width="1.5"/><text x="610.28" y="484.27" class="small">015</text><circle cx="608.21" cy="359.72" r="5.5" fill="#b03a2e" stroke="#ffffff" stroke-width="1.5"/><text x="616.21" y="351.72" class="small">007</text><circle cx="614.14" cy="493.83" r="5.5" fill="#b03a2e" stroke="#ffffff" stroke-width="1.5"/><text x="622.14" y="485.83" class="small">008</text><circle cx="620.07" cy="351.90" r="5.5" fill="#b03a2e" stroke="#ffffff" stroke-width="1.5"/><text x="628.07" y="343.90" class="small">009</text><circle cx="626.00" cy="362.07" r="5.5" fill="#b03a2e" stroke="#ffffff" stroke-width="1.5"/><text x="634.00" y="354.07" class="small">010</text><rect x="670" y="220" width="610" height="320" rx="18" fill="#ffffff" stroke="#d6d3d1"/><text x="690" y="248" class="paneltitle">Running best frontier</text><line x1="740" y1="498" x2="1256" y2="498" stroke="#94a3b8" stroke-width="1.5"/><line x1="740" y1="498" x2="740" y2="268" stroke="#94a3b8" stroke-width="1.5"/><text x="998.00" y="526.00" class="small">experiment order</text><text x="692.00" y="258.00" class="small">best so far</text><line x1="740" y1="498.00" x2="1256" y2="498.00" stroke="#e5e7eb" stroke-width="1"/><text x="686.00" y="502.00" class="small">1.3451</text><line x1="740" y1="383.00" x2="1256" y2="383.00" stroke="#e5e7eb" stroke-width="1"/><text x="686.00" y="387.00" class="small">1.4775</text><line x1="740" y1="268.00" x2="1256" y2="268.00" stroke="#e5e7eb" stroke-width="1"/><text x="686.00" y="272.00" class="small">1.6099</text><polyline fill="none" stroke="#1d4ed8" stroke-width="3" points="740.00,268.00 745.93,283.46 751.86,429.56 757.79,439.11 763.72,451.18 769.66,451.18 775.59,457.61 781.52,457.87 787.45,457.87 793.38,457.87 799.31,457.87 805.24,457.87 811.17,457.87 817.10,459.09 823.03,459.09 828.97,464.39 834.90,464.39 840.83,464.39 846.76,464.39 852.69,474.55 858.62,474.55 864.55,474.55 870.48,474.55 876.41,474.55 882.34,475.59 888.28,475.59 894.21,475.59 900.14,475.59 906.07,475.59 912.00,483.84 917.93,486.62 923.86,486.62 929.79,486.62 935.72,488.19 941.66,488.19 947.59,488.19 953.52,488.19 959.45,488.19 965.38,488.19 971.31,488.19 977.24,488.19 983.17,488.19 989.10,488.19 995.03,488.19 1000.97,488.19 1006.90,488.19 1012.83,488.19 1018.76,488.19 1024.69,488.19 1030.62,488.19 1036.55,488.19 1042.48,488.62 1048.41,494.79 1054.34,494.79 1060.28,494.79 1066.21,494.79 1072.14,494.79 1078.07,494.79 1084.00,494.79 1089.93,494.79 1095.86,494.79 1101.79,494.79 1107.72,494.79 1113.66,494.79 1119.59,494.79 1125.52,494.79 1131.45,494.79 1137.38,494.79 1143.31,494.79 1149.24,494.79 1155.17,494.79 1161.10,494.79 1167.03,494.79 1172.97,494.79 1178.90,497.83 1184.83,497.83 1190.76,497.83 1196.69,498.00 1202.62,498.00 1208.55,498.00 1214.48,498.00 1220.41,498.00 1226.34,498.00 1232.28,498.00 1238.21,498.00 1244.14,498.00 1250.07,498.00 1256.00,498.00"/><circle cx="740.00" cy="268.00" r="5.5" fill="#1f7a4d" stroke="#ffffff" stroke-width="1.5"/><circle cx="745.93" cy="283.46" r="5.5" fill="#1f7a4d" stroke="#ffffff" stroke-width="1.5"/><circle cx="751.86" cy="429.56" r="5.5" fill="#1f7a4d" stroke="#ffffff" stroke-width="1.5"/><circle cx="757.79" cy="439.11" r="5.5" fill="#1f7a4d" stroke="#ffffff" stroke-width="1.5"/><circle cx="763.72" cy="451.18" r="5.5" fill="#1f7a4d" stroke="#ffffff" stroke-width="1.5"/><circle cx="769.66" cy="451.18" r="5.5" fill="#b03a2e" stroke="#ffffff" stroke-width="1.5"/><circle cx="775.59" cy="457.61" r="5.5" fill="#1f7a4d" stroke="#ffffff" stroke-width="1.5"/><circle cx="781.52" cy="457.87" r="5.5" fill="#1f7a4d" stroke="#ffffff" stroke-width="1.5"/><circle cx="787.45" cy="457.87" r="5.5" fill="#b03a2e" stroke="#ffffff" stroke-width="1.5"/><circle cx="793.38" cy="457.87" r="5.5" fill="#b03a2e" stroke="#ffffff" stroke-width="1.5"/><circle cx="799.31" cy="457.87" r="5.5" fill="#b03a2e" stroke="#ffffff" stroke-width="1.5"/><circle cx="805.24" cy="457.87" r="5.5" fill="#b03a2e" stroke="#ffffff" stroke-width="1.5"/><circle cx="811.17" cy="457.87" r="5.5" fill="#b03a2e" stroke="#ffffff" stroke-width="1.5"/><circle cx="817.10" cy="459.09" r="5.5" fill="#b03a2e" stroke="#ffffff" stroke-width="1.5"/><circle cx="823.03" cy="459.09" r="5.5" fill="#b03a2e" stroke="#ffffff" stroke-width="1.5"/><circle cx="828.97" cy="464.39" r="5.5" fill="#1f7a4d" stroke="#ffffff" stroke-width="1.5"/><circle cx="834.90" cy="464.39" r="5.5" fill="#b03a2e" stroke="#ffffff" stroke-width="1.5"/><circle cx="840.83" cy="464.39" r="5.5" fill="#b03a2e" stroke="#ffffff" stroke-width="1.5"/><circle cx="846.76" cy="464.39" r="5.5" fill="#b03a2e" stroke="#ffffff" stroke-width="1.5"/><circle cx="852.69" cy="474.55" r="5.5" fill="#1f7a4d" stroke="#ffffff" stroke-width="1.5"/><circle cx="858.62" cy="474.55" r="5.5" fill="#b03a2e" stroke="#ffffff" stroke-width="1.5"/><circle cx="864.55" cy="474.55" r="5.5" fill="#b03a2e" stroke="#ffffff" stroke-width="1.5"/><circle cx="870.48" cy="474.55" r="5.5" fill="#b03a2e" stroke="#ffffff" stroke-width="1.5"/><circle cx="876.41" cy="474.55" r="5.5" fill="#b03a2e" stroke="#ffffff" stroke-width="1.5"/><circle cx="882.34" cy="475.59" r="5.5" fill="#1f7a4d" stroke="#ffffff" stroke-width="1.5"/><circle cx="888.28" cy="475.59" r="5.5" fill="#b03a2e" stroke="#ffffff" stroke-width="1.5"/><circle cx="894.21" cy="475.59" r="5.5" fill="#b03a2e" stroke="#ffffff" stroke-width="1.5"/><circle cx="900.14" cy="475.59" r="5.5" fill="#b03a2e" stroke="#ffffff" stroke-width="1.5"/><circle cx="906.07" cy="475.59" r="5.5" fill="#b03a2e" stroke="#ffffff" stroke-width="1.5"/><circle cx="912.00" cy="483.84" r="5.5" fill="#1f7a4d" stroke="#ffffff" stroke-width="1.5"/><circle cx="917.93" cy="486.62" r="5.5" fill="#1f7a4d" stroke="#ffffff" stroke-width="1.5"/><circle cx="923.86" cy="486.62" r="5.5" fill="#b03a2e" stroke="#ffffff" stroke-width="1.5"/><circle cx="929.79" cy="486.62" r="5.5" fill="#b03a2e" stroke="#ffffff" stroke-width="1.5"/><circle cx="935.72" cy="488.19" r="5.5" fill="#1f7a4d" stroke="#ffffff" stroke-width="1.5"/><circle cx="941.66" cy="488.19" r="5.5" fill="#b03a2e" stroke="#ffffff" stroke-width="1.5"/><circle cx="947.59" cy="488.19" r="5.5" fill="#b03a2e" stroke="#ffffff" stroke-width="1.5"/><circle cx="953.52" cy="488.19" r="5.5" fill="#b03a2e" stroke="#ffffff" stroke-width="1.5"/><circle cx="959.45" cy="488.19" r="5.5" fill="#b03a2e" stroke="#ffffff" stroke-width="1.5"/><circle cx="965.38" cy="488.19" r="5.5" fill="#b03a2e" stroke="#ffffff" stroke-width="1.5"/><circle cx="971.31" cy="488.19" r="5.5" fill="#b03a2e" stroke="#ffffff" stroke-width="1.5"/><circle cx="977.24" cy="488.19" r="5.5" fill="#b03a2e" stroke="#ffffff" stroke-width="1.5"/><circle cx="983.17" cy="488.19" r="5.5" fill="#b03a2e" stroke="#ffffff" stroke-width="1.5"/><circle cx="989.10" cy="488.19" r="5.5" fill="#b03a2e" stroke="#ffffff" stroke-width="1.5"/><circle cx="995.03" cy="488.19" r="5.5" fill="#b03a2e" stroke="#ffffff" stroke-width="1.5"/><circle cx="1000.97" cy="488.19" r="5.5" fill="#b03a2e" stroke="#ffffff" stroke-width="1.5"/><circle cx="1006.90" cy="488.19" r="5.5" fill="#b03a2e" stroke="#ffffff" stroke-width="1.5"/><circle cx="1012.83" cy="488.19" r="5.5" fill="#b03a2e" stroke="#ffffff" stroke-width="1.5"/><circle cx="1018.76" cy="488.19" r="5.5" fill="#b03a2e" stroke="#ffffff" stroke-width="1.5"/><circle cx="1024.69" cy="488.19" r="5.5" fill="#b03a2e" stroke="#ffffff" stroke-width="1.5"/><circle cx="1030.62" cy="488.19" r="5.5" fill="#b03a2e" stroke="#ffffff" stroke-width="1.5"/><circle cx="1036.55" cy="488.19" r="5.5" fill="#b03a2e" stroke="#ffffff" stroke-width="1.5"/><circle cx="1042.48" cy="488.62" r="5.5" fill="#1f7a4d" stroke="#ffffff" stroke-width="1.5"/><circle cx="1048.41" cy="494.79" r="5.5" fill="#1f7a4d" stroke="#ffffff" stroke-width="1.5"/><circle cx="1054.34" cy="494.79" r="5.5" fill="#b03a2e" stroke="#ffffff" stroke-width="1.5"/><circle cx="1060.28" cy="494.79" r="5.5" fill="#b03a2e" stroke="#ffffff" stroke-width="1.5"/><circle cx="1066.21" cy="494.79" r="5.5" fill="#b03a2e" stroke="#ffffff" stroke-width="1.5"/><circle cx="1072.14" cy="494.79" r="5.5" fill="#b03a2e" stroke="#ffffff" stroke-width="1.5"/><circle cx="1078.07" cy="494.79" r="5.5" fill="#b03a2e" stroke="#ffffff" stroke-width="1.5"/><circle cx="1084.00" cy="494.79" r="5.5" fill="#b03a2e" stroke="#ffffff" stroke-width="1.5"/><circle cx="1089.93" cy="494.79" r="5.5" fill="#1f7a4d" stroke="#ffffff" stroke-width="1.5"/><circle cx="1095.86" cy="494.79" r="5.5" fill="#b03a2e" stroke="#ffffff" stroke-width="1.5"/><circle cx="1101.79" cy="494.79" r="5.5" fill="#b03a2e" stroke="#ffffff" stroke-width="1.5"/><circle cx="1107.72" cy="494.79" r="5.5" fill="#b03a2e" stroke="#ffffff" stroke-width="1.5"/><circle cx="1113.66" cy="494.79" r="5.5" fill="#1f7a4d" stroke="#ffffff" stroke-width="1.5"/><circle cx="1119.59" cy="494.79" r="5.5" fill="#1f7a4d" stroke="#ffffff" stroke-width="1.5"/><circle cx="1125.52" cy="494.79" r="5.5" fill="#b03a2e" stroke="#ffffff" stroke-width="1.5"/><circle cx="1131.45" cy="494.79" r="5.5" fill="#b03a2e" stroke="#ffffff" stroke-width="1.5"/><circle cx="1137.38" cy="494.79" r="5.5" fill="#1f7a4d" stroke="#ffffff" stroke-width="1.5"/><circle cx="1143.31" cy="494.79" r="5.5" fill="#1f7a4d" stroke="#ffffff" stroke-width="1.5"/><circle cx="1149.24" cy="494.79" r="5.5" fill="#b03a2e" stroke="#ffffff" stroke-width="1.5"/><circle cx="1155.17" cy="494.79" r="5.5" fill="#b03a2e" stroke="#ffffff" stroke-width="1.5"/><circle cx="1161.10" cy="494.79" r="5.5" fill="#b03a2e" stroke="#ffffff" stroke-width="1.5"/><circle cx="1167.03" cy="494.79" r="5.5" fill="#b03a2e" stroke="#ffffff" stroke-width="1.5"/><circle cx="1172.97" cy="494.79" r="5.5" fill="#b03a2e" stroke="#ffffff" stroke-width="1.5"/><circle cx="1178.90" cy="497.83" r="5.5" fill="#1f7a4d" stroke="#ffffff" stroke-width="1.5"/><circle cx="1184.83" cy="497.83" r="5.5" fill="#b03a2e" stroke="#ffffff" stroke-width="1.5"/><circle cx="1190.76" cy="497.83" r="5.5" fill="#b03a2e" stroke="#ffffff" stroke-width="1.5"/><circle cx="1196.69" cy="498.00" r="5.5" fill="#1f7a4d" stroke="#ffffff" stroke-width="1.5"/><circle cx="1202.62" cy="498.00" r="5.5" fill="#1f7a4d" stroke="#ffffff" stroke-width="1.5"/><circle cx="1208.55" cy="498.00" r="5.5" fill="#b03a2e" stroke="#ffffff" stroke-width="1.5"/><circle cx="1214.48" cy="498.00" r="5.5" fill="#b03a2e" stroke="#ffffff" stroke-width="1.5"/><circle cx="1220.41" cy="498.00" r="5.5" fill="#b03a2e" stroke="#ffffff" stroke-width="1.5"/><circle cx="1226.34" cy="498.00" r="5.5" fill="#b03a2e" stroke="#ffffff" stroke-width="1.5"/><circle cx="1232.28" cy="498.00" r="5.5" fill="#b03a2e" stroke="#ffffff" stroke-width="1.5"/><circle cx="1238.21" cy="498.00" r="5.5" fill="#b03a2e" stroke="#ffffff" stroke-width="1.5"/><circle cx="1244.14" cy="498.00" r="5.5" fill="#b03a2e" stroke="#ffffff" stroke-width="1.5"/><circle cx="1250.07" cy="498.00" r="5.5" fill="#b03a2e" stroke="#ffffff" stroke-width="1.5"/><circle cx="1256.00" cy="498.00" r="5.5" fill="#b03a2e" stroke="#ffffff" stroke-width="1.5"/><rect x="40" y="590" width="610" height="320" rx="18" fill="#ffffff" stroke="#d6d3d1"/><text x="60" y="618" class="paneltitle">Training steps vs val_bpb</text><line x1="110" y1="868" x2="626" y2="868" stroke="#94a3b8" stroke-width="1.5"/><line x1="110" y1="868" x2="110" y2="638" stroke="#94a3b8" stroke-width="1.5"/><text x="368.00" y="896.00" class="small">steps in 600s</text><text x="62.00" y="628.00" class="small">val_bpb</text><line x1="110" y1="868.00" x2="626" y2="868.00" stroke="#e5e7eb" stroke-width="1"/><text x="56.00" y="872.00" class="small">1.3451</text><line x1="110" y1="753.00" x2="626" y2="753.00" stroke="#e5e7eb" stroke-width="1"/><text x="56.00" y="757.00" class="small">1.4686</text><line x1="110" y1="638.00" x2="626" y2="638.00" stroke="#e5e7eb" stroke-width="1"/><text x="56.00" y="642.00" class="small">1.5921</text><line x1="110.00" y1="868" x2="110.00" y2="638" stroke="#f1f5f9" stroke-width="1"/><text x="98.00" y="886.00" class="small">342.0</text><line x1="368.00" y1="868" x2="368.00" y2="638" stroke="#f1f5f9" stroke-width="1"/><text x="356.00" y="886.00" class="small">1194.5</text><line x1="626.00" y1="868" x2="626.00" y2="638" stroke="#f1f5f9" stroke-width="1"/><text x="614.00" y="886.00" class="small">2047.0</text><circle cx="110.00" cy="638.00" r="6" fill="#1f7a4d" stroke="#ffffff" stroke-width="1.5"/><text x="118.00" y="630.00" class="small">002</text><circle cx="216.83" cy="794.62" r="6" fill="#1f7a4d" stroke="#ffffff" stroke-width="1.5"/><text x="224.83" y="786.62" class="small">003</text><circle cx="233.78" cy="817.81" r="6" fill="#1f7a4d" stroke="#ffffff" stroke-width="1.5"/><text x="241.78" y="809.81" class="small">001</text><circle cx="211.08" cy="806.36" r="6" fill="#b03a2e" stroke="#ffffff" stroke-width="1.5"/><text x="219.08" y="798.36" class="small">002</text><circle cx="272.21" cy="824.70" r="6" fill="#1f7a4d" stroke="#ffffff" stroke-width="1.5"/><text x="280.21" y="816.70" class="small">003</text><circle cx="372.09" cy="824.98" r="6" fill="#1f7a4d" stroke="#ffffff" stroke-width="1.5"/><text x="380.09" y="816.98" class="small">004</text><circle cx="277.66" cy="819.39" r="6" fill="#b03a2e" stroke="#ffffff" stroke-width="1.5"/><text x="285.66" y="811.39" class="small">005</text><circle cx="322.45" cy="818.18" r="6" fill="#b03a2e" stroke="#ffffff" stroke-width="1.5"/><text x="330.45" y="810.18" class="small">006</text><circle cx="232.27" cy="810.73" r="6" fill="#b03a2e" stroke="#ffffff" stroke-width="1.5"/><text x="240.27" y="802.73" class="small">007</text><circle cx="293.40" cy="813.99" r="6" fill="#b03a2e" stroke="#ffffff" stroke-width="1.5"/><text x="301.40" y="805.99" class="small">008</text><circle cx="257.39" cy="821.26" r="6" fill="#b03a2e" stroke="#ffffff" stroke-width="1.5"/><text x="265.39" y="813.26" class="small">009</text><circle cx="356.05" cy="826.28" r="6" fill="#b03a2e" stroke="#ffffff" stroke-width="1.5"/><text x="364.05" y="818.28" class="small">010</text><circle cx="353.32" cy="819.67" r="6" fill="#b03a2e" stroke="#ffffff" stroke-width="1.5"/><text x="361.32" y="811.67" class="small">011</text><circle cx="414.76" cy="831.96" r="6" fill="#1f7a4d" stroke="#ffffff" stroke-width="1.5"/><text x="422.76" y="823.96" class="small">012</text><circle cx="395.99" cy="824.79" r="6" fill="#b03a2e" stroke="#ffffff" stroke-width="1.5"/><text x="403.99" y="816.79" class="small">013</text><circle cx="401.14" cy="824.23" r="6" fill="#b03a2e" stroke="#ffffff" stroke-width="1.5"/><text x="409.14" y="816.23" class="small">014</text><circle cx="397.51" cy="825.63" r="6" fill="#b03a2e" stroke="#ffffff" stroke-width="1.5"/><text x="405.51" y="817.63" class="small">015</text><circle cx="526.43" cy="842.86" r="6" fill="#1f7a4d" stroke="#ffffff" stroke-width="1.5"/><text x="534.43" y="834.86" class="small">016</text><circle cx="414.46" cy="825.35" r="6" fill="#b03a2e" stroke="#ffffff" stroke-width="1.5"/><text x="422.46" y="817.35" class="small">017</text><circle cx="526.73" cy="836.81" r="6" fill="#b03a2e" stroke="#ffffff" stroke-width="1.5"/><text x="534.73" y="828.81" class="small">018</text><circle cx="507.37" cy="834.76" r="6" fill="#b03a2e" stroke="#ffffff" stroke-width="1.5"/><text x="515.37" y="826.76" class="small">019</text><circle cx="507.97" cy="830.57" r="6" fill="#b03a2e" stroke="#ffffff" stroke-width="1.5"/><text x="515.97" y="822.57" class="small">020</text><circle cx="506.46" cy="843.98" r="6" fill="#1f7a4d" stroke="#ffffff" stroke-width="1.5"/><text x="514.46" y="835.98" class="small">021</text><circle cx="535.51" cy="819.86" r="6" fill="#b03a2e" stroke="#ffffff" stroke-width="1.5"/><text x="543.51" y="811.86" class="small">022</text><circle cx="505.55" cy="838.67" r="6" fill="#b03a2e" stroke="#ffffff" stroke-width="1.5"/><text x="513.55" y="830.67" class="small">023</text><circle cx="526.13" cy="837.64" r="6" fill="#b03a2e" stroke="#ffffff" stroke-width="1.5"/><text x="534.13" y="829.64" class="small">024</text><circle cx="526.13" cy="840.81" r="6" fill="#b03a2e" stroke="#ffffff" stroke-width="1.5"/><text x="534.13" y="832.81" class="small">025</text><circle cx="506.15" cy="852.82" r="6" fill="#1f7a4d" stroke="#ffffff" stroke-width="1.5"/><text x="514.15" y="844.82" class="small">026</text><circle cx="506.15" cy="855.80" r="6" fill="#1f7a4d" stroke="#ffffff" stroke-width="1.5"/><text x="514.15" y="847.80" class="small">027</text><circle cx="505.85" cy="851.52" r="6" fill="#b03a2e" stroke="#ffffff" stroke-width="1.5"/><text x="513.85" y="843.52" class="small">028</text><circle cx="506.15" cy="854.50" r="6" fill="#b03a2e" stroke="#ffffff" stroke-width="1.5"/><text x="514.15" y="846.50" class="small">029</text><circle cx="505.85" cy="857.48" r="6" fill="#1f7a4d" stroke="#ffffff" stroke-width="1.5"/><text x="513.85" y="849.48" class="small">030</text><circle cx="506.15" cy="857.48" r="6" fill="#b03a2e" stroke="#ffffff" stroke-width="1.5"/><text x="514.15" y="849.48" class="small">001</text><circle cx="506.46" cy="856.92" r="6" fill="#b03a2e" stroke="#ffffff" stroke-width="1.5"/><text x="514.46" y="848.92" class="small">002</text><circle cx="506.46" cy="854.22" r="6" fill="#b03a2e" stroke="#ffffff" stroke-width="1.5"/><text x="514.46" y="846.22" class="small">003</text><circle cx="507.06" cy="856.55" r="6" fill="#b03a2e" stroke="#ffffff" stroke-width="1.5"/><text x="515.06" y="848.55" class="small">004</text><circle cx="506.46" cy="857.38" r="6" fill="#b03a2e" stroke="#ffffff" stroke-width="1.5"/><text x="514.46" y="849.38" class="small">005</text><circle cx="520.08" cy="838.95" r="6" fill="#b03a2e" stroke="#ffffff" stroke-width="1.5"/><text x="528.08" y="830.95" class="small">006</text><circle cx="516.44" cy="847.98" r="6" fill="#b03a2e" stroke="#ffffff" stroke-width="1.5"/><text x="524.44" y="839.98" class="small">007</text><circle cx="506.46" cy="857.11" r="6" fill="#b03a2e" stroke="#ffffff" stroke-width="1.5"/><text x="514.46" y="849.11" class="small">008</text><circle cx="508.58" cy="853.19" r="6" fill="#b03a2e" stroke="#ffffff" stroke-width="1.5"/><text x="516.58" y="845.19" class="small">009</text><circle cx="533.70" cy="834.85" r="6" fill="#b03a2e" stroke="#ffffff" stroke-width="1.5"/><text x="541.70" y="826.85" class="small">010</text><circle cx="504.94" cy="843.14" r="6" fill="#b03a2e" stroke="#ffffff" stroke-width="1.5"/><text x="512.94" y="835.14" class="small">011</text><circle cx="516.14" cy="829.45" r="6" fill="#b03a2e" stroke="#ffffff" stroke-width="1.5"/><text x="524.14" y="821.45" class="small">012</text><circle cx="512.51" cy="846.21" r="6" fill="#b03a2e" stroke="#ffffff" stroke-width="1.5"/><text x="520.51" y="838.21" class="small">013</text><circle cx="513.12" cy="841.37" r="6" fill="#b03a2e" stroke="#ffffff" stroke-width="1.5"/><text x="521.12" y="833.37" class="small">014</text><circle cx="462.27" cy="827.77" r="6" fill="#b03a2e" stroke="#ffffff" stroke-width="1.5"/><text x="470.27" y="819.77" class="small">015</text><circle cx="574.55" cy="867.81" r="6" fill="#1f7a4d" stroke="#ffffff" stroke-width="1.5"/><text x="582.55" y="859.81" class="small">001</text><circle cx="626.00" cy="863.25" r="6" fill="#b03a2e" stroke="#ffffff" stroke-width="1.5"/><text x="634.00" y="855.25" class="small">002</text><circle cx="606.03" cy="864.55" r="6" fill="#b03a2e" stroke="#ffffff" stroke-width="1.5"/><text x="614.03" y="856.55" class="small">003</text><circle cx="582.42" cy="868.00" r="6" fill="#1f7a4d" stroke="#ffffff" stroke-width="1.5"/><text x="590.42" y="860.00" class="small">004</text><circle cx="592.10" cy="865.58" r="6" fill="#1f7a4d" stroke="#ffffff" stroke-width="1.5"/><text x="600.10" y="857.58" class="small">005</text><circle cx="593.31" cy="854.96" r="6" fill="#b03a2e" stroke="#ffffff" stroke-width="1.5"/><text x="601.31" y="846.96" class="small">011</text><circle cx="592.71" cy="849.56" r="6" fill="#b03a2e" stroke="#ffffff" stroke-width="1.5"/><text x="600.71" y="841.56" class="small">012</text><circle cx="593.01" cy="863.25" r="6" fill="#b03a2e" stroke="#ffffff" stroke-width="1.5"/><text x="601.01" y="855.25" class="small">013</text><circle cx="593.01" cy="864.46" r="6" fill="#b03a2e" stroke="#ffffff" stroke-width="1.5"/><text x="601.01" y="856.46" class="small">014</text><circle cx="593.31" cy="861.85" r="6" fill="#b03a2e" stroke="#ffffff" stroke-width="1.5"/><text x="601.31" y="853.85" class="small">015</text><circle cx="527.94" cy="719.76" r="6" fill="#b03a2e" stroke="#ffffff" stroke-width="1.5"/><text x="535.94" y="711.76" class="small">007</text><circle cx="560.63" cy="863.53" r="6" fill="#b03a2e" stroke="#ffffff" stroke-width="1.5"/><text x="568.63" y="855.53" class="small">008</text><circle cx="529.46" cy="711.38" r="6" fill="#b03a2e" stroke="#ffffff" stroke-width="1.5"/><text x="537.46" y="703.38" class="small">009</text><circle cx="541.56" cy="722.27" r="6" fill="#b03a2e" stroke="#ffffff" stroke-width="1.5"/><text x="549.56" y="714.27" class="small">010</text><rect x="670" y="590" width="610" height="320" rx="18" fill="#ffffff" stroke="#d6d3d1"/><text x="690" y="618" class="paneltitle">Artifact size vs val_bpb</text><line x1="740" y1="868" x2="1256" y2="868" stroke="#94a3b8" stroke-width="1.5"/><line x1="740" y1="868" x2="740" y2="638" stroke="#94a3b8" stroke-width="1.5"/><text x="998.00" y="896.00" class="small">artifact MB</text><text x="692.00" y="628.00" class="small">val_bpb</text><line x1="740" y1="868.00" x2="1256" y2="868.00" stroke="#e5e7eb" stroke-width="1"/><text x="686.00" y="872.00" class="small">1.3451</text><line x1="740" y1="753.00" x2="1256" y2="753.00" stroke="#e5e7eb" stroke-width="1"/><text x="686.00" y="757.00" class="small">1.4292</text><line x1="740" y1="638.00" x2="1256" y2="638.00" stroke="#e5e7eb" stroke-width="1"/><text x="686.00" y="642.00" class="small">1.5133</text><line x1="740.00" y1="868" x2="740.00" y2="638" stroke="#f1f5f9" stroke-width="1"/><text x="728.00" y="886.00" class="small">11.3</text><line x1="998.00" y1="868" x2="998.00" y2="638" stroke="#f1f5f9" stroke-width="1"/><text x="986.00" y="886.00" class="small">14.5</text><line x1="1256.00" y1="868" x2="1256.00" y2="638" stroke="#f1f5f9" stroke-width="1"/><text x="1244.00" y="886.00" class="small">17.7</text><circle cx="850.28" cy="794.30" r="6" fill="#1f7a4d" stroke="#ffffff" stroke-width="1.5"/><text x="858.28" y="786.30" class="small">001</text><circle cx="933.20" cy="777.48" r="6" fill="#b03a2e" stroke="#ffffff" stroke-width="1.5"/><text x="941.20" y="769.48" class="small">002</text><circle cx="1001.62" cy="804.41" r="6" fill="#1f7a4d" stroke="#ffffff" stroke-width="1.5"/><text x="1009.62" y="796.41" class="small">003</text><circle cx="1106.27" cy="804.83" r="6" fill="#1f7a4d" stroke="#ffffff" stroke-width="1.5"/><text x="1114.27" y="796.83" class="small">004</text><circle cx="911.46" cy="796.62" r="6" fill="#b03a2e" stroke="#ffffff" stroke-width="1.5"/><text x="919.46" y="788.62" class="small">005</text><circle cx="740.00" cy="794.84" r="6" fill="#b03a2e" stroke="#ffffff" stroke-width="1.5"/><text x="748.00" y="786.84" class="small">006</text><circle cx="1235.88" cy="783.90" r="6" fill="#b03a2e" stroke="#ffffff" stroke-width="1.5"/><text x="1243.88" y="775.90" class="small">007</text><circle cx="801.18" cy="788.69" r="6" fill="#b03a2e" stroke="#ffffff" stroke-width="1.5"/><text x="809.18" y="780.69" class="small">008</text><circle cx="1135.25" cy="799.36" r="6" fill="#b03a2e" stroke="#ffffff" stroke-width="1.5"/><text x="1143.25" y="791.36" class="small">009</text><circle cx="1256.00" cy="806.74" r="6" fill="#b03a2e" stroke="#ffffff" stroke-width="1.5"/><text x="1264.00" y="798.74" class="small">010</text><circle cx="1091.78" cy="797.03" r="6" fill="#b03a2e" stroke="#ffffff" stroke-width="1.5"/><text x="1099.78" y="789.03" class="small">011</text><circle cx="1018.53" cy="815.08" r="6" fill="#1f7a4d" stroke="#ffffff" stroke-width="1.5"/><text x="1026.53" y="807.08" class="small">012</text><circle cx="975.06" cy="804.55" r="6" fill="#b03a2e" stroke="#ffffff" stroke-width="1.5"/><text x="983.06" y="796.55" class="small">013</text><circle cx="1144.11" cy="803.73" r="6" fill="#b03a2e" stroke="#ffffff" stroke-width="1.5"/><text x="1152.11" y="795.73" class="small">014</text><circle cx="993.57" cy="805.78" r="6" fill="#b03a2e" stroke="#ffffff" stroke-width="1.5"/><text x="1001.57" y="797.78" class="small">015</text><circle cx="1078.90" cy="831.08" r="6" fill="#1f7a4d" stroke="#ffffff" stroke-width="1.5"/><text x="1086.90" y="823.08" class="small">016</text><circle cx="1033.82" cy="805.37" r="6" fill="#b03a2e" stroke="#ffffff" stroke-width="1.5"/><text x="1041.82" y="797.37" class="small">017</text><circle cx="1084.54" cy="822.19" r="6" fill="#b03a2e" stroke="#ffffff" stroke-width="1.5"/><text x="1092.54" y="814.19" class="small">018</text><circle cx="1055.56" cy="819.18" r="6" fill="#b03a2e" stroke="#ffffff" stroke-width="1.5"/><text x="1063.56" y="811.18" class="small">019</text><circle cx="1062.80" cy="813.03" r="6" fill="#b03a2e" stroke="#ffffff" stroke-width="1.5"/><text x="1070.80" y="805.03" class="small">020</text><circle cx="1066.83" cy="832.72" r="6" fill="#1f7a4d" stroke="#ffffff" stroke-width="1.5"/><text x="1074.83" y="824.72" class="small">021</text><circle cx="991.96" cy="797.30" r="6" fill="#b03a2e" stroke="#ffffff" stroke-width="1.5"/><text x="999.96" y="789.30" class="small">022</text><circle cx="1065.22" cy="824.93" r="6" fill="#b03a2e" stroke="#ffffff" stroke-width="1.5"/><text x="1073.22" y="816.93" class="small">023</text><circle cx="1076.49" cy="823.42" r="6" fill="#b03a2e" stroke="#ffffff" stroke-width="1.5"/><text x="1084.49" y="815.42" class="small">024</text><circle cx="1078.90" cy="828.07" r="6" fill="#b03a2e" stroke="#ffffff" stroke-width="1.5"/><text x="1086.90" y="820.07" class="small">025</text><circle cx="1103.05" cy="845.71" r="6" fill="#1f7a4d" stroke="#ffffff" stroke-width="1.5"/><text x="1111.05" y="837.71" class="small">026</text><circle cx="1102.25" cy="850.09" r="6" fill="#1f7a4d" stroke="#ffffff" stroke-width="1.5"/><text x="1110.25" y="842.09" class="small">027</text><circle cx="1102.25" cy="843.80" r="6" fill="#b03a2e" stroke="#ffffff" stroke-width="1.5"/><text x="1110.25" y="835.80" class="small">028</text><circle cx="1099.83" cy="848.17" r="6" fill="#b03a2e" stroke="#ffffff" stroke-width="1.5"/><text x="1107.83" y="840.17" class="small">029</text><circle cx="1104.66" cy="852.55" r="6" fill="#1f7a4d" stroke="#ffffff" stroke-width="1.5"/><text x="1112.66" y="844.55" class="small">030</text><circle cx="1105.47" cy="852.55" r="6" fill="#b03a2e" stroke="#ffffff" stroke-width="1.5"/><text x="1113.47" y="844.55" class="small">001</text><circle cx="1103.86" cy="851.73" r="6" fill="#b03a2e" stroke="#ffffff" stroke-width="1.5"/><text x="1111.86" y="843.73" class="small">002</text><circle cx="1104.66" cy="847.76" r="6" fill="#b03a2e" stroke="#ffffff" stroke-width="1.5"/><text x="1112.66" y="839.76" class="small">003</text><circle cx="1105.47" cy="851.18" r="6" fill="#b03a2e" stroke="#ffffff" stroke-width="1.5"/><text x="1113.47" y="843.18" class="small">004</text><circle cx="1106.27" cy="852.41" r="6" fill="#b03a2e" stroke="#ffffff" stroke-width="1.5"/><text x="1114.27" y="844.41" class="small">005</text><circle cx="1106.27" cy="825.34" r="6" fill="#b03a2e" stroke="#ffffff" stroke-width="1.5"/><text x="1114.27" y="817.34" class="small">006</text><circle cx="1091.78" cy="838.60" r="6" fill="#b03a2e" stroke="#ffffff" stroke-width="1.5"/><text x="1099.78" y="830.60" class="small">007</text><circle cx="1104.66" cy="852.00" r="6" fill="#b03a2e" stroke="#ffffff" stroke-width="1.5"/><text x="1112.66" y="844.00" class="small">008</text><circle cx="1105.47" cy="846.26" r="6" fill="#b03a2e" stroke="#ffffff" stroke-width="1.5"/><text x="1113.47" y="838.26" class="small">009</text><circle cx="1092.59" cy="819.32" r="6" fill="#b03a2e" stroke="#ffffff" stroke-width="1.5"/><text x="1100.59" y="811.32" class="small">010</text><circle cx="1107.08" cy="831.49" r="6" fill="#b03a2e" stroke="#ffffff" stroke-width="1.5"/><text x="1115.08" y="823.49" class="small">011</text><circle cx="1018.53" cy="811.39" r="6" fill="#b03a2e" stroke="#ffffff" stroke-width="1.5"/><text x="1026.53" y="803.39" class="small">012</text><circle cx="1066.02" cy="836.00" r="6" fill="#b03a2e" stroke="#ffffff" stroke-width="1.5"/><text x="1074.02" y="828.00" class="small">013</text><circle cx="1064.41" cy="828.89" r="6" fill="#b03a2e" stroke="#ffffff" stroke-width="1.5"/><text x="1072.41" y="820.89" class="small">014</text><circle cx="1107.88" cy="808.93" r="6" fill="#b03a2e" stroke="#ffffff" stroke-width="1.5"/><text x="1115.88" y="800.93" class="small">015</text><circle cx="1043.48" cy="867.73" r="6" fill="#1f7a4d" stroke="#ffffff" stroke-width="1.5"/><text x="1051.48" y="859.73" class="small">001</text><circle cx="992.77" cy="861.03" r="6" fill="#b03a2e" stroke="#ffffff" stroke-width="1.5"/><text x="1000.77" y="853.03" class="small">002</text><circle cx="991.16" cy="862.94" r="6" fill="#b03a2e" stroke="#ffffff" stroke-width="1.5"/><text x="999.16" y="854.94" class="small">003</text><circle cx="1043.48" cy="868.00" r="6" fill="#1f7a4d" stroke="#ffffff" stroke-width="1.5"/><text x="1051.48" y="860.00" class="small">004</text><circle cx="1017.72" cy="864.44" r="6" fill="#1f7a4d" stroke="#ffffff" stroke-width="1.5"/><text x="1025.72" y="856.44" class="small">005</text><circle cx="1025.77" cy="848.86" r="6" fill="#b03a2e" stroke="#ffffff" stroke-width="1.5"/><text x="1033.77" y="840.86" class="small">011</text><circle cx="1000.82" cy="840.93" r="6" fill="#b03a2e" stroke="#ffffff" stroke-width="1.5"/><text x="1008.82" y="832.93" class="small">012</text><circle cx="1017.72" cy="861.03" r="6" fill="#b03a2e" stroke="#ffffff" stroke-width="1.5"/><text x="1025.72" y="853.03" class="small">013</text><circle cx="1017.72" cy="862.80" r="6" fill="#b03a2e" stroke="#ffffff" stroke-width="1.5"/><text x="1025.72" y="854.80" class="small">014</text><circle cx="1025.77" cy="858.98" r="6" fill="#b03a2e" stroke="#ffffff" stroke-width="1.5"/><text x="1033.77" y="850.98" class="small">015</text><circle cx="838.21" cy="650.31" r="6" fill="#b03a2e" stroke="#ffffff" stroke-width="1.5"/><text x="846.21" y="642.31" class="small">007</text><circle cx="1009.67" cy="861.44" r="6" fill="#b03a2e" stroke="#ffffff" stroke-width="1.5"/><text x="1017.67" y="853.44" class="small">008</text><circle cx="905.02" cy="638.00" r="6" fill="#b03a2e" stroke="#ffffff" stroke-width="1.5"/><text x="913.02" y="630.00" class="small">009</text><circle cx="841.43" cy="654.00" r="6" fill="#b03a2e" stroke="#ffffff" stroke-width="1.5"/><text x="849.43" y="646.00" class="small">010</text><rect x="40" y="940" width="1240" height="88" rx="14" fill="#fffdf8" stroke="#d6d3d1"/><text x="60" y="964" class="body">Current best: AL-20260331-004 at 1.3451 val_bpb.</text><text x="60" y="982" class="body">Latest run: AL-20260331-010 (discard) tested cheap fixed routing and dynamic depth routing may be complementary rather than redundant.</text><text x="60" y="1000" class="body">Latest delta vs best: +0.1565 val_bpb.</text><text x="60" y="1018" class="body">Read agent_lab/state.md for the live dashboard and agent_lab/tranches.md for the tranche map.</text></svg>
