<svg xmlns="http://www.w3.org/2000/svg" width="1320" height="1040" viewBox="0 0 1320 1040"><rect width="100%" height="100%" fill="#f6f4ef"/><style>text{font-family:ui-sans-serif,system-ui,-apple-system,BlinkMacSystemFont,"Segoe UI",sans-serif;fill:#1f2937}.small{font-size:12px}.body{font-size:14px}.label{font-size:15px;font-weight:600}.title{font-size:28px;font-weight:700}.cardtitle{font-size:13px;font-weight:700;letter-spacing:.08em;text-transform:uppercase;fill:#475569}.metric{font-size:30px;font-weight:700}.paneltitle{font-size:18px;font-weight:700}</style><text x="40" y="56" class="title">Agent Lab Experiment Dashboard</text><text x="40" y="84" class="body">Best run AL-20260329-010 reached 1.3899 val_bpb. 14 scored runs are tracked here, with 7 kept and 7 discarded.</text><rect x="40" y="110" width="290" height="78" rx="14" fill="#ffffff" stroke="#d6d3d1"/><text x="60" y="134" class="cardtitle">Current Best</text><text x="60" y="164" class="metric">1.3899</text><text x="60" y="180" class="small">AL-20260329-010 (fe477f9)</text><rect x="350" y="110" width="290" height="78" rx="14" fill="#ffffff" stroke="#d6d3d1"/><text x="370" y="134" class="cardtitle">Tracked Runs</text><text x="370" y="164" class="metric">14</text><text x="370" y="180" class="small">7 keep / 7 discard</text><rect x="660" y="110" width="290" height="78" rx="14" fill="#ffffff" stroke="#d6d3d1"/><text x="680" y="134" class="cardtitle">Primary Metric</text><text x="680" y="164" class="metric">final_int8_ttt_lora</text><text x="680" y="180" class="small">lower is better</text><rect x="970" y="110" width="290" height="78" rx="14" fill="#ffffff" stroke="#d6d3d1"/><text x="990" y="134" class="cardtitle">Mean val_bpb</text><text x="990" y="164" class="metric">1.4302</text><text x="990" y="180" class="small">across scored runs</text><rect x="40" y="220" width="610" height="320" rx="18" fill="#ffffff" stroke="#d6d3d1"/><text x="60" y="248" class="paneltitle">val_bpb by experiment</text><line x1="110" y1="498" x2="626" y2="498" stroke="#94a3b8" stroke-width="1.5"/><line x1="110" y1="498" x2="110" y2="268" stroke="#94a3b8" stroke-width="1.5"/><text x="368.00" y="526.00" class="small">experiment order</text><text x="62.00" y="258.00" class="small">val_bpb</text><line x1="110" y1="498.00" x2="626" y2="498.00" stroke="#e5e7eb" stroke-width="1"/><text x="56.00" y="502.00" class="small">1.3899</text><line x1="110" y1="383.00" x2="626" y2="383.00" stroke="#e5e7eb" stroke-width="1"/><text x="56.00" y="387.00" class="small">1.4999</text><line x1="110" y1="268.00" x2="626" y2="268.00" stroke="#e5e7eb" stroke-width="1"/><text x="56.00" y="272.00" class="small">1.6099</text><polyline fill="none" stroke="#1d4ed8" stroke-width="3" points="110.00,268.00 149.69,286.61 189.38,462.45 229.08,473.95 268.77,488.49 308.46,475.63 348.15,496.22 387.85,496.54 427.54,490.26 467.23,488.90 506.92,480.54 546.62,484.20 586.31,492.35 626.00,498.00"/><circle cx="110.00" cy="268.00" r="5.5" fill="#1f7a4d" stroke="#ffffff" stroke-width="1.5"/><text x="118.00" y="260.00" class="small">001</text><circle cx="149.69" cy="286.61" r="5.5" fill="#1f7a4d" stroke="#ffffff" stroke-width="1.5"/><text x="157.69" y="278.61" class="small">002</text><circle cx="189.38" cy="462.45" r="5.5" fill="#1f7a4d" stroke="#ffffff" stroke-width="1.5"/><text x="197.38" y="454.45" class="small">003</text><circle cx="229.08" cy="473.95" r="5.5" fill="#1f7a4d" stroke="#ffffff" stroke-width="1.5"/><text x="237.08" y="465.95" class="small">004</text><circle cx="268.77" cy="488.49" r="5.5" fill="#1f7a4d" stroke="#ffffff" stroke-width="1.5"/><text x="276.77" y="480.49" class="small">001</text><circle cx="308.46" cy="475.63" r="5.5" fill="#b03a2e" stroke="#ffffff" stroke-width="1.5"/><text x="316.46" y="467.63" class="small">002</text><circle cx="348.15" cy="496.22" r="5.5" fill="#1f7a4d" stroke="#ffffff" stroke-width="1.5"/><text x="356.15" y="488.22" class="small">003</text><circle cx="387.85" cy="496.54" r="5.5" fill="#1f7a4d" stroke="#ffffff" stroke-width="1.5"/><text x="395.85" y="488.54" class="small">004</text><circle cx="427.54" cy="490.26" r="5.5" fill="#b03a2e" stroke="#ffffff" stroke-width="1.5"/><text x="435.54" y="482.26" class="small">005</text><circle cx="467.23" cy="488.90" r="5.5" fill="#b03a2e" stroke="#ffffff" stroke-width="1.5"/><text x="475.23" y="480.90" class="small">006</text><circle cx="506.92" cy="480.54" r="5.5" fill="#b03a2e" stroke="#ffffff" stroke-width="1.5"/><text x="514.92" y="472.54" class="small">007</text><circle cx="546.62" cy="484.20" r="5.5" fill="#b03a2e" stroke="#ffffff" stroke-width="1.5"/><text x="554.62" y="476.20" class="small">008</text><circle cx="586.31" cy="492.35" r="5.5" fill="#b03a2e" stroke="#ffffff" stroke-width="1.5"/><text x="594.31" y="484.35" class="small">009</text><circle cx="626.00" cy="498.00" r="5.5" fill="#b03a2e" stroke="#ffffff" stroke-width="1.5"/><text x="634.00" y="490.00" class="small">010</text><rect x="670" y="220" width="610" height="320" rx="18" fill="#ffffff" stroke="#d6d3d1"/><text x="690" y="248" class="paneltitle">Running best frontier</text><line x1="740" y1="498" x2="1256" y2="498" stroke="#94a3b8" stroke-width="1.5"/><line x1="740" y1="498" x2="740" y2="268" stroke="#94a3b8" stroke-width="1.5"/><text x="998.00" y="526.00" class="small">experiment order</text><text x="692.00" y="258.00" class="small">best so far</text><line x1="740" y1="498.00" x2="1256" y2="498.00" stroke="#e5e7eb" stroke-width="1"/><text x="686.00" y="502.00" class="small">1.3899</text><line x1="740" y1="383.00" x2="1256" y2="383.00" stroke="#e5e7eb" stroke-width="1"/><text x="686.00" y="387.00" class="small">1.4999</text><line x1="740" y1="268.00" x2="1256" y2="268.00" stroke="#e5e7eb" stroke-width="1"/><text x="686.00" y="272.00" class="small">1.6099</text><polyline fill="none" stroke="#1d4ed8" stroke-width="3" points="740.00,268.00 779.69,286.61 819.38,462.45 859.08,473.95 898.77,488.49 938.46,488.49 978.15,496.22 1017.85,496.54 1057.54,496.54 1097.23,496.54 1136.92,496.54 1176.62,496.54 1216.31,496.54 1256.00,498.00"/><circle cx="740.00" cy="268.00" r="5.5" fill="#1f7a4d" stroke="#ffffff" stroke-width="1.5"/><circle cx="779.69" cy="286.61" r="5.5" fill="#1f7a4d" stroke="#ffffff" stroke-width="1.5"/><circle cx="819.38" cy="462.45" r="5.5" fill="#1f7a4d" stroke="#ffffff" stroke-width="1.5"/><circle cx="859.08" cy="473.95" r="5.5" fill="#1f7a4d" stroke="#ffffff" stroke-width="1.5"/><circle cx="898.77" cy="488.49" r="5.5" fill="#1f7a4d" stroke="#ffffff" stroke-width="1.5"/><circle cx="938.46" cy="488.49" r="5.5" fill="#b03a2e" stroke="#ffffff" stroke-width="1.5"/><circle cx="978.15" cy="496.22" r="5.5" fill="#1f7a4d" stroke="#ffffff" stroke-width="1.5"/><circle cx="1017.85" cy="496.54" r="5.5" fill="#1f7a4d" stroke="#ffffff" stroke-width="1.5"/><circle cx="1057.54" cy="496.54" r="5.5" fill="#b03a2e" stroke="#ffffff" stroke-width="1.5"/><circle cx="1097.23" cy="496.54" r="5.5" fill="#b03a2e" stroke="#ffffff" stroke-width="1.5"/><circle cx="1136.92" cy="496.54" r="5.5" fill="#b03a2e" stroke="#ffffff" stroke-width="1.5"/><circle cx="1176.62" cy="496.54" r="5.5" fill="#b03a2e" stroke="#ffffff" stroke-width="1.5"/><circle cx="1216.31" cy="496.54" r="5.5" fill="#b03a2e" stroke="#ffffff" stroke-width="1.5"/><circle cx="1256.00" cy="498.00" r="5.5" fill="#b03a2e" stroke="#ffffff" stroke-width="1.5"/><rect x="40" y="590" width="610" height="320" rx="18" fill="#ffffff" stroke="#d6d3d1"/><text x="60" y="618" class="paneltitle">Training steps vs val_bpb</text><line x1="110" y1="868" x2="626" y2="868" stroke="#94a3b8" stroke-width="1.5"/><line x1="110" y1="868" x2="110" y2="638" stroke="#94a3b8" stroke-width="1.5"/><text x="368.00" y="896.00" class="small">steps in 600s</text><text x="62.00" y="628.00" class="small">val_bpb</text><line x1="110" y1="868.00" x2="626" y2="868.00" stroke="#e5e7eb" stroke-width="1"/><text x="56.00" y="872.00" class="small">1.3899</text><line x1="110" y1="753.00" x2="626" y2="753.00" stroke="#e5e7eb" stroke-width="1"/><text x="56.00" y="757.00" class="small">1.4910</text><line x1="110" y1="638.00" x2="626" y2="638.00" stroke="#e5e7eb" stroke-width="1"/><text x="56.00" y="642.00" class="small">1.5921</text><line x1="110.00" y1="868" x2="110.00" y2="638" stroke="#f1f5f9" stroke-width="1"/><text x="98.00" y="886.00" class="small">342.0</text><line x1="368.00" y1="868" x2="368.00" y2="638" stroke="#f1f5f9" stroke-width="1"/><text x="356.00" y="886.00" class="small">775.0</text><line x1="626.00" y1="868" x2="626.00" y2="638" stroke="#f1f5f9" stroke-width="1"/><text x="614.00" y="886.00" class="small">1208.0</text><circle cx="110.00" cy="638.00" r="6" fill="#1f7a4d" stroke="#ffffff" stroke-width="1.5"/><text x="118.00" y="630.00" class="small">002</text><circle cx="320.33" cy="829.33" r="6" fill="#1f7a4d" stroke="#ffffff" stroke-width="1.5"/><text x="328.33" y="821.33" class="small">003</text><circle cx="353.70" cy="857.65" r="6" fill="#1f7a4d" stroke="#ffffff" stroke-width="1.5"/><text x="361.70" y="849.65" class="small">001</text><circle cx="309.01" cy="843.66" r="6" fill="#b03a2e" stroke="#ffffff" stroke-width="1.5"/><text x="317.01" y="835.66" class="small">002</text><circle cx="429.37" cy="866.07" r="6" fill="#1f7a4d" stroke="#ffffff" stroke-width="1.5"/><text x="437.37" y="858.07" class="small">003</text><circle cx="626.00" cy="866.41" r="6" fill="#1f7a4d" stroke="#ffffff" stroke-width="1.5"/><text x="634.00" y="858.41" class="small">004</text><circle cx="440.10" cy="859.58" r="6" fill="#b03a2e" stroke="#ffffff" stroke-width="1.5"/><text x="448.10" y="851.58" class="small">005</text><circle cx="528.28" cy="858.10" r="6" fill="#b03a2e" stroke="#ffffff" stroke-width="1.5"/><text x="536.28" y="850.10" class="small">006</text><circle cx="350.72" cy="849.00" r="6" fill="#b03a2e" stroke="#ffffff" stroke-width="1.5"/><text x="358.72" y="841.00" class="small">007</text><circle cx="471.08" cy="852.99" r="6" fill="#b03a2e" stroke="#ffffff" stroke-width="1.5"/><text x="479.08" y="844.99" class="small">008</text><circle cx="400.18" cy="861.86" r="6" fill="#b03a2e" stroke="#ffffff" stroke-width="1.5"/><text x="408.18" y="853.86" class="small">009</text><circle cx="594.42" cy="868.00" r="6" fill="#b03a2e" stroke="#ffffff" stroke-width="1.5"/><text x="602.42" y="860.00" class="small">010</text><rect x="670" y="590" width="610" height="320" rx="18" fill="#ffffff" stroke="#d6d3d1"/><text x="690" y="618" class="paneltitle">Artifact size vs val_bpb</text><line x1="740" y1="868" x2="1256" y2="868" stroke="#94a3b8" stroke-width="1.5"/><line x1="740" y1="868" x2="740" y2="638" stroke="#94a3b8" stroke-width="1.5"/><text x="998.00" y="896.00" class="small">artifact MB</text><text x="692.00" y="628.00" class="small">val_bpb</text><line x1="740" y1="868.00" x2="1256" y2="868.00" stroke="#e5e7eb" stroke-width="1"/><text x="686.00" y="872.00" class="small">1.3899</text><line x1="740" y1="753.00" x2="1256" y2="753.00" stroke="#e5e7eb" stroke-width="1"/><text x="686.00" y="757.00" class="small">1.4006</text><line x1="740" y1="638.00" x2="1256" y2="638.00" stroke="#e5e7eb" stroke-width="1"/><text x="686.00" y="642.00" class="small">1.4113</text><line x1="740.00" y1="868" x2="740.00" y2="638" stroke="#f1f5f9" stroke-width="1"/><text x="728.00" y="886.00" class="small">11.3</text><line x1="998.00" y1="868" x2="998.00" y2="638" stroke="#f1f5f9" stroke-width="1"/><text x="986.00" y="886.00" class="small">14.5</text><line x1="1256.00" y1="868" x2="1256.00" y2="638" stroke="#f1f5f9" stroke-width="1"/><text x="1244.00" y="886.00" class="small">17.7</text><circle cx="850.28" cy="770.20" r="6" fill="#1f7a4d" stroke="#ffffff" stroke-width="1.5"/><text x="858.28" y="762.20" class="small">001</text><circle cx="933.20" cy="638.00" r="6" fill="#b03a2e" stroke="#ffffff" stroke-width="1.5"/><text x="941.20" y="630.00" class="small">002</text><circle cx="1001.62" cy="849.73" r="6" fill="#1f7a4d" stroke="#ffffff" stroke-width="1.5"/><text x="1009.62" y="841.73" class="small">003</text><circle cx="1106.27" cy="852.95" r="6" fill="#1f7a4d" stroke="#ffffff" stroke-width="1.5"/><text x="1114.27" y="844.95" class="small">004</text><circle cx="911.46" cy="788.47" r="6" fill="#b03a2e" stroke="#ffffff" stroke-width="1.5"/><text x="919.46" y="780.47" class="small">005</text><circle cx="740.00" cy="774.50" r="6" fill="#b03a2e" stroke="#ffffff" stroke-width="1.5"/><text x="748.00" y="766.50" class="small">006</text><circle cx="1235.88" cy="688.51" r="6" fill="#b03a2e" stroke="#ffffff" stroke-width="1.5"/><text x="1243.88" y="680.51" class="small">007</text><circle cx="801.18" cy="726.13" r="6" fill="#b03a2e" stroke="#ffffff" stroke-width="1.5"/><text x="809.18" y="718.13" class="small">008</text><circle cx="1135.25" cy="809.96" r="6" fill="#b03a2e" stroke="#ffffff" stroke-width="1.5"/><text x="1143.25" y="801.96" class="small">009</text><circle cx="1256.00" cy="868.00" r="6" fill="#b03a2e" stroke="#ffffff" stroke-width="1.5"/><text x="1264.00" y="860.00" class="small">010</text><rect x="40" y="940" width="1240" height="72" rx="14" fill="#fffdf8" stroke="#d6d3d1"/><text x="60" y="964" class="body">Current best: AL-20260329-010 at 1.3899 val_bpb.</text><text x="60" y="982" class="body">Latest run: AL-20260329-010 (discard) tested the `9L / MLP3` near-miss may need more optimizer steps rather than a different width-depth ratio.</text><text x="60" y="1000" class="body">Read agent_lab/state.md for the live dashboard and agent_lab/tranches.md for the tranche map.</text></svg>
