<svg xmlns="http://www.w3.org/2000/svg" width="1320" height="1040" viewBox="0 0 1320 1040"><rect width="100%" height="100%" fill="#f6f4ef"/><style>text{font-family:ui-sans-serif,system-ui,-apple-system,BlinkMacSystemFont,"Segoe UI",sans-serif;fill:#1f2937}.small{font-size:12px}.body{font-size:14px}.label{font-size:15px;font-weight:600}.title{font-size:28px;font-weight:700}.cardtitle{font-size:13px;font-weight:700;letter-spacing:.08em;text-transform:uppercase;fill:#475569}.metric{font-size:30px;font-weight:700}.paneltitle{font-size:18px;font-weight:700}</style><text x="40" y="56" class="title">Agent Lab Experiment Dashboard</text><text x="40" y="84" class="body">Best run AL-20260329-016 reached 1.3721 val_bpb. 24 scored runs are tracked here, with 9 kept and 15 discarded.</text><rect x="40" y="110" width="290" height="78" rx="14" fill="#ffffff" stroke="#d6d3d1"/><text x="60" y="134" class="cardtitle">Current Best</text><text x="60" y="164" class="metric">1.3721</text><text x="60" y="180" class="small">AL-20260329-016 (22581b4)</text><rect x="350" y="110" width="290" height="78" rx="14" fill="#ffffff" stroke="#d6d3d1"/><text x="370" y="134" class="cardtitle">Tracked Runs</text><text x="370" y="164" class="metric">24</text><text x="370" y="180" class="small">9 keep / 15 discard</text><rect x="660" y="110" width="290" height="78" rx="14" fill="#ffffff" stroke="#d6d3d1"/><text x="680" y="134" class="cardtitle">Primary Metric</text><text x="680" y="164" class="metric">final_int8_ttt_lora</text><text x="680" y="180" class="small">lower is better</text><rect x="970" y="110" width="290" height="78" rx="14" fill="#ffffff" stroke="#d6d3d1"/><text x="990" y="134" class="cardtitle">Mean val_bpb</text><text x="990" y="164" class="metric">1.4119</text><text x="990" y="180" class="small">across scored runs</text><rect x="40" y="220" width="610" height="320" rx="18" fill="#ffffff" stroke="#d6d3d1"/><text x="60" y="248" class="paneltitle">val_bpb by experiment</text><line x1="110" y1="498" x2="626" y2="498" stroke="#94a3b8" stroke-width="1.5"/><line x1="110" y1="498" x2="110" y2="268" stroke="#94a3b8" stroke-width="1.5"/><text x="368.00" y="526.00" class="small">experiment order</text><text x="62.00" y="258.00" class="small">val_bpb</text><line x1="110" y1="498.00" x2="626" y2="498.00" stroke="#e5e7eb" stroke-width="1"/><text x="56.00" y="502.00" class="small">1.3721</text><line x1="110" y1="383.00" x2="626" y2="383.00" stroke="#e5e7eb" stroke-width="1"/><text x="56.00" y="387.00" class="small">1.4910</text><line x1="110" y1="268.00" x2="626" y2="268.00" stroke="#e5e7eb" stroke-width="1"/><text x="56.00" y="272.00" class="small">1.6099</text><polyline fill="none" stroke="#1d4ed8" stroke-width="3" points="110.00,268.00 132.43,285.22 154.87,447.90 177.30,458.54 199.74,471.98 222.17,460.09 244.61,479.14 267.04,479.43 289.48,473.63 311.91,472.37 334.35,464.63 356.78,468.02 379.22,475.56 401.65,480.78 424.09,473.92 446.52,486.68 468.96,479.24 491.39,478.66 513.83,480.11 536.26,498.00 558.70,479.82 581.13,491.71 603.57,489.59 626.00,485.23"/><circle cx="110.00" cy="268.00" r="5.5" fill="#1f7a4d" stroke="#ffffff" stroke-width="1.5"/><text x="118.00" y="260.00" class="small">001</text><circle cx="132.43" cy="285.22" r="5.5" fill="#1f7a4d" stroke="#ffffff" stroke-width="1.5"/><text x="140.43" y="277.22" class="small">002</text><circle cx="154.87" cy="447.90" r="5.5" fill="#1f7a4d" stroke="#ffffff" stroke-width="1.5"/><text x="162.87" y="439.90" class="small">003</text><circle cx="177.30" cy="458.54" r="5.5" fill="#1f7a4d" stroke="#ffffff" stroke-width="1.5"/><text x="185.30" y="450.54" class="small">004</text><circle cx="199.74" cy="471.98" r="5.5" fill="#1f7a4d" stroke="#ffffff" stroke-width="1.5"/><text x="207.74" y="463.98" class="small">001</text><circle cx="222.17" cy="460.09" r="5.5" fill="#b03a2e" stroke="#ffffff" stroke-width="1.5"/><text x="230.17" y="452.09" class="small">002</text><circle cx="244.61" cy="479.14" r="5.5" fill="#1f7a4d" stroke="#ffffff" stroke-width="1.5"/><text x="252.61" y="471.14" class="small">003</text><circle cx="267.04" cy="479.43" r="5.5" fill="#1f7a4d" stroke="#ffffff" stroke-width="1.5"/><text x="275.04" y="471.43" class="small">004</text><circle cx="289.48" cy="473.63" r="5.5" fill="#b03a2e" stroke="#ffffff" stroke-width="1.5"/><text x="297.48" y="465.63" class="small">005</text><circle cx="311.91" cy="472.37" r="5.5" fill="#b03a2e" stroke="#ffffff" stroke-width="1.5"/><text x="319.91" y="464.37" class="small">006</text><circle cx="334.35" cy="464.63" r="5.5" fill="#b03a2e" stroke="#ffffff" stroke-width="1.5"/><text x="342.35" y="456.63" class="small">007</text><circle cx="356.78" cy="468.02" r="5.5" fill="#b03a2e" stroke="#ffffff" stroke-width="1.5"/><text x="364.78" y="460.02" class="small">008</text><circle cx="379.22" cy="475.56" r="5.5" fill="#b03a2e" stroke="#ffffff" stroke-width="1.5"/><text x="387.22" y="467.56" class="small">009</text><circle cx="401.65" cy="480.78" r="5.5" fill="#b03a2e" stroke="#ffffff" stroke-width="1.5"/><text x="409.65" y="472.78" class="small">010</text><circle cx="424.09" cy="473.92" r="5.5" fill="#b03a2e" stroke="#ffffff" stroke-width="1.5"/><text x="432.09" y="465.92" class="small">011</text><circle cx="446.52" cy="486.68" r="5.5" fill="#1f7a4d" stroke="#ffffff" stroke-width="1.5"/><text x="454.52" y="478.68" class="small">012</text><circle cx="468.96" cy="479.24" r="5.5" fill="#b03a2e" stroke="#ffffff" stroke-width="1.5"/><text x="476.96" y="471.24" class="small">013</text><circle cx="491.39" cy="478.66" r="5.5" fill="#b03a2e" stroke="#ffffff" stroke-width="1.5"/><text x="499.39" y="470.66" class="small">014</text><circle cx="513.83" cy="480.11" r="5.5" fill="#b03a2e" stroke="#ffffff" stroke-width="1.5"/><text x="521.83" y="472.11" class="small">015</text><circle cx="536.26" cy="498.00" r="5.5" fill="#1f7a4d" stroke="#ffffff" stroke-width="1.5"/><text x="544.26" y="490.00" class="small">016</text><circle cx="558.70" cy="479.82" r="5.5" fill="#b03a2e" stroke="#ffffff" stroke-width="1.5"/><text x="566.70" y="471.82" class="small">017</text><circle cx="581.13" cy="491.71" r="5.5" fill="#b03a2e" stroke="#ffffff" stroke-width="1.5"/><text x="589.13" y="483.71" class="small">018</text><circle cx="603.57" cy="489.59" r="5.5" fill="#b03a2e" stroke="#ffffff" stroke-width="1.5"/><text x="611.57" y="481.59" class="small">019</text><circle cx="626.00" cy="485.23" r="5.5" fill="#b03a2e" stroke="#ffffff" stroke-width="1.5"/><text x="634.00" y="477.23" class="small">020</text><rect x="670" y="220" width="610" height="320" rx="18" fill="#ffffff" stroke="#d6d3d1"/><text x="690" y="248" class="paneltitle">Running best frontier</text><line x1="740" y1="498" x2="1256" y2="498" stroke="#94a3b8" stroke-width="1.5"/><line x1="740" y1="498" x2="740" y2="268" stroke="#94a3b8" stroke-width="1.5"/><text x="998.00" y="526.00" class="small">experiment order</text><text x="692.00" y="258.00" class="small">best so far</text><line x1="740" y1="498.00" x2="1256" y2="498.00" stroke="#e5e7eb" stroke-width="1"/><text x="686.00" y="502.00" class="small">1.3721</text><line x1="740" y1="383.00" x2="1256" y2="383.00" stroke="#e5e7eb" stroke-width="1"/><text x="686.00" y="387.00" class="small">1.4910</text><line x1="740" y1="268.00" x2="1256" y2="268.00" stroke="#e5e7eb" stroke-width="1"/><text x="686.00" y="272.00" class="small">1.6099</text><polyline fill="none" stroke="#1d4ed8" stroke-width="3" points="740.00,268.00 762.43,285.22 784.87,447.90 807.30,458.54 829.74,471.98 852.17,471.98 874.61,479.14 897.04,479.43 919.48,479.43 941.91,479.43 964.35,479.43 986.78,479.43 1009.22,479.43 1031.65,480.78 1054.09,480.78 1076.52,486.68 1098.96,486.68 1121.39,486.68 1143.83,486.68 1166.26,498.00 1188.70,498.00 1211.13,498.00 1233.57,498.00 1256.00,498.00"/><circle cx="740.00" cy="268.00" r="5.5" fill="#1f7a4d" stroke="#ffffff" stroke-width="1.5"/><circle cx="762.43" cy="285.22" r="5.5" fill="#1f7a4d" stroke="#ffffff" stroke-width="1.5"/><circle cx="784.87" cy="447.90" r="5.5" fill="#1f7a4d" stroke="#ffffff" stroke-width="1.5"/><circle cx="807.30" cy="458.54" r="5.5" fill="#1f7a4d" stroke="#ffffff" stroke-width="1.5"/><circle cx="829.74" cy="471.98" r="5.5" fill="#1f7a4d" stroke="#ffffff" stroke-width="1.5"/><circle cx="852.17" cy="471.98" r="5.5" fill="#b03a2e" stroke="#ffffff" stroke-width="1.5"/><circle cx="874.61" cy="479.14" r="5.5" fill="#1f7a4d" stroke="#ffffff" stroke-width="1.5"/><circle cx="897.04" cy="479.43" r="5.5" fill="#1f7a4d" stroke="#ffffff" stroke-width="1.5"/><circle cx="919.48" cy="479.43" r="5.5" fill="#b03a2e" stroke="#ffffff" stroke-width="1.5"/><circle cx="941.91" cy="479.43" r="5.5" fill="#b03a2e" stroke="#ffffff" stroke-width="1.5"/><circle cx="964.35" cy="479.43" r="5.5" fill="#b03a2e" stroke="#ffffff" stroke-width="1.5"/><circle cx="986.78" cy="479.43" r="5.5" fill="#b03a2e" stroke="#ffffff" stroke-width="1.5"/><circle cx="1009.22" cy="479.43" r="5.5" fill="#b03a2e" stroke="#ffffff" stroke-width="1.5"/><circle cx="1031.65" cy="480.78" r="5.5" fill="#b03a2e" stroke="#ffffff" stroke-width="1.5"/><circle cx="1054.09" cy="480.78" r="5.5" fill="#b03a2e" stroke="#ffffff" stroke-width="1.5"/><circle cx="1076.52" cy="486.68" r="5.5" fill="#1f7a4d" stroke="#ffffff" stroke-width="1.5"/><circle cx="1098.96" cy="486.68" r="5.5" fill="#b03a2e" stroke="#ffffff" stroke-width="1.5"/><circle cx="1121.39" cy="486.68" r="5.5" fill="#b03a2e" stroke="#ffffff" stroke-width="1.5"/><circle cx="1143.83" cy="486.68" r="5.5" fill="#b03a2e" stroke="#ffffff" stroke-width="1.5"/><circle cx="1166.26" cy="498.00" r="5.5" fill="#1f7a4d" stroke="#ffffff" stroke-width="1.5"/><circle cx="1188.70" cy="498.00" r="5.5" fill="#b03a2e" stroke="#ffffff" stroke-width="1.5"/><circle cx="1211.13" cy="498.00" r="5.5" fill="#b03a2e" stroke="#ffffff" stroke-width="1.5"/><circle cx="1233.57" cy="498.00" r="5.5" fill="#b03a2e" stroke="#ffffff" stroke-width="1.5"/><circle cx="1256.00" cy="498.00" r="5.5" fill="#b03a2e" stroke="#ffffff" stroke-width="1.5"/><rect x="40" y="590" width="610" height="320" rx="18" fill="#ffffff" stroke="#d6d3d1"/><text x="60" y="618" class="paneltitle">Training steps vs val_bpb</text><line x1="110" y1="868" x2="626" y2="868" stroke="#94a3b8" stroke-width="1.5"/><line x1="110" y1="868" x2="110" y2="638" stroke="#94a3b8" stroke-width="1.5"/><text x="368.00" y="896.00" class="small">steps in 600s</text><text x="62.00" y="628.00" class="small">val_bpb</text><line x1="110" y1="868.00" x2="626" y2="868.00" stroke="#e5e7eb" stroke-width="1"/><text x="56.00" y="872.00" class="small">1.3721</text><line x1="110" y1="753.00" x2="626" y2="753.00" stroke="#e5e7eb" stroke-width="1"/><text x="56.00" y="757.00" class="small">1.4821</text><line x1="110" y1="638.00" x2="626" y2="638.00" stroke="#e5e7eb" stroke-width="1"/><text x="56.00" y="642.00" class="small">1.5921</text><line x1="110.00" y1="868" x2="110.00" y2="638" stroke="#f1f5f9" stroke-width="1"/><text x="98.00" y="886.00" class="small">342.0</text><line x1="368.00" y1="868" x2="368.00" y2="638" stroke="#f1f5f9" stroke-width="1"/><text x="356.00" y="886.00" class="small">1030.5</text><line x1="626.00" y1="868" x2="626.00" y2="638" stroke="#f1f5f9" stroke-width="1"/><text x="614.00" y="886.00" class="small">1719.0</text><circle cx="110.00" cy="638.00" r="6" fill="#1f7a4d" stroke="#ffffff" stroke-width="1.5"/><text x="118.00" y="630.00" class="small">002</text><circle cx="242.28" cy="813.85" r="6" fill="#1f7a4d" stroke="#ffffff" stroke-width="1.5"/><text x="250.28" y="805.85" class="small">003</text><circle cx="263.26" cy="839.88" r="6" fill="#1f7a4d" stroke="#ffffff" stroke-width="1.5"/><text x="271.26" y="831.88" class="small">001</text><circle cx="235.16" cy="827.02" r="6" fill="#b03a2e" stroke="#ffffff" stroke-width="1.5"/><text x="243.16" y="819.02" class="small">002</text><circle cx="310.85" cy="847.61" r="6" fill="#1f7a4d" stroke="#ffffff" stroke-width="1.5"/><text x="318.85" y="839.61" class="small">003</text><circle cx="434.51" cy="847.93" r="6" fill="#1f7a4d" stroke="#ffffff" stroke-width="1.5"/><text x="442.51" y="839.93" class="small">004</text><circle cx="317.60" cy="841.65" r="6" fill="#b03a2e" stroke="#ffffff" stroke-width="1.5"/><text x="325.60" y="833.65" class="small">005</text><circle cx="373.06" cy="840.30" r="6" fill="#b03a2e" stroke="#ffffff" stroke-width="1.5"/><text x="381.06" y="832.30" class="small">006</text><circle cx="261.39" cy="831.93" r="6" fill="#b03a2e" stroke="#ffffff" stroke-width="1.5"/><text x="269.39" y="823.93" class="small">007</text><circle cx="337.08" cy="835.59" r="6" fill="#b03a2e" stroke="#ffffff" stroke-width="1.5"/><text x="345.08" y="827.59" class="small">008</text><circle cx="292.49" cy="843.75" r="6" fill="#b03a2e" stroke="#ffffff" stroke-width="1.5"/><text x="300.49" y="835.75" class="small">009</text><circle cx="414.65" cy="849.39" r="6" fill="#b03a2e" stroke="#ffffff" stroke-width="1.5"/><text x="422.65" y="841.39" class="small">010</text><circle cx="411.28" cy="841.97" r="6" fill="#b03a2e" stroke="#ffffff" stroke-width="1.5"/><text x="419.28" y="833.97" class="small">011</text><circle cx="487.35" cy="855.77" r="6" fill="#1f7a4d" stroke="#ffffff" stroke-width="1.5"/><text x="495.35" y="847.77" class="small">012</text><circle cx="464.12" cy="847.72" r="6" fill="#b03a2e" stroke="#ffffff" stroke-width="1.5"/><text x="472.12" y="839.72" class="small">013</text><circle cx="470.49" cy="847.09" r="6" fill="#b03a2e" stroke="#ffffff" stroke-width="1.5"/><text x="478.49" y="839.09" class="small">014</text><circle cx="465.99" cy="848.66" r="6" fill="#b03a2e" stroke="#ffffff" stroke-width="1.5"/><text x="473.99" y="840.66" class="small">015</text><circle cx="625.63" cy="868.00" r="6" fill="#1f7a4d" stroke="#ffffff" stroke-width="1.5"/><text x="633.63" y="860.00" class="small">016</text><circle cx="486.98" cy="848.35" r="6" fill="#b03a2e" stroke="#ffffff" stroke-width="1.5"/><text x="494.98" y="840.35" class="small">017</text><circle cx="626.00" cy="861.20" r="6" fill="#b03a2e" stroke="#ffffff" stroke-width="1.5"/><text x="634.00" y="853.20" class="small">018</text><circle cx="602.02" cy="858.90" r="6" fill="#b03a2e" stroke="#ffffff" stroke-width="1.5"/><text x="610.02" y="850.90" class="small">019</text><circle cx="602.77" cy="854.20" r="6" fill="#b03a2e" stroke="#ffffff" stroke-width="1.5"/><text x="610.77" y="846.20" class="small">020</text><rect x="670" y="590" width="610" height="320" rx="18" fill="#ffffff" stroke="#d6d3d1"/><text x="690" y="618" class="paneltitle">Artifact size vs val_bpb</text><line x1="740" y1="868" x2="1256" y2="868" stroke="#94a3b8" stroke-width="1.5"/><line x1="740" y1="868" x2="740" y2="638" stroke="#94a3b8" stroke-width="1.5"/><text x="998.00" y="896.00" class="small">artifact MB</text><text x="692.00" y="628.00" class="small">val_bpb</text><line x1="740" y1="868.00" x2="1256" y2="868.00" stroke="#e5e7eb" stroke-width="1"/><text x="686.00" y="872.00" class="small">1.3721</text><line x1="740" y1="753.00" x2="1256" y2="753.00" stroke="#e5e7eb" stroke-width="1"/><text x="686.00" y="757.00" class="small">1.3917</text><line x1="740" y1="638.00" x2="1256" y2="638.00" stroke="#e5e7eb" stroke-width="1"/><text x="686.00" y="642.00" class="small">1.4113</text><line x1="740.00" y1="868" x2="740.00" y2="638" stroke="#f1f5f9" stroke-width="1"/><text x="728.00" y="886.00" class="small">11.3</text><line x1="998.00" y1="868" x2="998.00" y2="638" stroke="#f1f5f9" stroke-width="1"/><text x="986.00" y="886.00" class="small">14.5</text><line x1="1256.00" y1="868" x2="1256.00" y2="638" stroke="#f1f5f9" stroke-width="1"/><text x="1244.00" y="886.00" class="small">17.7</text><circle cx="850.28" cy="710.17" r="6" fill="#1f7a4d" stroke="#ffffff" stroke-width="1.5"/><text x="858.28" y="702.17" class="small">001</text><circle cx="933.20" cy="638.00" r="6" fill="#b03a2e" stroke="#ffffff" stroke-width="1.5"/><text x="941.20" y="630.00" class="small">002</text><circle cx="1001.62" cy="753.59" r="6" fill="#1f7a4d" stroke="#ffffff" stroke-width="1.5"/><text x="1009.62" y="745.59" class="small">003</text><circle cx="1106.27" cy="755.35" r="6" fill="#1f7a4d" stroke="#ffffff" stroke-width="1.5"/><text x="1114.27" y="747.35" class="small">004</text><circle cx="911.46" cy="720.14" r="6" fill="#b03a2e" stroke="#ffffff" stroke-width="1.5"/><text x="919.46" y="712.14" class="small">005</text><circle cx="740.00" cy="712.52" r="6" fill="#b03a2e" stroke="#ffffff" stroke-width="1.5"/><text x="748.00" y="704.52" class="small">006</text><circle cx="1235.88" cy="665.58" r="6" fill="#b03a2e" stroke="#ffffff" stroke-width="1.5"/><text x="1243.88" y="657.58" class="small">007</text><circle cx="801.18" cy="686.11" r="6" fill="#b03a2e" stroke="#ffffff" stroke-width="1.5"/><text x="809.18" y="678.11" class="small">008</text><circle cx="1135.25" cy="731.88" r="6" fill="#b03a2e" stroke="#ffffff" stroke-width="1.5"/><text x="1143.25" y="723.88" class="small">009</text><circle cx="1256.00" cy="763.56" r="6" fill="#b03a2e" stroke="#ffffff" stroke-width="1.5"/><text x="1264.00" y="755.56" class="small">010</text><circle cx="1091.78" cy="721.90" r="6" fill="#b03a2e" stroke="#ffffff" stroke-width="1.5"/><text x="1099.78" y="713.90" class="small">011</text><circle cx="1018.53" cy="799.35" r="6" fill="#1f7a4d" stroke="#ffffff" stroke-width="1.5"/><text x="1026.53" y="791.35" class="small">012</text><circle cx="975.06" cy="754.17" r="6" fill="#b03a2e" stroke="#ffffff" stroke-width="1.5"/><text x="983.06" y="746.17" class="small">013</text><circle cx="1144.11" cy="750.65" r="6" fill="#b03a2e" stroke="#ffffff" stroke-width="1.5"/><text x="1152.11" y="742.65" class="small">014</text><circle cx="993.57" cy="759.45" r="6" fill="#b03a2e" stroke="#ffffff" stroke-width="1.5"/><text x="1001.57" y="751.45" class="small">015</text><circle cx="1078.90" cy="868.00" r="6" fill="#1f7a4d" stroke="#ffffff" stroke-width="1.5"/><text x="1086.90" y="860.00" class="small">016</text><circle cx="1033.82" cy="757.69" r="6" fill="#b03a2e" stroke="#ffffff" stroke-width="1.5"/><text x="1041.82" y="749.69" class="small">017</text><circle cx="1084.54" cy="829.86" r="6" fill="#b03a2e" stroke="#ffffff" stroke-width="1.5"/><text x="1092.54" y="821.86" class="small">018</text><circle cx="1055.56" cy="816.95" r="6" fill="#b03a2e" stroke="#ffffff" stroke-width="1.5"/><text x="1063.56" y="808.95" class="small">019</text><circle cx="1062.80" cy="790.55" r="6" fill="#b03a2e" stroke="#ffffff" stroke-width="1.5"/><text x="1070.80" y="782.55" class="small">020</text><rect x="40" y="940" width="1240" height="72" rx="14" fill="#fffdf8" stroke="#d6d3d1"/><text x="60" y="964" class="body">Current best: AL-20260329-016 at 1.3721 val_bpb.</text><text x="60" y="982" class="body">Latest run: AL-20260329-020 (discard) tested the fallback line may want both more steps and a small matrix-LR bump, even if the main line did not.</text><text x="60" y="1000" class="body">Read agent_lab/state.md for the live dashboard and agent_lab/tranches.md for the tranche map.</text></svg>
