<svg xmlns="http://www.w3.org/2000/svg" width="1320" height="1040" viewBox="0 0 1320 1040"><rect width="100%" height="100%" fill="#f6f4ef"/><style>text{font-family:ui-sans-serif,system-ui,-apple-system,BlinkMacSystemFont,"Segoe UI",sans-serif;fill:#1f2937}.small{font-size:12px}.body{font-size:14px}.label{font-size:15px;font-weight:600}.title{font-size:28px;font-weight:700}.cardtitle{font-size:13px;font-weight:700;letter-spacing:.08em;text-transform:uppercase;fill:#475569}.metric{font-size:30px;font-weight:700}.paneltitle{font-size:18px;font-weight:700}</style><text x="40" y="56" class="title">Agent Lab Experiment Dashboard</text><text x="40" y="84" class="body">Best run AL-20260329-021 reached 1.3709 val_bpb. 25 scored runs are tracked here, with 10 kept and 15 discarded.</text><rect x="40" y="110" width="290" height="78" rx="14" fill="#ffffff" stroke="#d6d3d1"/><text x="60" y="134" class="cardtitle">Current Best</text><text x="60" y="164" class="metric">1.3709</text><text x="60" y="180" class="small">AL-20260329-021 (2e78e06)</text><rect x="350" y="110" width="290" height="78" rx="14" fill="#ffffff" stroke="#d6d3d1"/><text x="370" y="134" class="cardtitle">Tracked Runs</text><text x="370" y="164" class="metric">25</text><text x="370" y="180" class="small">10 keep / 15 discard</text><rect x="660" y="110" width="290" height="78" rx="14" fill="#ffffff" stroke="#d6d3d1"/><text x="680" y="134" class="cardtitle">Primary Metric</text><text x="680" y="164" class="metric">final_int8_ttt_lora</text><text x="680" y="180" class="small">lower is better</text><rect x="970" y="110" width="290" height="78" rx="14" fill="#ffffff" stroke="#d6d3d1"/><text x="990" y="134" class="cardtitle">Mean val_bpb</text><text x="990" y="164" class="metric">1.4103</text><text x="990" y="180" class="small">across scored runs</text><rect x="40" y="220" width="610" height="320" rx="18" fill="#ffffff" stroke="#d6d3d1"/><text x="60" y="248" class="paneltitle">val_bpb by experiment</text><line x1="110" y1="498" x2="626" y2="498" stroke="#94a3b8" stroke-width="1.5"/><line x1="110" y1="498" x2="110" y2="268" stroke="#94a3b8" stroke-width="1.5"/><text x="368.00" y="526.00" class="small">experiment order</text><text x="62.00" y="258.00" class="small">val_bpb</text><line x1="110" y1="498.00" x2="626" y2="498.00" stroke="#e5e7eb" stroke-width="1"/><text x="56.00" y="502.00" class="small">1.3709</text><line x1="110" y1="383.00" x2="626" y2="383.00" stroke="#e5e7eb" stroke-width="1"/><text x="56.00" y="387.00" class="small">1.4904</text><line x1="110" y1="268.00" x2="626" y2="268.00" stroke="#e5e7eb" stroke-width="1"/><text x="56.00" y="272.00" class="small">1.6099</text><polyline fill="none" stroke="#1d4ed8" stroke-width="3" points="110.00,268.00 131.50,285.13 153.00,447.00 174.50,457.58 196.00,470.96 217.50,459.12 239.00,478.08 260.50,478.37 282.00,472.59 303.50,471.34 325.00,463.64 346.50,467.01 368.00,474.52 389.50,479.72 411.00,472.88 432.50,485.59 454.00,478.18 475.50,477.60 497.00,479.04 518.50,496.85 540.00,478.75 561.50,490.59 583.00,488.47 604.50,484.14 626.00,498.00"/><circle cx="110.00" cy="268.00" r="5.5" fill="#1f7a4d" stroke="#ffffff" stroke-width="1.5"/><text x="118.00" y="260.00" class="small">001</text><circle cx="131.50" cy="285.13" r="5.5" fill="#1f7a4d" stroke="#ffffff" stroke-width="1.5"/><text x="139.50" y="277.13" class="small">002</text><circle cx="153.00" cy="447.00" r="5.5" fill="#1f7a4d" stroke="#ffffff" stroke-width="1.5"/><text x="161.00" y="439.00" class="small">003</text><circle cx="174.50" cy="457.58" r="5.5" fill="#1f7a4d" stroke="#ffffff" stroke-width="1.5"/><text x="182.50" y="449.58" class="small">004</text><circle cx="196.00" cy="470.96" r="5.5" fill="#1f7a4d" stroke="#ffffff" stroke-width="1.5"/><text x="204.00" y="462.96" class="small">001</text><circle cx="217.50" cy="459.12" r="5.5" fill="#b03a2e" stroke="#ffffff" stroke-width="1.5"/><text x="225.50" y="451.12" class="small">002</text><circle cx="239.00" cy="478.08" r="5.5" fill="#1f7a4d" stroke="#ffffff" stroke-width="1.5"/><text x="247.00" y="470.08" class="small">003</text><circle cx="260.50" cy="478.37" r="5.5" fill="#1f7a4d" stroke="#ffffff" stroke-width="1.5"/><text x="268.50" y="470.37" class="small">004</text><circle cx="282.00" cy="472.59" r="5.5" fill="#b03a2e" stroke="#ffffff" stroke-width="1.5"/><text x="290.00" y="464.59" class="small">005</text><circle cx="303.50" cy="471.34" r="5.5" fill="#b03a2e" stroke="#ffffff" stroke-width="1.5"/><text x="311.50" y="463.34" class="small">006</text><circle cx="325.00" cy="463.64" r="5.5" fill="#b03a2e" stroke="#ffffff" stroke-width="1.5"/><text x="333.00" y="455.64" class="small">007</text><circle cx="346.50" cy="467.01" r="5.5" fill="#b03a2e" stroke="#ffffff" stroke-width="1.5"/><text x="354.50" y="459.01" class="small">008</text><circle cx="368.00" cy="474.52" r="5.5" fill="#b03a2e" stroke="#ffffff" stroke-width="1.5"/><text x="376.00" y="466.52" class="small">009</text><circle cx="389.50" cy="479.72" r="5.5" fill="#b03a2e" stroke="#ffffff" stroke-width="1.5"/><text x="397.50" y="471.72" class="small">010</text><circle cx="411.00" cy="472.88" r="5.5" fill="#b03a2e" stroke="#ffffff" stroke-width="1.5"/><text x="419.00" y="464.88" class="small">011</text><circle cx="432.50" cy="485.59" r="5.5" fill="#1f7a4d" stroke="#ffffff" stroke-width="1.5"/><text x="440.50" y="477.59" class="small">012</text><circle cx="454.00" cy="478.18" r="5.5" fill="#b03a2e" stroke="#ffffff" stroke-width="1.5"/><text x="462.00" y="470.18" class="small">013</text><circle cx="475.50" cy="477.60" r="5.5" fill="#b03a2e" stroke="#ffffff" stroke-width="1.5"/><text x="483.50" y="469.60" class="small">014</text><circle cx="497.00" cy="479.04" r="5.5" fill="#b03a2e" stroke="#ffffff" stroke-width="1.5"/><text x="505.00" y="471.04" class="small">015</text><circle cx="518.50" cy="496.85" r="5.5" fill="#1f7a4d" stroke="#ffffff" stroke-width="1.5"/><text x="526.50" y="488.85" class="small">016</text><circle cx="540.00" cy="478.75" r="5.5" fill="#b03a2e" stroke="#ffffff" stroke-width="1.5"/><text x="548.00" y="470.75" class="small">017</text><circle cx="561.50" cy="490.59" r="5.5" fill="#b03a2e" stroke="#ffffff" stroke-width="1.5"/><text x="569.50" y="482.59" class="small">018</text><circle cx="583.00" cy="488.47" r="5.5" fill="#b03a2e" stroke="#ffffff" stroke-width="1.5"/><text x="591.00" y="480.47" class="small">019</text><circle cx="604.50" cy="484.14" r="5.5" fill="#b03a2e" stroke="#ffffff" stroke-width="1.5"/><text x="612.50" y="476.14" class="small">020</text><circle cx="626.00" cy="498.00" r="5.5" fill="#1f7a4d" stroke="#ffffff" stroke-width="1.5"/><text x="634.00" y="490.00" class="small">021</text><rect x="670" y="220" width="610" height="320" rx="18" fill="#ffffff" stroke="#d6d3d1"/><text x="690" y="248" class="paneltitle">Running best frontier</text><line x1="740" y1="498" x2="1256" y2="498" stroke="#94a3b8" stroke-width="1.5"/><line x1="740" y1="498" x2="740" y2="268" stroke="#94a3b8" stroke-width="1.5"/><text x="998.00" y="526.00" class="small">experiment order</text><text x="692.00" y="258.00" class="small">best so far</text><line x1="740" y1="498.00" x2="1256" y2="498.00" stroke="#e5e7eb" stroke-width="1"/><text x="686.00" y="502.00" class="small">1.3709</text><line x1="740" y1="383.00" x2="1256" y2="383.00" stroke="#e5e7eb" stroke-width="1"/><text x="686.00" y="387.00" class="small">1.4904</text><line x1="740" y1="268.00" x2="1256" y2="268.00" stroke="#e5e7eb" stroke-width="1"/><text x="686.00" y="272.00" class="small">1.6099</text><polyline fill="none" stroke="#1d4ed8" stroke-width="3" points="740.00,268.00 761.50,285.13 783.00,447.00 804.50,457.58 826.00,470.96 847.50,470.96 869.00,478.08 890.50,478.37 912.00,478.37 933.50,478.37 955.00,478.37 976.50,478.37 998.00,478.37 1019.50,479.72 1041.00,479.72 1062.50,485.59 1084.00,485.59 1105.50,485.59 1127.00,485.59 1148.50,496.85 1170.00,496.85 1191.50,496.85 1213.00,496.85 1234.50,496.85 1256.00,498.00"/><circle cx="740.00" cy="268.00" r="5.5" fill="#1f7a4d" stroke="#ffffff" stroke-width="1.5"/><circle cx="761.50" cy="285.13" r="5.5" fill="#1f7a4d" stroke="#ffffff" stroke-width="1.5"/><circle cx="783.00" cy="447.00" r="5.5" fill="#1f7a4d" stroke="#ffffff" stroke-width="1.5"/><circle cx="804.50" cy="457.58" r="5.5" fill="#1f7a4d" stroke="#ffffff" stroke-width="1.5"/><circle cx="826.00" cy="470.96" r="5.5" fill="#1f7a4d" stroke="#ffffff" stroke-width="1.5"/><circle cx="847.50" cy="470.96" r="5.5" fill="#b03a2e" stroke="#ffffff" stroke-width="1.5"/><circle cx="869.00" cy="478.08" r="5.5" fill="#1f7a4d" stroke="#ffffff" stroke-width="1.5"/><circle cx="890.50" cy="478.37" r="5.5" fill="#1f7a4d" stroke="#ffffff" stroke-width="1.5"/><circle cx="912.00" cy="478.37" r="5.5" fill="#b03a2e" stroke="#ffffff" stroke-width="1.5"/><circle cx="933.50" cy="478.37" r="5.5" fill="#b03a2e" stroke="#ffffff" stroke-width="1.5"/><circle cx="955.00" cy="478.37" r="5.5" fill="#b03a2e" stroke="#ffffff" stroke-width="1.5"/><circle cx="976.50" cy="478.37" r="5.5" fill="#b03a2e" stroke="#ffffff" stroke-width="1.5"/><circle cx="998.00" cy="478.37" r="5.5" fill="#b03a2e" stroke="#ffffff" stroke-width="1.5"/><circle cx="1019.50" cy="479.72" r="5.5" fill="#b03a2e" stroke="#ffffff" stroke-width="1.5"/><circle cx="1041.00" cy="479.72" r="5.5" fill="#b03a2e" stroke="#ffffff" stroke-width="1.5"/><circle cx="1062.50" cy="485.59" r="5.5" fill="#1f7a4d" stroke="#ffffff" stroke-width="1.5"/><circle cx="1084.00" cy="485.59" r="5.5" fill="#b03a2e" stroke="#ffffff" stroke-width="1.5"/><circle cx="1105.50" cy="485.59" r="5.5" fill="#b03a2e" stroke="#ffffff" stroke-width="1.5"/><circle cx="1127.00" cy="485.59" r="5.5" fill="#b03a2e" stroke="#ffffff" stroke-width="1.5"/><circle cx="1148.50" cy="496.85" r="5.5" fill="#1f7a4d" stroke="#ffffff" stroke-width="1.5"/><circle cx="1170.00" cy="496.85" r="5.5" fill="#b03a2e" stroke="#ffffff" stroke-width="1.5"/><circle cx="1191.50" cy="496.85" r="5.5" fill="#b03a2e" stroke="#ffffff" stroke-width="1.5"/><circle cx="1213.00" cy="496.85" r="5.5" fill="#b03a2e" stroke="#ffffff" stroke-width="1.5"/><circle cx="1234.50" cy="496.85" r="5.5" fill="#b03a2e" stroke="#ffffff" stroke-width="1.5"/><circle cx="1256.00" cy="498.00" r="5.5" fill="#1f7a4d" stroke="#ffffff" stroke-width="1.5"/><rect x="40" y="590" width="610" height="320" rx="18" fill="#ffffff" stroke="#d6d3d1"/><text x="60" y="618" class="paneltitle">Training steps vs val_bpb</text><line x1="110" y1="868" x2="626" y2="868" stroke="#94a3b8" stroke-width="1.5"/><line x1="110" y1="868" x2="110" y2="638" stroke="#94a3b8" stroke-width="1.5"/><text x="368.00" y="896.00" class="small">steps in 600s</text><text x="62.00" y="628.00" class="small">val_bpb</text><line x1="110" y1="868.00" x2="626" y2="868.00" stroke="#e5e7eb" stroke-width="1"/><text x="56.00" y="872.00" class="small">1.3709</text><line x1="110" y1="753.00" x2="626" y2="753.00" stroke="#e5e7eb" stroke-width="1"/><text x="56.00" y="757.00" class="small">1.4815</text><line x1="110" y1="638.00" x2="626" y2="638.00" stroke="#e5e7eb" stroke-width="1"/><text x="56.00" y="642.00" class="small">1.5921</text><line x1="110.00" y1="868" x2="110.00" y2="638" stroke="#f1f5f9" stroke-width="1"/><text x="98.00" y="886.00" class="small">342.0</text><line x1="368.00" y1="868" x2="368.00" y2="638" stroke="#f1f5f9" stroke-width="1"/><text x="356.00" y="886.00" class="small">1030.5</text><line x1="626.00" y1="868" x2="626.00" y2="638" stroke="#f1f5f9" stroke-width="1"/><text x="614.00" y="886.00" class="small">1719.0</text><circle cx="110.00" cy="638.00" r="6" fill="#1f7a4d" stroke="#ffffff" stroke-width="1.5"/><text x="118.00" y="630.00" class="small">002</text><circle cx="242.28" cy="812.89" r="6" fill="#1f7a4d" stroke="#ffffff" stroke-width="1.5"/><text x="250.28" y="804.89" class="small">003</text><circle cx="263.26" cy="838.78" r="6" fill="#1f7a4d" stroke="#ffffff" stroke-width="1.5"/><text x="271.26" y="830.78" class="small">001</text><circle cx="235.16" cy="825.99" r="6" fill="#b03a2e" stroke="#ffffff" stroke-width="1.5"/><text x="243.16" y="817.99" class="small">002</text><circle cx="310.85" cy="846.48" r="6" fill="#1f7a4d" stroke="#ffffff" stroke-width="1.5"/><text x="318.85" y="838.48" class="small">003</text><circle cx="434.51" cy="846.79" r="6" fill="#1f7a4d" stroke="#ffffff" stroke-width="1.5"/><text x="442.51" y="838.79" class="small">004</text><circle cx="317.60" cy="840.55" r="6" fill="#b03a2e" stroke="#ffffff" stroke-width="1.5"/><text x="325.60" y="832.55" class="small">005</text><circle cx="373.06" cy="839.20" r="6" fill="#b03a2e" stroke="#ffffff" stroke-width="1.5"/><text x="381.06" y="831.20" class="small">006</text><circle cx="261.39" cy="830.88" r="6" fill="#b03a2e" stroke="#ffffff" stroke-width="1.5"/><text x="269.39" y="822.88" class="small">007</text><circle cx="337.08" cy="834.52" r="6" fill="#b03a2e" stroke="#ffffff" stroke-width="1.5"/><text x="345.08" y="826.52" class="small">008</text><circle cx="292.49" cy="842.63" r="6" fill="#b03a2e" stroke="#ffffff" stroke-width="1.5"/><text x="300.49" y="834.63" class="small">009</text><circle cx="414.65" cy="848.24" r="6" fill="#b03a2e" stroke="#ffffff" stroke-width="1.5"/><text x="422.65" y="840.24" class="small">010</text><circle cx="411.28" cy="840.86" r="6" fill="#b03a2e" stroke="#ffffff" stroke-width="1.5"/><text x="419.28" y="832.86" class="small">011</text><circle cx="487.35" cy="854.59" r="6" fill="#1f7a4d" stroke="#ffffff" stroke-width="1.5"/><text x="495.35" y="846.59" class="small">012</text><circle cx="464.12" cy="846.58" r="6" fill="#b03a2e" stroke="#ffffff" stroke-width="1.5"/><text x="472.12" y="838.58" class="small">013</text><circle cx="470.49" cy="845.96" r="6" fill="#b03a2e" stroke="#ffffff" stroke-width="1.5"/><text x="478.49" y="837.96" class="small">014</text><circle cx="465.99" cy="847.52" r="6" fill="#b03a2e" stroke="#ffffff" stroke-width="1.5"/><text x="473.99" y="839.52" class="small">015</text><circle cx="625.63" cy="866.75" r="6" fill="#1f7a4d" stroke="#ffffff" stroke-width="1.5"/><text x="633.63" y="858.75" class="small">016</text><circle cx="486.98" cy="847.20" r="6" fill="#b03a2e" stroke="#ffffff" stroke-width="1.5"/><text x="494.98" y="839.20" class="small">017</text><circle cx="626.00" cy="859.99" r="6" fill="#b03a2e" stroke="#ffffff" stroke-width="1.5"/><text x="634.00" y="851.99" class="small">018</text><circle cx="602.02" cy="857.71" r="6" fill="#b03a2e" stroke="#ffffff" stroke-width="1.5"/><text x="610.02" y="849.71" class="small">019</text><circle cx="602.77" cy="853.03" r="6" fill="#b03a2e" stroke="#ffffff" stroke-width="1.5"/><text x="610.77" y="845.03" class="small">020</text><circle cx="600.89" cy="868.00" r="6" fill="#1f7a4d" stroke="#ffffff" stroke-width="1.5"/><text x="608.89" y="860.00" class="small">021</text><rect x="670" y="590" width="610" height="320" rx="18" fill="#ffffff" stroke="#d6d3d1"/><text x="690" y="618" class="paneltitle">Artifact size vs val_bpb</text><line x1="740" y1="868" x2="1256" y2="868" stroke="#94a3b8" stroke-width="1.5"/><line x1="740" y1="868" x2="740" y2="638" stroke="#94a3b8" stroke-width="1.5"/><text x="998.00" y="896.00" class="small">artifact MB</text><text x="692.00" y="628.00" class="small">val_bpb</text><line x1="740" y1="868.00" x2="1256" y2="868.00" stroke="#e5e7eb" stroke-width="1"/><text x="686.00" y="872.00" class="small">1.3709</text><line x1="740" y1="753.00" x2="1256" y2="753.00" stroke="#e5e7eb" stroke-width="1"/><text x="686.00" y="757.00" class="small">1.3911</text><line x1="740" y1="638.00" x2="1256" y2="638.00" stroke="#e5e7eb" stroke-width="1"/><text x="686.00" y="642.00" class="small">1.4113</text><line x1="740.00" y1="868" x2="740.00" y2="638" stroke="#f1f5f9" stroke-width="1"/><text x="728.00" y="886.00" class="small">11.3</text><line x1="998.00" y1="868" x2="998.00" y2="638" stroke="#f1f5f9" stroke-width="1"/><text x="986.00" y="886.00" class="small">14.5</text><line x1="1256.00" y1="868" x2="1256.00" y2="638" stroke="#f1f5f9" stroke-width="1"/><text x="1244.00" y="886.00" class="small">17.7</text><circle cx="850.28" cy="708.02" r="6" fill="#1f7a4d" stroke="#ffffff" stroke-width="1.5"/><text x="858.28" y="700.02" class="small">001</text><circle cx="933.20" cy="638.00" r="6" fill="#b03a2e" stroke="#ffffff" stroke-width="1.5"/><text x="941.20" y="630.00" class="small">002</text><circle cx="1001.62" cy="750.15" r="6" fill="#1f7a4d" stroke="#ffffff" stroke-width="1.5"/><text x="1009.62" y="742.15" class="small">003</text><circle cx="1106.27" cy="751.86" r="6" fill="#1f7a4d" stroke="#ffffff" stroke-width="1.5"/><text x="1114.27" y="743.86" class="small">004</text><circle cx="911.46" cy="717.70" r="6" fill="#b03a2e" stroke="#ffffff" stroke-width="1.5"/><text x="919.46" y="709.70" class="small">005</text><circle cx="740.00" cy="710.30" r="6" fill="#b03a2e" stroke="#ffffff" stroke-width="1.5"/><text x="748.00" y="702.30" class="small">006</text><circle cx="1235.88" cy="664.76" r="6" fill="#b03a2e" stroke="#ffffff" stroke-width="1.5"/><text x="1243.88" y="656.76" class="small">007</text><circle cx="801.18" cy="684.68" r="6" fill="#b03a2e" stroke="#ffffff" stroke-width="1.5"/><text x="809.18" y="676.68" class="small">008</text><circle cx="1135.25" cy="729.09" r="6" fill="#b03a2e" stroke="#ffffff" stroke-width="1.5"/><text x="1143.25" y="721.09" class="small">009</text><circle cx="1256.00" cy="759.83" r="6" fill="#b03a2e" stroke="#ffffff" stroke-width="1.5"/><text x="1264.00" y="751.83" class="small">010</text><circle cx="1091.78" cy="719.41" r="6" fill="#b03a2e" stroke="#ffffff" stroke-width="1.5"/><text x="1099.78" y="711.41" class="small">011</text><circle cx="1018.53" cy="794.56" r="6" fill="#1f7a4d" stroke="#ffffff" stroke-width="1.5"/><text x="1026.53" y="786.56" class="small">012</text><circle cx="975.06" cy="750.72" r="6" fill="#b03a2e" stroke="#ffffff" stroke-width="1.5"/><text x="983.06" y="742.72" class="small">013</text><circle cx="1144.11" cy="747.31" r="6" fill="#b03a2e" stroke="#ffffff" stroke-width="1.5"/><text x="1152.11" y="739.31" class="small">014</text><circle cx="993.57" cy="755.85" r="6" fill="#b03a2e" stroke="#ffffff" stroke-width="1.5"/><text x="1001.57" y="747.85" class="small">015</text><circle cx="1078.90" cy="861.17" r="6" fill="#1f7a4d" stroke="#ffffff" stroke-width="1.5"/><text x="1086.90" y="853.17" class="small">016</text><circle cx="1033.82" cy="754.14" r="6" fill="#b03a2e" stroke="#ffffff" stroke-width="1.5"/><text x="1041.82" y="746.14" class="small">017</text><circle cx="1084.54" cy="824.16" r="6" fill="#b03a2e" stroke="#ffffff" stroke-width="1.5"/><text x="1092.54" y="816.16" class="small">018</text><circle cx="1055.56" cy="811.64" r="6" fill="#b03a2e" stroke="#ffffff" stroke-width="1.5"/><text x="1063.56" y="803.64" class="small">019</text><circle cx="1062.80" cy="786.02" r="6" fill="#b03a2e" stroke="#ffffff" stroke-width="1.5"/><text x="1070.80" y="778.02" class="small">020</text><circle cx="1066.83" cy="868.00" r="6" fill="#1f7a4d" stroke="#ffffff" stroke-width="1.5"/><text x="1074.83" y="860.00" class="small">021</text><rect x="40" y="940" width="1240" height="72" rx="14" fill="#fffdf8" stroke="#d6d3d1"/><text x="60" y="964" class="body">Current best: AL-20260329-021 at 1.3709 val_bpb.</text><text x="60" y="982" class="body">Latest run: AL-20260329-021 (keep) tested the current frontier may be over-fragmenting attention, so fewer wider query heads (`q4/kv2`) could improve quality.</text><text x="60" y="1000" class="body">Read agent_lab/state.md for the live dashboard and agent_lab/tranches.md for the tranche map.</text></svg>
