<svg xmlns="http://www.w3.org/2000/svg" width="1320" height="1040" viewBox="0 0 1320 1040"><rect width="100%" height="100%" fill="#f6f4ef"/><style>text{font-family:ui-sans-serif,system-ui,-apple-system,BlinkMacSystemFont,"Segoe UI",sans-serif;fill:#1f2937}.small{font-size:12px}.body{font-size:14px}.label{font-size:15px;font-weight:600}.title{font-size:28px;font-weight:700}.cardtitle{font-size:13px;font-weight:700;letter-spacing:.08em;text-transform:uppercase;fill:#475569}.metric{font-size:30px;font-weight:700}.paneltitle{font-size:18px;font-weight:700}</style><text x="40" y="56" class="title">Agent Lab Experiment Dashboard</text><text x="40" y="84" class="body">Best run AL-20260329-021 reached 1.3709 val_bpb. 29 scored runs are tracked here, with 10 kept and 19 discarded.</text><rect x="40" y="110" width="290" height="78" rx="14" fill="#ffffff" stroke="#d6d3d1"/><text x="60" y="134" class="cardtitle">Current Best</text><text x="60" y="164" class="metric">1.3709</text><text x="60" y="180" class="small">AL-20260329-021 (2e78e06)</text><rect x="350" y="110" width="290" height="78" rx="14" fill="#ffffff" stroke="#d6d3d1"/><text x="370" y="134" class="cardtitle">Tracked Runs</text><text x="370" y="164" class="metric">29</text><text x="370" y="180" class="small">10 keep / 19 discard</text><rect x="660" y="110" width="290" height="78" rx="14" fill="#ffffff" stroke="#d6d3d1"/><text x="680" y="134" class="cardtitle">Primary Metric</text><text x="680" y="164" class="metric">final_int8_ttt_lora</text><text x="680" y="180" class="small">lower is better</text><rect x="970" y="110" width="290" height="78" rx="14" fill="#ffffff" stroke="#d6d3d1"/><text x="990" y="134" class="cardtitle">Mean val_bpb</text><text x="990" y="164" class="metric">1.4063</text><text x="990" y="180" class="small">across scored runs</text><rect x="40" y="220" width="610" height="320" rx="18" fill="#ffffff" stroke="#d6d3d1"/><text x="60" y="248" class="paneltitle">val_bpb by experiment</text><line x1="110" y1="498" x2="626" y2="498" stroke="#94a3b8" stroke-width="1.5"/><line x1="110" y1="498" x2="110" y2="268" stroke="#94a3b8" stroke-width="1.5"/><text x="368.00" y="526.00" class="small">experiment order</text><text x="62.00" y="258.00" class="small">val_bpb</text><line x1="110" y1="498.00" x2="626" y2="498.00" stroke="#e5e7eb" stroke-width="1"/><text x="56.00" y="502.00" class="small">1.3709</text><line x1="110" y1="383.00" x2="626" y2="383.00" stroke="#e5e7eb" stroke-width="1"/><text x="56.00" y="387.00" class="small">1.4904</text><line x1="110" y1="268.00" x2="626" y2="268.00" stroke="#e5e7eb" stroke-width="1"/><text x="56.00" y="272.00" class="small">1.6099</text><polyline fill="none" stroke="#1d4ed8" stroke-width="3" points="110.00,268.00 128.43,285.13 146.86,447.00 165.29,457.58 183.71,470.96 202.14,459.12 220.57,478.08 239.00,478.37 257.43,472.59 275.86,471.34 294.29,463.64 312.71,467.01 331.14,474.52 349.57,479.72 368.00,472.88 386.43,485.59 404.86,478.18 423.29,477.60 441.71,479.04 460.14,496.85 478.57,478.75 497.00,490.59 515.43,488.47 533.86,484.14 552.29,498.00 570.71,473.08 589.14,492.51 607.57,491.46 626.00,494.73"/><circle cx="110.00" cy="268.00" r="5.5" fill="#1f7a4d" stroke="#ffffff" stroke-width="1.5"/><text x="118.00" y="260.00" class="small">001</text><circle cx="128.43" cy="285.13" r="5.5" fill="#1f7a4d" stroke="#ffffff" stroke-width="1.5"/><text x="136.43" y="277.13" class="small">002</text><circle cx="146.86" cy="447.00" r="5.5" fill="#1f7a4d" stroke="#ffffff" stroke-width="1.5"/><text x="154.86" y="439.00" class="small">003</text><circle cx="165.29" cy="457.58" r="5.5" fill="#1f7a4d" stroke="#ffffff" stroke-width="1.5"/><text x="173.29" y="449.58" class="small">004</text><circle cx="183.71" cy="470.96" r="5.5" fill="#1f7a4d" stroke="#ffffff" stroke-width="1.5"/><text x="191.71" y="462.96" class="small">001</text><circle cx="202.14" cy="459.12" r="5.5" fill="#b03a2e" stroke="#ffffff" stroke-width="1.5"/><text x="210.14" y="451.12" class="small">002</text><circle cx="220.57" cy="478.08" r="5.5" fill="#1f7a4d" stroke="#ffffff" stroke-width="1.5"/><text x="228.57" y="470.08" class="small">003</text><circle cx="239.00" cy="478.37" r="5.5" fill="#1f7a4d" stroke="#ffffff" stroke-width="1.5"/><text x="247.00" y="470.37" class="small">004</text><circle cx="257.43" cy="472.59" r="5.5" fill="#b03a2e" stroke="#ffffff" stroke-width="1.5"/><text x="265.43" y="464.59" class="small">005</text><circle cx="275.86" cy="471.34" r="5.5" fill="#b03a2e" stroke="#ffffff" stroke-width="1.5"/><text x="283.86" y="463.34" class="small">006</text><circle cx="294.29" cy="463.64" r="5.5" fill="#b03a2e" stroke="#ffffff" stroke-width="1.5"/><text x="302.29" y="455.64" class="small">007</text><circle cx="312.71" cy="467.01" r="5.5" fill="#b03a2e" stroke="#ffffff" stroke-width="1.5"/><text x="320.71" y="459.01" class="small">008</text><circle cx="331.14" cy="474.52" r="5.5" fill="#b03a2e" stroke="#ffffff" stroke-width="1.5"/><text x="339.14" y="466.52" class="small">009</text><circle cx="349.57" cy="479.72" r="5.5" fill="#b03a2e" stroke="#ffffff" stroke-width="1.5"/><text x="357.57" y="471.72" class="small">010</text><circle cx="368.00" cy="472.88" r="5.5" fill="#b03a2e" stroke="#ffffff" stroke-width="1.5"/><text x="376.00" y="464.88" class="small">011</text><circle cx="386.43" cy="485.59" r="5.5" fill="#1f7a4d" stroke="#ffffff" stroke-width="1.5"/><text x="394.43" y="477.59" class="small">012</text><circle cx="404.86" cy="478.18" r="5.5" fill="#b03a2e" stroke="#ffffff" stroke-width="1.5"/><text x="412.86" y="470.18" class="small">013</text><circle cx="423.29" cy="477.60" r="5.5" fill="#b03a2e" stroke="#ffffff" stroke-width="1.5"/><text x="431.29" y="469.60" class="small">014</text><circle cx="441.71" cy="479.04" r="5.5" fill="#b03a2e" stroke="#ffffff" stroke-width="1.5"/><text x="449.71" y="471.04" class="small">015</text><circle cx="460.14" cy="496.85" r="5.5" fill="#1f7a4d" stroke="#ffffff" stroke-width="1.5"/><text x="468.14" y="488.85" class="small">016</text><circle cx="478.57" cy="478.75" r="5.5" fill="#b03a2e" stroke="#ffffff" stroke-width="1.5"/><text x="486.57" y="470.75" class="small">017</text><circle cx="497.00" cy="490.59" r="5.5" fill="#b03a2e" stroke="#ffffff" stroke-width="1.5"/><text x="505.00" y="482.59" class="small">018</text><circle cx="515.43" cy="488.47" r="5.5" fill="#b03a2e" stroke="#ffffff" stroke-width="1.5"/><text x="523.43" y="480.47" class="small">019</text><circle cx="533.86" cy="484.14" r="5.5" fill="#b03a2e" stroke="#ffffff" stroke-width="1.5"/><text x="541.86" y="476.14" class="small">020</text><circle cx="552.29" cy="498.00" r="5.5" fill="#1f7a4d" stroke="#ffffff" stroke-width="1.5"/><text x="560.29" y="490.00" class="small">021</text><circle cx="570.71" cy="473.08" r="5.5" fill="#b03a2e" stroke="#ffffff" stroke-width="1.5"/><text x="578.71" y="465.08" class="small">022</text><circle cx="589.14" cy="492.51" r="5.5" fill="#b03a2e" stroke="#ffffff" stroke-width="1.5"/><text x="597.14" y="484.51" class="small">023</text><circle cx="607.57" cy="491.46" r="5.5" fill="#b03a2e" stroke="#ffffff" stroke-width="1.5"/><text x="615.57" y="483.46" class="small">024</text><circle cx="626.00" cy="494.73" r="5.5" fill="#b03a2e" stroke="#ffffff" stroke-width="1.5"/><text x="634.00" y="486.73" class="small">025</text><rect x="670" y="220" width="610" height="320" rx="18" fill="#ffffff" stroke="#d6d3d1"/><text x="690" y="248" class="paneltitle">Running best frontier</text><line x1="740" y1="498" x2="1256" y2="498" stroke="#94a3b8" stroke-width="1.5"/><line x1="740" y1="498" x2="740" y2="268" stroke="#94a3b8" stroke-width="1.5"/><text x="998.00" y="526.00" class="small">experiment order</text><text x="692.00" y="258.00" class="small">best so far</text><line x1="740" y1="498.00" x2="1256" y2="498.00" stroke="#e5e7eb" stroke-width="1"/><text x="686.00" y="502.00" class="small">1.3709</text><line x1="740" y1="383.00" x2="1256" y2="383.00" stroke="#e5e7eb" stroke-width="1"/><text x="686.00" y="387.00" class="small">1.4904</text><line x1="740" y1="268.00" x2="1256" y2="268.00" stroke="#e5e7eb" stroke-width="1"/><text x="686.00" y="272.00" class="small">1.6099</text><polyline fill="none" stroke="#1d4ed8" stroke-width="3" points="740.00,268.00 758.43,285.13 776.86,447.00 795.29,457.58 813.71,470.96 832.14,470.96 850.57,478.08 869.00,478.37 887.43,478.37 905.86,478.37 924.29,478.37 942.71,478.37 961.14,478.37 979.57,479.72 998.00,479.72 1016.43,485.59 1034.86,485.59 1053.29,485.59 1071.71,485.59 1090.14,496.85 1108.57,496.85 1127.00,496.85 1145.43,496.85 1163.86,496.85 1182.29,498.00 1200.71,498.00 1219.14,498.00 1237.57,498.00 1256.00,498.00"/><circle cx="740.00" cy="268.00" r="5.5" fill="#1f7a4d" stroke="#ffffff" stroke-width="1.5"/><circle cx="758.43" cy="285.13" r="5.5" fill="#1f7a4d" stroke="#ffffff" stroke-width="1.5"/><circle cx="776.86" cy="447.00" r="5.5" fill="#1f7a4d" stroke="#ffffff" stroke-width="1.5"/><circle cx="795.29" cy="457.58" r="5.5" fill="#1f7a4d" stroke="#ffffff" stroke-width="1.5"/><circle cx="813.71" cy="470.96" r="5.5" fill="#1f7a4d" stroke="#ffffff" stroke-width="1.5"/><circle cx="832.14" cy="470.96" r="5.5" fill="#b03a2e" stroke="#ffffff" stroke-width="1.5"/><circle cx="850.57" cy="478.08" r="5.5" fill="#1f7a4d" stroke="#ffffff" stroke-width="1.5"/><circle cx="869.00" cy="478.37" r="5.5" fill="#1f7a4d" stroke="#ffffff" stroke-width="1.5"/><circle cx="887.43" cy="478.37" r="5.5" fill="#b03a2e" stroke="#ffffff" stroke-width="1.5"/><circle cx="905.86" cy="478.37" r="5.5" fill="#b03a2e" stroke="#ffffff" stroke-width="1.5"/><circle cx="924.29" cy="478.37" r="5.5" fill="#b03a2e" stroke="#ffffff" stroke-width="1.5"/><circle cx="942.71" cy="478.37" r="5.5" fill="#b03a2e" stroke="#ffffff" stroke-width="1.5"/><circle cx="961.14" cy="478.37" r="5.5" fill="#b03a2e" stroke="#ffffff" stroke-width="1.5"/><circle cx="979.57" cy="479.72" r="5.5" fill="#b03a2e" stroke="#ffffff" stroke-width="1.5"/><circle cx="998.00" cy="479.72" r="5.5" fill="#b03a2e" stroke="#ffffff" stroke-width="1.5"/><circle cx="1016.43" cy="485.59" r="5.5" fill="#1f7a4d" stroke="#ffffff" stroke-width="1.5"/><circle cx="1034.86" cy="485.59" r="5.5" fill="#b03a2e" stroke="#ffffff" stroke-width="1.5"/><circle cx="1053.29" cy="485.59" r="5.5" fill="#b03a2e" stroke="#ffffff" stroke-width="1.5"/><circle cx="1071.71" cy="485.59" r="5.5" fill="#b03a2e" stroke="#ffffff" stroke-width="1.5"/><circle cx="1090.14" cy="496.85" r="5.5" fill="#1f7a4d" stroke="#ffffff" stroke-width="1.5"/><circle cx="1108.57" cy="496.85" r="5.5" fill="#b03a2e" stroke="#ffffff" stroke-width="1.5"/><circle cx="1127.00" cy="496.85" r="5.5" fill="#b03a2e" stroke="#ffffff" stroke-width="1.5"/><circle cx="1145.43" cy="496.85" r="5.5" fill="#b03a2e" stroke="#ffffff" stroke-width="1.5"/><circle cx="1163.86" cy="496.85" r="5.5" fill="#b03a2e" stroke="#ffffff" stroke-width="1.5"/><circle cx="1182.29" cy="498.00" r="5.5" fill="#1f7a4d" stroke="#ffffff" stroke-width="1.5"/><circle cx="1200.71" cy="498.00" r="5.5" fill="#b03a2e" stroke="#ffffff" stroke-width="1.5"/><circle cx="1219.14" cy="498.00" r="5.5" fill="#b03a2e" stroke="#ffffff" stroke-width="1.5"/><circle cx="1237.57" cy="498.00" r="5.5" fill="#b03a2e" stroke="#ffffff" stroke-width="1.5"/><circle cx="1256.00" cy="498.00" r="5.5" fill="#b03a2e" stroke="#ffffff" stroke-width="1.5"/><rect x="40" y="590" width="610" height="320" rx="18" fill="#ffffff" stroke="#d6d3d1"/><text x="60" y="618" class="paneltitle">Training steps vs val_bpb</text><line x1="110" y1="868" x2="626" y2="868" stroke="#94a3b8" stroke-width="1.5"/><line x1="110" y1="868" x2="110" y2="638" stroke="#94a3b8" stroke-width="1.5"/><text x="368.00" y="896.00" class="small">steps in 600s</text><text x="62.00" y="628.00" class="small">val_bpb</text><line x1="110" y1="868.00" x2="626" y2="868.00" stroke="#e5e7eb" stroke-width="1"/><text x="56.00" y="872.00" class="small">1.3709</text><line x1="110" y1="753.00" x2="626" y2="753.00" stroke="#e5e7eb" stroke-width="1"/><text x="56.00" y="757.00" class="small">1.4815</text><line x1="110" y1="638.00" x2="626" y2="638.00" stroke="#e5e7eb" stroke-width="1"/><text x="56.00" y="642.00" class="small">1.5921</text><line x1="110.00" y1="868" x2="110.00" y2="638" stroke="#f1f5f9" stroke-width="1"/><text x="98.00" y="886.00" class="small">342.0</text><line x1="368.00" y1="868" x2="368.00" y2="638" stroke="#f1f5f9" stroke-width="1"/><text x="356.00" y="886.00" class="small">1045.0</text><line x1="626.00" y1="868" x2="626.00" y2="638" stroke="#f1f5f9" stroke-width="1"/><text x="614.00" y="886.00" class="small">1748.0</text><circle cx="110.00" cy="638.00" r="6" fill="#1f7a4d" stroke="#ffffff" stroke-width="1.5"/><text x="118.00" y="630.00" class="small">002</text><circle cx="239.55" cy="812.89" r="6" fill="#1f7a4d" stroke="#ffffff" stroke-width="1.5"/><text x="247.55" y="804.89" class="small">003</text><circle cx="260.10" cy="838.78" r="6" fill="#1f7a4d" stroke="#ffffff" stroke-width="1.5"/><text x="268.10" y="830.78" class="small">001</text><circle cx="232.58" cy="825.99" r="6" fill="#b03a2e" stroke="#ffffff" stroke-width="1.5"/><text x="240.58" y="817.99" class="small">002</text><circle cx="306.71" cy="846.48" r="6" fill="#1f7a4d" stroke="#ffffff" stroke-width="1.5"/><text x="314.71" y="838.48" class="small">003</text><circle cx="427.82" cy="846.79" r="6" fill="#1f7a4d" stroke="#ffffff" stroke-width="1.5"/><text x="435.82" y="838.79" class="small">004</text><circle cx="313.32" cy="840.55" r="6" fill="#b03a2e" stroke="#ffffff" stroke-width="1.5"/><text x="321.32" y="832.55" class="small">005</text><circle cx="367.63" cy="839.20" r="6" fill="#b03a2e" stroke="#ffffff" stroke-width="1.5"/><text x="375.63" y="831.20" class="small">006</text><circle cx="258.27" cy="830.88" r="6" fill="#b03a2e" stroke="#ffffff" stroke-width="1.5"/><text x="266.27" y="822.88" class="small">007</text><circle cx="332.40" cy="834.52" r="6" fill="#b03a2e" stroke="#ffffff" stroke-width="1.5"/><text x="340.40" y="826.52" class="small">008</text><circle cx="288.73" cy="842.63" r="6" fill="#b03a2e" stroke="#ffffff" stroke-width="1.5"/><text x="296.73" y="834.63" class="small">009</text><circle cx="408.37" cy="848.24" r="6" fill="#b03a2e" stroke="#ffffff" stroke-width="1.5"/><text x="416.37" y="840.24" class="small">010</text><circle cx="405.07" cy="840.86" r="6" fill="#b03a2e" stroke="#ffffff" stroke-width="1.5"/><text x="413.07" y="832.86" class="small">011</text><circle cx="479.57" cy="854.59" r="6" fill="#1f7a4d" stroke="#ffffff" stroke-width="1.5"/><text x="487.57" y="846.59" class="small">012</text><circle cx="456.81" cy="846.58" r="6" fill="#b03a2e" stroke="#ffffff" stroke-width="1.5"/><text x="464.81" y="838.58" class="small">013</text><circle cx="463.05" cy="845.96" r="6" fill="#b03a2e" stroke="#ffffff" stroke-width="1.5"/><text x="471.05" y="837.96" class="small">014</text><circle cx="458.65" cy="847.52" r="6" fill="#b03a2e" stroke="#ffffff" stroke-width="1.5"/><text x="466.65" y="839.52" class="small">015</text><circle cx="614.99" cy="866.75" r="6" fill="#1f7a4d" stroke="#ffffff" stroke-width="1.5"/><text x="622.99" y="858.75" class="small">016</text><circle cx="479.20" cy="847.20" r="6" fill="#b03a2e" stroke="#ffffff" stroke-width="1.5"/><text x="487.20" y="839.20" class="small">017</text><circle cx="615.36" cy="859.99" r="6" fill="#b03a2e" stroke="#ffffff" stroke-width="1.5"/><text x="623.36" y="851.99" class="small">018</text><circle cx="591.87" cy="857.71" r="6" fill="#b03a2e" stroke="#ffffff" stroke-width="1.5"/><text x="599.87" y="849.71" class="small">019</text><circle cx="592.60" cy="853.03" r="6" fill="#b03a2e" stroke="#ffffff" stroke-width="1.5"/><text x="600.60" y="845.03" class="small">020</text><circle cx="590.77" cy="868.00" r="6" fill="#1f7a4d" stroke="#ffffff" stroke-width="1.5"/><text x="598.77" y="860.00" class="small">021</text><circle cx="626.00" cy="841.07" r="6" fill="#b03a2e" stroke="#ffffff" stroke-width="1.5"/><text x="634.00" y="833.07" class="small">022</text><circle cx="589.67" cy="862.07" r="6" fill="#b03a2e" stroke="#ffffff" stroke-width="1.5"/><text x="597.67" y="854.07" class="small">023</text><circle cx="614.62" cy="860.93" r="6" fill="#b03a2e" stroke="#ffffff" stroke-width="1.5"/><text x="622.62" y="852.93" class="small">024</text><circle cx="614.62" cy="864.46" r="6" fill="#b03a2e" stroke="#ffffff" stroke-width="1.5"/><text x="622.62" y="856.46" class="small">025</text><rect x="670" y="590" width="610" height="320" rx="18" fill="#ffffff" stroke="#d6d3d1"/><text x="690" y="618" class="paneltitle">Artifact size vs val_bpb</text><line x1="740" y1="868" x2="1256" y2="868" stroke="#94a3b8" stroke-width="1.5"/><line x1="740" y1="868" x2="740" y2="638" stroke="#94a3b8" stroke-width="1.5"/><text x="998.00" y="896.00" class="small">artifact MB</text><text x="692.00" y="628.00" class="small">val_bpb</text><line x1="740" y1="868.00" x2="1256" y2="868.00" stroke="#e5e7eb" stroke-width="1"/><text x="686.00" y="872.00" class="small">1.3709</text><line x1="740" y1="753.00" x2="1256" y2="753.00" stroke="#e5e7eb" stroke-width="1"/><text x="686.00" y="757.00" class="small">1.3911</text><line x1="740" y1="638.00" x2="1256" y2="638.00" stroke="#e5e7eb" stroke-width="1"/><text x="686.00" y="642.00" class="small">1.4113</text><line x1="740.00" y1="868" x2="740.00" y2="638" stroke="#f1f5f9" stroke-width="1"/><text x="728.00" y="886.00" class="small">11.3</text><line x1="998.00" y1="868" x2="998.00" y2="638" stroke="#f1f5f9" stroke-width="1"/><text x="986.00" y="886.00" class="small">14.5</text><line x1="1256.00" y1="868" x2="1256.00" y2="638" stroke="#f1f5f9" stroke-width="1"/><text x="1244.00" y="886.00" class="small">17.7</text><circle cx="850.28" cy="708.02" r="6" fill="#1f7a4d" stroke="#ffffff" stroke-width="1.5"/><text x="858.28" y="700.02" class="small">001</text><circle cx="933.20" cy="638.00" r="6" fill="#b03a2e" stroke="#ffffff" stroke-width="1.5"/><text x="941.20" y="630.00" class="small">002</text><circle cx="1001.62" cy="750.15" r="6" fill="#1f7a4d" stroke="#ffffff" stroke-width="1.5"/><text x="1009.62" y="742.15" class="small">003</text><circle cx="1106.27" cy="751.86" r="6" fill="#1f7a4d" stroke="#ffffff" stroke-width="1.5"/><text x="1114.27" y="743.86" class="small">004</text><circle cx="911.46" cy="717.70" r="6" fill="#b03a2e" stroke="#ffffff" stroke-width="1.5"/><text x="919.46" y="709.70" class="small">005</text><circle cx="740.00" cy="710.30" r="6" fill="#b03a2e" stroke="#ffffff" stroke-width="1.5"/><text x="748.00" y="702.30" class="small">006</text><circle cx="1235.88" cy="664.76" r="6" fill="#b03a2e" stroke="#ffffff" stroke-width="1.5"/><text x="1243.88" y="656.76" class="small">007</text><circle cx="801.18" cy="684.68" r="6" fill="#b03a2e" stroke="#ffffff" stroke-width="1.5"/><text x="809.18" y="676.68" class="small">008</text><circle cx="1135.25" cy="729.09" r="6" fill="#b03a2e" stroke="#ffffff" stroke-width="1.5"/><text x="1143.25" y="721.09" class="small">009</text><circle cx="1256.00" cy="759.83" r="6" fill="#b03a2e" stroke="#ffffff" stroke-width="1.5"/><text x="1264.00" y="751.83" class="small">010</text><circle cx="1091.78" cy="719.41" r="6" fill="#b03a2e" stroke="#ffffff" stroke-width="1.5"/><text x="1099.78" y="711.41" class="small">011</text><circle cx="1018.53" cy="794.56" r="6" fill="#1f7a4d" stroke="#ffffff" stroke-width="1.5"/><text x="1026.53" y="786.56" class="small">012</text><circle cx="975.06" cy="750.72" r="6" fill="#b03a2e" stroke="#ffffff" stroke-width="1.5"/><text x="983.06" y="742.72" class="small">013</text><circle cx="1144.11" cy="747.31" r="6" fill="#b03a2e" stroke="#ffffff" stroke-width="1.5"/><text x="1152.11" y="739.31" class="small">014</text><circle cx="993.57" cy="755.85" r="6" fill="#b03a2e" stroke="#ffffff" stroke-width="1.5"/><text x="1001.57" y="747.85" class="small">015</text><circle cx="1078.90" cy="861.17" r="6" fill="#1f7a4d" stroke="#ffffff" stroke-width="1.5"/><text x="1086.90" y="853.17" class="small">016</text><circle cx="1033.82" cy="754.14" r="6" fill="#b03a2e" stroke="#ffffff" stroke-width="1.5"/><text x="1041.82" y="746.14" class="small">017</text><circle cx="1084.54" cy="824.16" r="6" fill="#b03a2e" stroke="#ffffff" stroke-width="1.5"/><text x="1092.54" y="816.16" class="small">018</text><circle cx="1055.56" cy="811.64" r="6" fill="#b03a2e" stroke="#ffffff" stroke-width="1.5"/><text x="1063.56" y="803.64" class="small">019</text><circle cx="1062.80" cy="786.02" r="6" fill="#b03a2e" stroke="#ffffff" stroke-width="1.5"/><text x="1070.80" y="778.02" class="small">020</text><circle cx="1066.83" cy="868.00" r="6" fill="#1f7a4d" stroke="#ffffff" stroke-width="1.5"/><text x="1074.83" y="860.00" class="small">021</text><circle cx="991.96" cy="720.55" r="6" fill="#b03a2e" stroke="#ffffff" stroke-width="1.5"/><text x="999.96" y="712.55" class="small">022</text><circle cx="1065.22" cy="835.55" r="6" fill="#b03a2e" stroke="#ffffff" stroke-width="1.5"/><text x="1073.22" y="827.55" class="small">023</text><circle cx="1076.49" cy="829.29" r="6" fill="#b03a2e" stroke="#ffffff" stroke-width="1.5"/><text x="1084.49" y="821.29" class="small">024</text><circle cx="1078.90" cy="848.64" r="6" fill="#b03a2e" stroke="#ffffff" stroke-width="1.5"/><text x="1086.90" y="840.64" class="small">025</text><rect x="40" y="940" width="1240" height="72" rx="14" fill="#fffdf8" stroke="#d6d3d1"/><text x="60" y="964" class="body">Current best: AL-20260329-021 at 1.3709 val_bpb.</text><text x="60" y="982" class="body">Latest run: AL-20260329-025 (discard) tested the current `QK_GAIN_INIT=1.5` may be too conservative for the step-rich frontier, so a sharper `QK_GAIN_INIT=2.0` could help.</text><text x="60" y="1000" class="body">Read agent_lab/state.md for the live dashboard and agent_lab/tranches.md for the tranche map.</text></svg>
