<svg xmlns="http://www.w3.org/2000/svg" width="1320" height="1040" viewBox="0 0 1320 1040"><rect width="100%" height="100%" fill="#f6f4ef"/><style>text{font-family:ui-sans-serif,system-ui,-apple-system,BlinkMacSystemFont,"Segoe UI",sans-serif;fill:#1f2937}.small{font-size:12px}.body{font-size:14px}.label{font-size:15px;font-weight:600}.title{font-size:28px;font-weight:700}.cardtitle{font-size:13px;font-weight:700;letter-spacing:.08em;text-transform:uppercase;fill:#475569}.metric{font-size:30px;font-weight:700}.paneltitle{font-size:18px;font-weight:700}</style><text x="40" y="56" class="title">Agent Lab Experiment Dashboard</text><text x="40" y="84" class="body">Best run AL-20260329-030 reached 1.3564 val_bpb. 39 scored runs are tracked here, with 13 kept and 26 discarded.</text><rect x="40" y="110" width="290" height="78" rx="14" fill="#ffffff" stroke="#d6d3d1"/><text x="60" y="134" class="cardtitle">Current Best</text><text x="60" y="164" class="metric">1.3564</text><text x="60" y="180" class="small">AL-20260329-030 (a8333e1)</text><rect x="350" y="110" width="290" height="78" rx="14" fill="#ffffff" stroke="#d6d3d1"/><text x="370" y="134" class="cardtitle">Tracked Runs</text><text x="370" y="164" class="metric">39</text><text x="370" y="180" class="small">13 keep / 26 discard</text><rect x="660" y="110" width="290" height="78" rx="14" fill="#ffffff" stroke="#d6d3d1"/><text x="680" y="134" class="cardtitle">Primary Metric</text><text x="680" y="164" class="metric">final_int8_ttt_lora</text><text x="680" y="180" class="small">lower is better</text><rect x="970" y="110" width="290" height="78" rx="14" fill="#ffffff" stroke="#d6d3d1"/><text x="990" y="134" class="cardtitle">Mean val_bpb</text><text x="990" y="164" class="metric">1.3940</text><text x="990" y="180" class="small">across scored runs</text><rect x="40" y="220" width="610" height="320" rx="18" fill="#ffffff" stroke="#d6d3d1"/><text x="60" y="248" class="paneltitle">val_bpb by experiment</text><line x1="110" y1="498" x2="626" y2="498" stroke="#94a3b8" stroke-width="1.5"/><line x1="110" y1="498" x2="110" y2="268" stroke="#94a3b8" stroke-width="1.5"/><text x="368.00" y="526.00" class="small">experiment order</text><text x="62.00" y="258.00" class="small">val_bpb</text><line x1="110" y1="498.00" x2="626" y2="498.00" stroke="#e5e7eb" stroke-width="1"/><text x="56.00" y="502.00" class="small">1.3564</text><line x1="110" y1="383.00" x2="626" y2="383.00" stroke="#e5e7eb" stroke-width="1"/><text x="56.00" y="387.00" class="small">1.4832</text><line x1="110" y1="268.00" x2="626" y2="268.00" stroke="#e5e7eb" stroke-width="1"/><text x="56.00" y="272.00" class="small">1.6099</text><polyline fill="none" stroke="#1d4ed8" stroke-width="3" points="110.00,268.00 123.58,284.15 137.16,436.76 150.74,446.74 164.32,459.35 177.89,448.19 191.47,466.06 205.05,466.34 218.63,460.89 232.21,459.71 245.79,452.45 259.37,455.63 272.95,462.71 286.53,467.61 300.11,461.16 313.68,473.14 327.26,466.15 340.84,465.61 354.42,466.97 368.00,483.76 381.58,466.70 395.16,477.86 408.74,475.86 422.32,471.78 435.89,484.84 449.47,461.35 463.05,479.67 476.63,478.67 490.21,481.76 503.79,493.46 517.37,496.37 530.95,492.19 544.53,495.10 558.11,498.00 571.68,498.00 585.26,497.46 598.84,494.82 612.42,497.09 626.00,497.91"/><circle cx="110.00" cy="268.00" r="5.5" fill="#1f7a4d" stroke="#ffffff" stroke-width="1.5"/><text x="118.00" y="260.00" class="small">001</text><circle cx="123.58" cy="284.15" r="5.5" fill="#1f7a4d" stroke="#ffffff" stroke-width="1.5"/><text x="131.58" y="276.15" class="small">002</text><circle cx="137.16" cy="436.76" r="5.5" fill="#1f7a4d" stroke="#ffffff" stroke-width="1.5"/><text x="145.16" y="428.76" class="small">003</text><circle cx="150.74" cy="446.74" r="5.5" fill="#1f7a4d" stroke="#ffffff" stroke-width="1.5"/><text x="158.74" y="438.74" class="small">004</text><circle cx="164.32" cy="459.35" r="5.5" fill="#1f7a4d" stroke="#ffffff" stroke-width="1.5"/><text x="172.32" y="451.35" class="small">001</text><circle cx="177.89" cy="448.19" r="5.5" fill="#b03a2e" stroke="#ffffff" stroke-width="1.5"/><text x="185.89" y="440.19" class="small">002</text><circle cx="191.47" cy="466.06" r="5.5" fill="#1f7a4d" stroke="#ffffff" stroke-width="1.5"/><text x="199.47" y="458.06" class="small">003</text><circle cx="205.05" cy="466.34" r="5.5" fill="#1f7a4d" stroke="#ffffff" stroke-width="1.5"/><text x="213.05" y="458.34" class="small">004</text><circle cx="218.63" cy="460.89" r="5.5" fill="#b03a2e" stroke="#ffffff" stroke-width="1.5"/><text x="226.63" y="452.89" class="small">005</text><circle cx="232.21" cy="459.71" r="5.5" fill="#b03a2e" stroke="#ffffff" stroke-width="1.5"/><text x="240.21" y="451.71" class="small">006</text><circle cx="245.79" cy="452.45" r="5.5" fill="#b03a2e" stroke="#ffffff" stroke-width="1.5"/><text x="253.79" y="444.45" class="small">007</text><circle cx="259.37" cy="455.63" r="5.5" fill="#b03a2e" stroke="#ffffff" stroke-width="1.5"/><text x="267.37" y="447.63" class="small">008</text><circle cx="272.95" cy="462.71" r="5.5" fill="#b03a2e" stroke="#ffffff" stroke-width="1.5"/><text x="280.95" y="454.71" class="small">009</text><circle cx="286.53" cy="467.61" r="5.5" fill="#b03a2e" stroke="#ffffff" stroke-width="1.5"/><text x="294.53" y="459.61" class="small">010</text><circle cx="300.11" cy="461.16" r="5.5" fill="#b03a2e" stroke="#ffffff" stroke-width="1.5"/><text x="308.11" y="453.16" class="small">011</text><circle cx="313.68" cy="473.14" r="5.5" fill="#1f7a4d" stroke="#ffffff" stroke-width="1.5"/><text x="321.68" y="465.14" class="small">012</text><circle cx="327.26" cy="466.15" r="5.5" fill="#b03a2e" stroke="#ffffff" stroke-width="1.5"/><text x="335.26" y="458.15" class="small">013</text><circle cx="340.84" cy="465.61" r="5.5" fill="#b03a2e" stroke="#ffffff" stroke-width="1.5"/><text x="348.84" y="457.61" class="small">014</text><circle cx="354.42" cy="466.97" r="5.5" fill="#b03a2e" stroke="#ffffff" stroke-width="1.5"/><text x="362.42" y="458.97" class="small">015</text><circle cx="368.00" cy="483.76" r="5.5" fill="#1f7a4d" stroke="#ffffff" stroke-width="1.5"/><text x="376.00" y="475.76" class="small">016</text><circle cx="381.58" cy="466.70" r="5.5" fill="#b03a2e" stroke="#ffffff" stroke-width="1.5"/><text x="389.58" y="458.70" class="small">017</text><circle cx="395.16" cy="477.86" r="5.5" fill="#b03a2e" stroke="#ffffff" stroke-width="1.5"/><text x="403.16" y="469.86" class="small">018</text><circle cx="408.74" cy="475.86" r="5.5" fill="#b03a2e" stroke="#ffffff" stroke-width="1.5"/><text x="416.74" y="467.86" class="small">019</text><circle cx="422.32" cy="471.78" r="5.5" fill="#b03a2e" stroke="#ffffff" stroke-width="1.5"/><text x="430.32" y="463.78" class="small">020</text><circle cx="435.89" cy="484.84" r="5.5" fill="#1f7a4d" stroke="#ffffff" stroke-width="1.5"/><text x="443.89" y="476.84" class="small">021</text><circle cx="449.47" cy="461.35" r="5.5" fill="#b03a2e" stroke="#ffffff" stroke-width="1.5"/><text x="457.47" y="453.35" class="small">022</text><circle cx="463.05" cy="479.67" r="5.5" fill="#b03a2e" stroke="#ffffff" stroke-width="1.5"/><text x="471.05" y="471.67" class="small">023</text><circle cx="476.63" cy="478.67" r="5.5" fill="#b03a2e" stroke="#ffffff" stroke-width="1.5"/><text x="484.63" y="470.67" class="small">024</text><circle cx="490.21" cy="481.76" r="5.5" fill="#b03a2e" stroke="#ffffff" stroke-width="1.5"/><text x="498.21" y="473.76" class="small">025</text><circle cx="503.79" cy="493.46" r="5.5" fill="#1f7a4d" stroke="#ffffff" stroke-width="1.5"/><text x="511.79" y="485.46" class="small">026</text><circle cx="517.37" cy="496.37" r="5.5" fill="#1f7a4d" stroke="#ffffff" stroke-width="1.5"/><text x="525.37" y="488.37" class="small">027</text><circle cx="530.95" cy="492.19" r="5.5" fill="#b03a2e" stroke="#ffffff" stroke-width="1.5"/><text x="538.95" y="484.19" class="small">028</text><circle cx="544.53" cy="495.10" r="5.5" fill="#b03a2e" stroke="#ffffff" stroke-width="1.5"/><text x="552.53" y="487.10" class="small">029</text><circle cx="558.11" cy="498.00" r="5.5" fill="#1f7a4d" stroke="#ffffff" stroke-width="1.5"/><text x="566.11" y="490.00" class="small">030</text><circle cx="571.68" cy="498.00" r="5.5" fill="#b03a2e" stroke="#ffffff" stroke-width="1.5"/><text x="579.68" y="490.00" class="small">001</text><circle cx="585.26" cy="497.46" r="5.5" fill="#b03a2e" stroke="#ffffff" stroke-width="1.5"/><text x="593.26" y="489.46" class="small">002</text><circle cx="598.84" cy="494.82" r="5.5" fill="#b03a2e" stroke="#ffffff" stroke-width="1.5"/><text x="606.84" y="486.82" class="small">003</text><circle cx="612.42" cy="497.09" r="5.5" fill="#b03a2e" stroke="#ffffff" stroke-width="1.5"/><text x="620.42" y="489.09" class="small">004</text><circle cx="626.00" cy="497.91" r="5.5" fill="#b03a2e" stroke="#ffffff" stroke-width="1.5"/><text x="634.00" y="489.91" class="small">005</text><rect x="670" y="220" width="610" height="320" rx="18" fill="#ffffff" stroke="#d6d3d1"/><text x="690" y="248" class="paneltitle">Running best frontier</text><line x1="740" y1="498" x2="1256" y2="498" stroke="#94a3b8" stroke-width="1.5"/><line x1="740" y1="498" x2="740" y2="268" stroke="#94a3b8" stroke-width="1.5"/><text x="998.00" y="526.00" class="small">experiment order</text><text x="692.00" y="258.00" class="small">best so far</text><line x1="740" y1="498.00" x2="1256" y2="498.00" stroke="#e5e7eb" stroke-width="1"/><text x="686.00" y="502.00" class="small">1.3564</text><line x1="740" y1="383.00" x2="1256" y2="383.00" stroke="#e5e7eb" stroke-width="1"/><text x="686.00" y="387.00" class="small">1.4832</text><line x1="740" y1="268.00" x2="1256" y2="268.00" stroke="#e5e7eb" stroke-width="1"/><text x="686.00" y="272.00" class="small">1.6099</text><polyline fill="none" stroke="#1d4ed8" stroke-width="3" points="740.00,268.00 753.58,284.15 767.16,436.76 780.74,446.74 794.32,459.35 807.89,459.35 821.47,466.06 835.05,466.34 848.63,466.34 862.21,466.34 875.79,466.34 889.37,466.34 902.95,466.34 916.53,467.61 930.11,467.61 943.68,473.14 957.26,473.14 970.84,473.14 984.42,473.14 998.00,483.76 1011.58,483.76 1025.16,483.76 1038.74,483.76 1052.32,483.76 1065.89,484.84 1079.47,484.84 1093.05,484.84 1106.63,484.84 1120.21,484.84 1133.79,493.46 1147.37,496.37 1160.95,496.37 1174.53,496.37 1188.11,498.00 1201.68,498.00 1215.26,498.00 1228.84,498.00 1242.42,498.00 1256.00,498.00"/><circle cx="740.00" cy="268.00" r="5.5" fill="#1f7a4d" stroke="#ffffff" stroke-width="1.5"/><circle cx="753.58" cy="284.15" r="5.5" fill="#1f7a4d" stroke="#ffffff" stroke-width="1.5"/><circle cx="767.16" cy="436.76" r="5.5" fill="#1f7a4d" stroke="#ffffff" stroke-width="1.5"/><circle cx="780.74" cy="446.74" r="5.5" fill="#1f7a4d" stroke="#ffffff" stroke-width="1.5"/><circle cx="794.32" cy="459.35" r="5.5" fill="#1f7a4d" stroke="#ffffff" stroke-width="1.5"/><circle cx="807.89" cy="459.35" r="5.5" fill="#b03a2e" stroke="#ffffff" stroke-width="1.5"/><circle cx="821.47" cy="466.06" r="5.5" fill="#1f7a4d" stroke="#ffffff" stroke-width="1.5"/><circle cx="835.05" cy="466.34" r="5.5" fill="#1f7a4d" stroke="#ffffff" stroke-width="1.5"/><circle cx="848.63" cy="466.34" r="5.5" fill="#b03a2e" stroke="#ffffff" stroke-width="1.5"/><circle cx="862.21" cy="466.34" r="5.5" fill="#b03a2e" stroke="#ffffff" stroke-width="1.5"/><circle cx="875.79" cy="466.34" r="5.5" fill="#b03a2e" stroke="#ffffff" stroke-width="1.5"/><circle cx="889.37" cy="466.34" r="5.5" fill="#b03a2e" stroke="#ffffff" stroke-width="1.5"/><circle cx="902.95" cy="466.34" r="5.5" fill="#b03a2e" stroke="#ffffff" stroke-width="1.5"/><circle cx="916.53" cy="467.61" r="5.5" fill="#b03a2e" stroke="#ffffff" stroke-width="1.5"/><circle cx="930.11" cy="467.61" r="5.5" fill="#b03a2e" stroke="#ffffff" stroke-width="1.5"/><circle cx="943.68" cy="473.14" r="5.5" fill="#1f7a4d" stroke="#ffffff" stroke-width="1.5"/><circle cx="957.26" cy="473.14" r="5.5" fill="#b03a2e" stroke="#ffffff" stroke-width="1.5"/><circle cx="970.84" cy="473.14" r="5.5" fill="#b03a2e" stroke="#ffffff" stroke-width="1.5"/><circle cx="984.42" cy="473.14" r="5.5" fill="#b03a2e" stroke="#ffffff" stroke-width="1.5"/><circle cx="998.00" cy="483.76" r="5.5" fill="#1f7a4d" stroke="#ffffff" stroke-width="1.5"/><circle cx="1011.58" cy="483.76" r="5.5" fill="#b03a2e" stroke="#ffffff" stroke-width="1.5"/><circle cx="1025.16" cy="483.76" r="5.5" fill="#b03a2e" stroke="#ffffff" stroke-width="1.5"/><circle cx="1038.74" cy="483.76" r="5.5" fill="#b03a2e" stroke="#ffffff" stroke-width="1.5"/><circle cx="1052.32" cy="483.76" r="5.5" fill="#b03a2e" stroke="#ffffff" stroke-width="1.5"/><circle cx="1065.89" cy="484.84" r="5.5" fill="#1f7a4d" stroke="#ffffff" stroke-width="1.5"/><circle cx="1079.47" cy="484.84" r="5.5" fill="#b03a2e" stroke="#ffffff" stroke-width="1.5"/><circle cx="1093.05" cy="484.84" r="5.5" fill="#b03a2e" stroke="#ffffff" stroke-width="1.5"/><circle cx="1106.63" cy="484.84" r="5.5" fill="#b03a2e" stroke="#ffffff" stroke-width="1.5"/><circle cx="1120.21" cy="484.84" r="5.5" fill="#b03a2e" stroke="#ffffff" stroke-width="1.5"/><circle cx="1133.79" cy="493.46" r="5.5" fill="#1f7a4d" stroke="#ffffff" stroke-width="1.5"/><circle cx="1147.37" cy="496.37" r="5.5" fill="#1f7a4d" stroke="#ffffff" stroke-width="1.5"/><circle cx="1160.95" cy="496.37" r="5.5" fill="#b03a2e" stroke="#ffffff" stroke-width="1.5"/><circle cx="1174.53" cy="496.37" r="5.5" fill="#b03a2e" stroke="#ffffff" stroke-width="1.5"/><circle cx="1188.11" cy="498.00" r="5.5" fill="#1f7a4d" stroke="#ffffff" stroke-width="1.5"/><circle cx="1201.68" cy="498.00" r="5.5" fill="#b03a2e" stroke="#ffffff" stroke-width="1.5"/><circle cx="1215.26" cy="498.00" r="5.5" fill="#b03a2e" stroke="#ffffff" stroke-width="1.5"/><circle cx="1228.84" cy="498.00" r="5.5" fill="#b03a2e" stroke="#ffffff" stroke-width="1.5"/><circle cx="1242.42" cy="498.00" r="5.5" fill="#b03a2e" stroke="#ffffff" stroke-width="1.5"/><circle cx="1256.00" cy="498.00" r="5.5" fill="#b03a2e" stroke="#ffffff" stroke-width="1.5"/><rect x="40" y="590" width="610" height="320" rx="18" fill="#ffffff" stroke="#d6d3d1"/><text x="60" y="618" class="paneltitle">Training steps vs val_bpb</text><line x1="110" y1="868" x2="626" y2="868" stroke="#94a3b8" stroke-width="1.5"/><line x1="110" y1="868" x2="110" y2="638" stroke="#94a3b8" stroke-width="1.5"/><text x="368.00" y="896.00" class="small">steps in 600s</text><text x="62.00" y="628.00" class="small">val_bpb</text><line x1="110" y1="868.00" x2="626" y2="868.00" stroke="#e5e7eb" stroke-width="1"/><text x="56.00" y="872.00" class="small">1.3564</text><line x1="110" y1="753.00" x2="626" y2="753.00" stroke="#e5e7eb" stroke-width="1"/><text x="56.00" y="757.00" class="small">1.4743</text><line x1="110" y1="638.00" x2="626" y2="638.00" stroke="#e5e7eb" stroke-width="1"/><text x="56.00" y="642.00" class="small">1.5921</text><line x1="110.00" y1="868" x2="110.00" y2="638" stroke="#f1f5f9" stroke-width="1"/><text x="98.00" y="886.00" class="small">342.0</text><line x1="368.00" y1="868" x2="368.00" y2="638" stroke="#f1f5f9" stroke-width="1"/><text x="356.00" y="886.00" class="small">1045.0</text><line x1="626.00" y1="868" x2="626.00" y2="638" stroke="#f1f5f9" stroke-width="1"/><text x="614.00" y="886.00" class="small">1748.0</text><circle cx="110.00" cy="638.00" r="6" fill="#1f7a4d" stroke="#ffffff" stroke-width="1.5"/><text x="118.00" y="630.00" class="small">002</text><circle cx="239.55" cy="802.13" r="6" fill="#1f7a4d" stroke="#ffffff" stroke-width="1.5"/><text x="247.55" y="794.13" class="small">003</text><circle cx="260.10" cy="826.43" r="6" fill="#1f7a4d" stroke="#ffffff" stroke-width="1.5"/><text x="268.10" y="818.43" class="small">001</text><circle cx="232.58" cy="814.43" r="6" fill="#b03a2e" stroke="#ffffff" stroke-width="1.5"/><text x="240.58" y="806.43" class="small">002</text><circle cx="306.71" cy="833.65" r="6" fill="#1f7a4d" stroke="#ffffff" stroke-width="1.5"/><text x="314.71" y="825.65" class="small">003</text><circle cx="427.82" cy="833.94" r="6" fill="#1f7a4d" stroke="#ffffff" stroke-width="1.5"/><text x="435.82" y="825.94" class="small">004</text><circle cx="313.32" cy="828.09" r="6" fill="#b03a2e" stroke="#ffffff" stroke-width="1.5"/><text x="321.32" y="820.09" class="small">005</text><circle cx="367.63" cy="826.82" r="6" fill="#b03a2e" stroke="#ffffff" stroke-width="1.5"/><text x="375.63" y="818.82" class="small">006</text><circle cx="258.27" cy="819.01" r="6" fill="#b03a2e" stroke="#ffffff" stroke-width="1.5"/><text x="266.27" y="811.01" class="small">007</text><circle cx="332.40" cy="822.43" r="6" fill="#b03a2e" stroke="#ffffff" stroke-width="1.5"/><text x="340.40" y="814.43" class="small">008</text><circle cx="288.73" cy="830.04" r="6" fill="#b03a2e" stroke="#ffffff" stroke-width="1.5"/><text x="296.73" y="822.04" class="small">009</text><circle cx="408.37" cy="835.31" r="6" fill="#b03a2e" stroke="#ffffff" stroke-width="1.5"/><text x="416.37" y="827.31" class="small">010</text><circle cx="405.07" cy="828.38" r="6" fill="#b03a2e" stroke="#ffffff" stroke-width="1.5"/><text x="413.07" y="820.38" class="small">011</text><circle cx="479.57" cy="841.26" r="6" fill="#1f7a4d" stroke="#ffffff" stroke-width="1.5"/><text x="487.57" y="833.26" class="small">012</text><circle cx="456.81" cy="833.75" r="6" fill="#b03a2e" stroke="#ffffff" stroke-width="1.5"/><text x="464.81" y="825.75" class="small">013</text><circle cx="463.05" cy="833.16" r="6" fill="#b03a2e" stroke="#ffffff" stroke-width="1.5"/><text x="471.05" y="825.16" class="small">014</text><circle cx="458.65" cy="834.63" r="6" fill="#b03a2e" stroke="#ffffff" stroke-width="1.5"/><text x="466.65" y="826.63" class="small">015</text><circle cx="614.99" cy="852.68" r="6" fill="#1f7a4d" stroke="#ffffff" stroke-width="1.5"/><text x="622.99" y="844.68" class="small">016</text><circle cx="479.20" cy="834.33" r="6" fill="#b03a2e" stroke="#ffffff" stroke-width="1.5"/><text x="487.20" y="826.33" class="small">017</text><circle cx="615.36" cy="846.34" r="6" fill="#b03a2e" stroke="#ffffff" stroke-width="1.5"/><text x="623.36" y="838.34" class="small">018</text><circle cx="591.87" cy="844.19" r="6" fill="#b03a2e" stroke="#ffffff" stroke-width="1.5"/><text x="599.87" y="836.19" class="small">019</text><circle cx="592.60" cy="839.80" r="6" fill="#b03a2e" stroke="#ffffff" stroke-width="1.5"/><text x="600.60" y="831.80" class="small">020</text><circle cx="590.77" cy="853.85" r="6" fill="#1f7a4d" stroke="#ffffff" stroke-width="1.5"/><text x="598.77" y="845.85" class="small">021</text><circle cx="626.00" cy="828.58" r="6" fill="#b03a2e" stroke="#ffffff" stroke-width="1.5"/><text x="634.00" y="820.58" class="small">022</text><circle cx="589.67" cy="848.29" r="6" fill="#b03a2e" stroke="#ffffff" stroke-width="1.5"/><text x="597.67" y="840.29" class="small">023</text><circle cx="614.62" cy="847.22" r="6" fill="#b03a2e" stroke="#ffffff" stroke-width="1.5"/><text x="622.62" y="839.22" class="small">024</text><circle cx="614.62" cy="850.53" r="6" fill="#b03a2e" stroke="#ffffff" stroke-width="1.5"/><text x="622.62" y="842.53" class="small">025</text><circle cx="590.40" cy="863.12" r="6" fill="#1f7a4d" stroke="#ffffff" stroke-width="1.5"/><text x="598.40" y="855.12" class="small">026</text><circle cx="590.40" cy="866.24" r="6" fill="#1f7a4d" stroke="#ffffff" stroke-width="1.5"/><text x="598.40" y="858.24" class="small">027</text><circle cx="590.03" cy="861.75" r="6" fill="#b03a2e" stroke="#ffffff" stroke-width="1.5"/><text x="598.03" y="853.75" class="small">028</text><circle cx="590.40" cy="864.88" r="6" fill="#b03a2e" stroke="#ffffff" stroke-width="1.5"/><text x="598.40" y="856.88" class="small">029</text><circle cx="590.03" cy="868.00" r="6" fill="#1f7a4d" stroke="#ffffff" stroke-width="1.5"/><text x="598.03" y="860.00" class="small">030</text><circle cx="590.40" cy="868.00" r="6" fill="#b03a2e" stroke="#ffffff" stroke-width="1.5"/><text x="598.40" y="860.00" class="small">001</text><circle cx="590.77" cy="867.41" r="6" fill="#b03a2e" stroke="#ffffff" stroke-width="1.5"/><text x="598.77" y="859.41" class="small">002</text><circle cx="590.77" cy="864.58" r="6" fill="#b03a2e" stroke="#ffffff" stroke-width="1.5"/><text x="598.77" y="856.58" class="small">003</text><circle cx="591.50" cy="867.02" r="6" fill="#b03a2e" stroke="#ffffff" stroke-width="1.5"/><text x="599.50" y="859.02" class="small">004</text><circle cx="590.77" cy="867.90" r="6" fill="#b03a2e" stroke="#ffffff" stroke-width="1.5"/><text x="598.77" y="859.90" class="small">005</text><rect x="670" y="590" width="610" height="320" rx="18" fill="#ffffff" stroke="#d6d3d1"/><text x="690" y="618" class="paneltitle">Artifact size vs val_bpb</text><line x1="740" y1="868" x2="1256" y2="868" stroke="#94a3b8" stroke-width="1.5"/><line x1="740" y1="868" x2="740" y2="638" stroke="#94a3b8" stroke-width="1.5"/><text x="998.00" y="896.00" class="small">artifact MB</text><text x="692.00" y="628.00" class="small">val_bpb</text><line x1="740" y1="868.00" x2="1256" y2="868.00" stroke="#e5e7eb" stroke-width="1"/><text x="686.00" y="872.00" class="small">1.3564</text><line x1="740" y1="753.00" x2="1256" y2="753.00" stroke="#e5e7eb" stroke-width="1"/><text x="686.00" y="757.00" class="small">1.3839</text><line x1="740" y1="638.00" x2="1256" y2="638.00" stroke="#e5e7eb" stroke-width="1"/><text x="686.00" y="642.00" class="small">1.4113</text><line x1="740.00" y1="868" x2="740.00" y2="638" stroke="#f1f5f9" stroke-width="1"/><text x="728.00" y="886.00" class="small">11.3</text><line x1="998.00" y1="868" x2="998.00" y2="638" stroke="#f1f5f9" stroke-width="1"/><text x="986.00" y="886.00" class="small">14.5</text><line x1="1256.00" y1="868" x2="1256.00" y2="638" stroke="#f1f5f9" stroke-width="1"/><text x="1244.00" y="886.00" class="small">17.7</text><circle cx="850.28" cy="689.53" r="6" fill="#1f7a4d" stroke="#ffffff" stroke-width="1.5"/><text x="858.28" y="681.53" class="small">001</text><circle cx="933.20" cy="638.00" r="6" fill="#b03a2e" stroke="#ffffff" stroke-width="1.5"/><text x="941.20" y="630.00" class="small">002</text><circle cx="1001.62" cy="720.53" r="6" fill="#1f7a4d" stroke="#ffffff" stroke-width="1.5"/><text x="1009.62" y="712.53" class="small">003</text><circle cx="1106.27" cy="721.79" r="6" fill="#1f7a4d" stroke="#ffffff" stroke-width="1.5"/><text x="1114.27" y="713.79" class="small">004</text><circle cx="911.46" cy="696.65" r="6" fill="#b03a2e" stroke="#ffffff" stroke-width="1.5"/><text x="919.46" y="688.65" class="small">005</text><circle cx="740.00" cy="691.21" r="6" fill="#b03a2e" stroke="#ffffff" stroke-width="1.5"/><text x="748.00" y="683.21" class="small">006</text><circle cx="1235.88" cy="657.69" r="6" fill="#b03a2e" stroke="#ffffff" stroke-width="1.5"/><text x="1243.88" y="649.69" class="small">007</text><circle cx="801.18" cy="672.35" r="6" fill="#b03a2e" stroke="#ffffff" stroke-width="1.5"/><text x="809.18" y="664.35" class="small">008</text><circle cx="1135.25" cy="705.03" r="6" fill="#b03a2e" stroke="#ffffff" stroke-width="1.5"/><text x="1143.25" y="697.03" class="small">009</text><circle cx="1256.00" cy="727.65" r="6" fill="#b03a2e" stroke="#ffffff" stroke-width="1.5"/><text x="1264.00" y="719.65" class="small">010</text><circle cx="1091.78" cy="697.91" r="6" fill="#b03a2e" stroke="#ffffff" stroke-width="1.5"/><text x="1099.78" y="689.91" class="small">011</text><circle cx="1018.53" cy="753.21" r="6" fill="#1f7a4d" stroke="#ffffff" stroke-width="1.5"/><text x="1026.53" y="745.21" class="small">012</text><circle cx="975.06" cy="720.95" r="6" fill="#b03a2e" stroke="#ffffff" stroke-width="1.5"/><text x="983.06" y="712.95" class="small">013</text><circle cx="1144.11" cy="718.44" r="6" fill="#b03a2e" stroke="#ffffff" stroke-width="1.5"/><text x="1152.11" y="710.44" class="small">014</text><circle cx="993.57" cy="724.72" r="6" fill="#b03a2e" stroke="#ffffff" stroke-width="1.5"/><text x="1001.57" y="716.72" class="small">015</text><circle cx="1078.90" cy="802.23" r="6" fill="#1f7a4d" stroke="#ffffff" stroke-width="1.5"/><text x="1086.90" y="794.23" class="small">016</text><circle cx="1033.82" cy="723.46" r="6" fill="#b03a2e" stroke="#ffffff" stroke-width="1.5"/><text x="1041.82" y="715.46" class="small">017</text><circle cx="1084.54" cy="774.99" r="6" fill="#b03a2e" stroke="#ffffff" stroke-width="1.5"/><text x="1092.54" y="766.99" class="small">018</text><circle cx="1055.56" cy="765.78" r="6" fill="#b03a2e" stroke="#ffffff" stroke-width="1.5"/><text x="1063.56" y="757.78" class="small">019</text><circle cx="1062.80" cy="746.93" r="6" fill="#b03a2e" stroke="#ffffff" stroke-width="1.5"/><text x="1070.80" y="738.93" class="small">020</text><circle cx="1066.83" cy="807.25" r="6" fill="#1f7a4d" stroke="#ffffff" stroke-width="1.5"/><text x="1074.83" y="799.25" class="small">021</text><circle cx="991.96" cy="698.75" r="6" fill="#b03a2e" stroke="#ffffff" stroke-width="1.5"/><text x="999.96" y="690.75" class="small">022</text><circle cx="1065.22" cy="783.37" r="6" fill="#b03a2e" stroke="#ffffff" stroke-width="1.5"/><text x="1073.22" y="775.37" class="small">023</text><circle cx="1076.49" cy="778.77" r="6" fill="#b03a2e" stroke="#ffffff" stroke-width="1.5"/><text x="1084.49" y="770.77" class="small">024</text><circle cx="1078.90" cy="793.01" r="6" fill="#b03a2e" stroke="#ffffff" stroke-width="1.5"/><text x="1086.90" y="785.01" class="small">025</text><circle cx="1103.05" cy="847.05" r="6" fill="#1f7a4d" stroke="#ffffff" stroke-width="1.5"/><text x="1111.05" y="839.05" class="small">026</text><circle cx="1102.25" cy="860.46" r="6" fill="#1f7a4d" stroke="#ffffff" stroke-width="1.5"/><text x="1110.25" y="852.46" class="small">027</text><circle cx="1102.25" cy="841.19" r="6" fill="#b03a2e" stroke="#ffffff" stroke-width="1.5"/><text x="1110.25" y="833.19" class="small">028</text><circle cx="1099.83" cy="854.59" r="6" fill="#b03a2e" stroke="#ffffff" stroke-width="1.5"/><text x="1107.83" y="846.59" class="small">029</text><circle cx="1104.66" cy="868.00" r="6" fill="#1f7a4d" stroke="#ffffff" stroke-width="1.5"/><text x="1112.66" y="860.00" class="small">030</text><circle cx="1105.47" cy="868.00" r="6" fill="#b03a2e" stroke="#ffffff" stroke-width="1.5"/><text x="1113.47" y="860.00" class="small">001</text><circle cx="1103.86" cy="865.49" r="6" fill="#b03a2e" stroke="#ffffff" stroke-width="1.5"/><text x="1111.86" y="857.49" class="small">002</text><circle cx="1104.66" cy="853.34" r="6" fill="#b03a2e" stroke="#ffffff" stroke-width="1.5"/><text x="1112.66" y="845.34" class="small">003</text><circle cx="1105.47" cy="863.81" r="6" fill="#b03a2e" stroke="#ffffff" stroke-width="1.5"/><text x="1113.47" y="855.81" class="small">004</text><circle cx="1106.27" cy="867.58" r="6" fill="#b03a2e" stroke="#ffffff" stroke-width="1.5"/><text x="1114.27" y="859.58" class="small">005</text><rect x="40" y="940" width="1240" height="88" rx="14" fill="#fffdf8" stroke="#d6d3d1"/><text x="60" y="964" class="body">Current best: AL-20260329-030 at 1.3564 val_bpb.</text><text x="60" y="982" class="body">Latest run: AL-20260330-005 (discard) tested if stronger clipping and faster head updates are both the right local directions, the combination may stack into one more immediate frontier gain.</text><text x="60" y="1000" class="body">Latest delta vs best: +0.0001 val_bpb.</text><text x="60" y="1018" class="body">Read agent_lab/state.md for the live dashboard and agent_lab/tranches.md for the tranche map.</text></svg>
