<svg xmlns="http://www.w3.org/2000/svg" width="1320" height="1040" viewBox="0 0 1320 1040"><rect width="100%" height="100%" fill="#f6f4ef"/><style>text{font-family:ui-sans-serif,system-ui,-apple-system,BlinkMacSystemFont,"Segoe UI",sans-serif;fill:#1f2937}.small{font-size:12px}.body{font-size:14px}.label{font-size:15px;font-weight:600}.title{font-size:28px;font-weight:700}.cardtitle{font-size:13px;font-weight:700;letter-spacing:.08em;text-transform:uppercase;fill:#475569}.metric{font-size:30px;font-weight:700}.paneltitle{font-size:18px;font-weight:700}</style><text x="40" y="56" class="title">Agent Lab Experiment Dashboard</text><text x="40" y="84" class="body">Best run AL-20260331-004 reached 1.3451 val_bpb. 84 scored runs are tracked here, with 23 kept and 61 discarded.</text><rect x="40" y="110" width="290" height="78" rx="14" fill="#ffffff" stroke="#d6d3d1"/><text x="60" y="134" class="cardtitle">Current Best</text><text x="60" y="164" class="metric">1.3451</text><text x="60" y="180" class="small">AL-20260331-004 (7641f2e)</text><rect x="350" y="110" width="290" height="78" rx="14" fill="#ffffff" stroke="#d6d3d1"/><text x="370" y="134" class="cardtitle">Tracked Runs</text><text x="370" y="164" class="metric">84</text><text x="370" y="180" class="small">23 keep / 61 discard</text><rect x="660" y="110" width="290" height="78" rx="14" fill="#ffffff" stroke="#d6d3d1"/><text x="680" y="134" class="cardtitle">Primary Metric</text><text x="680" y="164" class="metric">final_int8_ttt_lora</text><text x="680" y="180" class="small">lower is better</text><rect x="970" y="110" width="290" height="78" rx="14" fill="#ffffff" stroke="#d6d3d1"/><text x="990" y="134" class="cardtitle">Mean val_bpb</text><text x="990" y="164" class="metric">1.3791</text><text x="990" y="180" class="small">across scored runs</text><rect x="40" y="220" width="610" height="320" rx="18" fill="#ffffff" stroke="#d6d3d1"/><text x="60" y="248" class="paneltitle">val_bpb by experiment</text><line x1="110" y1="498" x2="626" y2="498" stroke="#94a3b8" stroke-width="1.5"/><line x1="110" y1="498" x2="110" y2="268" stroke="#94a3b8" stroke-width="1.5"/><text x="368.00" y="526.00" class="small">experiment order</text><text x="62.00" y="258.00" class="small">val_bpb</text><line x1="110" y1="498.00" x2="626" y2="498.00" stroke="#e5e7eb" stroke-width="1"/><text x="56.00" y="502.00" class="small">1.3451</text><line x1="110" y1="383.00" x2="626" y2="383.00" stroke="#e5e7eb" stroke-width="1"/><text x="56.00" y="387.00" class="small">1.4775</text><line x1="110" y1="268.00" x2="626" y2="268.00" stroke="#e5e7eb" stroke-width="1"/><text x="56.00" y="272.00" class="small">1.6099</text><polyline fill="none" stroke="#1d4ed8" stroke-width="3" points="110.00,268.00 116.22,283.46 122.43,429.56 128.65,439.11 134.87,451.18 141.08,440.50 147.30,457.61 153.52,457.87 159.73,452.66 165.95,451.53 172.17,444.58 178.39,447.62 184.60,454.40 190.82,459.09 197.04,452.92 203.25,464.39 209.47,457.70 215.69,457.18 221.90,458.48 228.12,474.55 234.34,458.22 240.55,468.90 246.77,466.99 252.99,463.08 259.20,475.59 265.42,453.09 271.64,470.64 277.86,469.68 284.07,472.64 290.29,483.84 296.51,486.62 302.72,482.63 308.94,485.41 315.16,488.19 321.37,488.19 327.59,487.66 333.81,485.15 340.02,487.32 346.24,488.10 352.46,470.90 358.67,479.33 364.89,487.84 371.11,484.19 377.33,467.08 383.54,474.81 389.76,462.04 395.98,477.68 402.19,473.16 408.41,460.48 414.63,481.76 420.84,476.55 427.06,488.62 433.28,494.79 439.49,484.80 445.71,452.75 451.93,428.17 458.14,462.30 464.36,475.42 470.58,417.48 476.80,489.14 483.01,487.84 489.23,487.32 495.45,486.71 501.66,490.79 507.88,488.36 514.10,485.84 520.31,487.58 526.53,488.45 532.75,488.36 538.96,473.33 545.18,462.91 551.40,487.06 557.61,488.01 563.83,464.73 570.05,497.83 576.27,493.57 582.48,494.79 588.70,498.00 594.92,495.74 601.13,485.84 607.35,480.80 613.57,493.57 619.78,494.70 626.00,492.27"/><circle cx="110.00" cy="268.00" r="5.5" fill="#1f7a4d" stroke="#ffffff" stroke-width="1.5"/><text x="118.00" y="260.00" class="small">001</text><circle cx="116.22" cy="283.46" r="5.5" fill="#1f7a4d" stroke="#ffffff" stroke-width="1.5"/><text x="124.22" y="275.46" class="small">002</text><circle cx="122.43" cy="429.56" r="5.5" fill="#1f7a4d" stroke="#ffffff" stroke-width="1.5"/><text x="130.43" y="421.56" class="small">003</text><circle cx="128.65" cy="439.11" r="5.5" fill="#1f7a4d" stroke="#ffffff" stroke-width="1.5"/><text x="136.65" y="431.11" class="small">004</text><circle cx="134.87" cy="451.18" r="5.5" fill="#1f7a4d" stroke="#ffffff" stroke-width="1.5"/><text x="142.87" y="443.18" class="small">001</text><circle cx="141.08" cy="440.50" r="5.5" fill="#b03a2e" stroke="#ffffff" stroke-width="1.5"/><text x="149.08" y="432.50" class="small">002</text><circle cx="147.30" cy="457.61" r="5.5" fill="#1f7a4d" stroke="#ffffff" stroke-width="1.5"/><text x="155.30" y="449.61" class="small">003</text><circle cx="153.52" cy="457.87" r="5.5" fill="#1f7a4d" stroke="#ffffff" stroke-width="1.5"/><text x="161.52" y="449.87" class="small">004</text><circle cx="159.73" cy="452.66" r="5.5" fill="#b03a2e" stroke="#ffffff" stroke-width="1.5"/><text x="167.73" y="444.66" class="small">005</text><circle cx="165.95" cy="451.53" r="5.5" fill="#b03a2e" stroke="#ffffff" stroke-width="1.5"/><text x="173.95" y="443.53" class="small">006</text><circle cx="172.17" cy="444.58" r="5.5" fill="#b03a2e" stroke="#ffffff" stroke-width="1.5"/><text x="180.17" y="436.58" class="small">007</text><circle cx="178.39" cy="447.62" r="5.5" fill="#b03a2e" stroke="#ffffff" stroke-width="1.5"/><text x="186.39" y="439.62" class="small">008</text><circle cx="184.60" cy="454.40" r="5.5" fill="#b03a2e" stroke="#ffffff" stroke-width="1.5"/><text x="192.60" y="446.40" class="small">009</text><circle cx="190.82" cy="459.09" r="5.5" fill="#b03a2e" stroke="#ffffff" stroke-width="1.5"/><text x="198.82" y="451.09" class="small">010</text><circle cx="197.04" cy="452.92" r="5.5" fill="#b03a2e" stroke="#ffffff" stroke-width="1.5"/><text x="205.04" y="444.92" class="small">011</text><circle cx="203.25" cy="464.39" r="5.5" fill="#1f7a4d" stroke="#ffffff" stroke-width="1.5"/><text x="211.25" y="456.39" class="small">012</text><circle cx="209.47" cy="457.70" r="5.5" fill="#b03a2e" stroke="#ffffff" stroke-width="1.5"/><text x="217.47" y="449.70" class="small">013</text><circle cx="215.69" cy="457.18" r="5.5" fill="#b03a2e" stroke="#ffffff" stroke-width="1.5"/><text x="223.69" y="449.18" class="small">014</text><circle cx="221.90" cy="458.48" r="5.5" fill="#b03a2e" stroke="#ffffff" stroke-width="1.5"/><text x="229.90" y="450.48" class="small">015</text><circle cx="228.12" cy="474.55" r="5.5" fill="#1f7a4d" stroke="#ffffff" stroke-width="1.5"/><text x="236.12" y="466.55" class="small">016</text><circle cx="234.34" cy="458.22" r="5.5" fill="#b03a2e" stroke="#ffffff" stroke-width="1.5"/><text x="242.34" y="450.22" class="small">017</text><circle cx="240.55" cy="468.90" r="5.5" fill="#b03a2e" stroke="#ffffff" stroke-width="1.5"/><text x="248.55" y="460.90" class="small">018</text><circle cx="246.77" cy="466.99" r="5.5" fill="#b03a2e" stroke="#ffffff" stroke-width="1.5"/><text x="254.77" y="458.99" class="small">019</text><circle cx="252.99" cy="463.08" r="5.5" fill="#b03a2e" stroke="#ffffff" stroke-width="1.5"/><text x="260.99" y="455.08" class="small">020</text><circle cx="259.20" cy="475.59" r="5.5" fill="#1f7a4d" stroke="#ffffff" stroke-width="1.5"/><text x="267.20" y="467.59" class="small">021</text><circle cx="265.42" cy="453.09" r="5.5" fill="#b03a2e" stroke="#ffffff" stroke-width="1.5"/><text x="273.42" y="445.09" class="small">022</text><circle cx="271.64" cy="470.64" r="5.5" fill="#b03a2e" stroke="#ffffff" stroke-width="1.5"/><text x="279.64" y="462.64" class="small">023</text><circle cx="277.86" cy="469.68" r="5.5" fill="#b03a2e" stroke="#ffffff" stroke-width="1.5"/><text x="285.86" y="461.68" class="small">024</text><circle cx="284.07" cy="472.64" r="5.5" fill="#b03a2e" stroke="#ffffff" stroke-width="1.5"/><text x="292.07" y="464.64" class="small">025</text><circle cx="290.29" cy="483.84" r="5.5" fill="#1f7a4d" stroke="#ffffff" stroke-width="1.5"/><text x="298.29" y="475.84" class="small">026</text><circle cx="296.51" cy="486.62" r="5.5" fill="#1f7a4d" stroke="#ffffff" stroke-width="1.5"/><text x="304.51" y="478.62" class="small">027</text><circle cx="302.72" cy="482.63" r="5.5" fill="#b03a2e" stroke="#ffffff" stroke-width="1.5"/><text x="310.72" y="474.63" class="small">028</text><circle cx="308.94" cy="485.41" r="5.5" fill="#b03a2e" stroke="#ffffff" stroke-width="1.5"/><text x="316.94" y="477.41" class="small">029</text><circle cx="315.16" cy="488.19" r="5.5" fill="#1f7a4d" stroke="#ffffff" stroke-width="1.5"/><text x="323.16" y="480.19" class="small">030</text><circle cx="321.37" cy="488.19" r="5.5" fill="#b03a2e" stroke="#ffffff" stroke-width="1.5"/><text x="329.37" y="480.19" class="small">001</text><circle cx="327.59" cy="487.66" r="5.5" fill="#b03a2e" stroke="#ffffff" stroke-width="1.5"/><text x="335.59" y="479.66" class="small">002</text><circle cx="333.81" cy="485.15" r="5.5" fill="#b03a2e" stroke="#ffffff" stroke-width="1.5"/><text x="341.81" y="477.15" class="small">003</text><circle cx="340.02" cy="487.32" r="5.5" fill="#b03a2e" stroke="#ffffff" stroke-width="1.5"/><text x="348.02" y="479.32" class="small">004</text><circle cx="346.24" cy="488.10" r="5.5" fill="#b03a2e" stroke="#ffffff" stroke-width="1.5"/><text x="354.24" y="480.10" class="small">005</text><circle cx="352.46" cy="470.90" r="5.5" fill="#b03a2e" stroke="#ffffff" stroke-width="1.5"/><text x="360.46" y="462.90" class="small">006</text><circle cx="358.67" cy="479.33" r="5.5" fill="#b03a2e" stroke="#ffffff" stroke-width="1.5"/><text x="366.67" y="471.33" class="small">007</text><circle cx="364.89" cy="487.84" r="5.5" fill="#b03a2e" stroke="#ffffff" stroke-width="1.5"/><text x="372.89" y="479.84" class="small">008</text><circle cx="371.11" cy="484.19" r="5.5" fill="#b03a2e" stroke="#ffffff" stroke-width="1.5"/><text x="379.11" y="476.19" class="small">009</text><circle cx="377.33" cy="467.08" r="5.5" fill="#b03a2e" stroke="#ffffff" stroke-width="1.5"/><text x="385.33" y="459.08" class="small">010</text><circle cx="383.54" cy="474.81" r="5.5" fill="#b03a2e" stroke="#ffffff" stroke-width="1.5"/><text x="391.54" y="466.81" class="small">011</text><circle cx="389.76" cy="462.04" r="5.5" fill="#b03a2e" stroke="#ffffff" stroke-width="1.5"/><text x="397.76" y="454.04" class="small">012</text><circle cx="395.98" cy="477.68" r="5.5" fill="#b03a2e" stroke="#ffffff" stroke-width="1.5"/><text x="403.98" y="469.68" class="small">013</text><circle cx="402.19" cy="473.16" r="5.5" fill="#b03a2e" stroke="#ffffff" stroke-width="1.5"/><text x="410.19" y="465.16" class="small">014</text><circle cx="408.41" cy="460.48" r="5.5" fill="#b03a2e" stroke="#ffffff" stroke-width="1.5"/><text x="416.41" y="452.48" class="small">015</text><circle cx="414.63" cy="481.76" r="5.5" fill="#b03a2e" stroke="#ffffff" stroke-width="1.5"/><text x="422.63" y="473.76" class="small">101</text><circle cx="420.84" cy="476.55" r="5.5" fill="#b03a2e" stroke="#ffffff" stroke-width="1.5"/><text x="428.84" y="468.55" class="small">102</text><circle cx="427.06" cy="488.62" r="5.5" fill="#1f7a4d" stroke="#ffffff" stroke-width="1.5"/><text x="435.06" y="480.62" class="small">103</text><circle cx="433.28" cy="494.79" r="5.5" fill="#1f7a4d" stroke="#ffffff" stroke-width="1.5"/><text x="441.28" y="486.79" class="small">104</text><circle cx="439.49" cy="484.80" r="5.5" fill="#b03a2e" stroke="#ffffff" stroke-width="1.5"/><text x="447.49" y="476.80" class="small">105</text><circle cx="445.71" cy="452.75" r="5.5" fill="#b03a2e" stroke="#ffffff" stroke-width="1.5"/><text x="453.71" y="444.75" class="small">106</text><circle cx="451.93" cy="428.17" r="5.5" fill="#b03a2e" stroke="#ffffff" stroke-width="1.5"/><text x="459.93" y="420.17" class="small">107</text><circle cx="458.14" cy="462.30" r="5.5" fill="#b03a2e" stroke="#ffffff" stroke-width="1.5"/><text x="466.14" y="454.30" class="small">108</text><circle cx="464.36" cy="475.42" r="5.5" fill="#b03a2e" stroke="#ffffff" stroke-width="1.5"/><text x="472.36" y="467.42" class="small">109</text><circle cx="470.58" cy="417.48" r="5.5" fill="#b03a2e" stroke="#ffffff" stroke-width="1.5"/><text x="478.58" y="409.48" class="small">110</text><circle cx="476.80" cy="489.14" r="5.5" fill="#1f7a4d" stroke="#ffffff" stroke-width="1.5"/><text x="484.80" y="481.14" class="small">116</text><circle cx="483.01" cy="487.84" r="5.5" fill="#b03a2e" stroke="#ffffff" stroke-width="1.5"/><text x="491.01" y="479.84" class="small">117</text><circle cx="489.23" cy="487.32" r="5.5" fill="#b03a2e" stroke="#ffffff" stroke-width="1.5"/><text x="497.23" y="479.32" class="small">118</text><circle cx="495.45" cy="486.71" r="5.5" fill="#b03a2e" stroke="#ffffff" stroke-width="1.5"/><text x="503.45" y="478.71" class="small">119</text><circle cx="501.66" cy="490.79" r="5.5" fill="#1f7a4d" stroke="#ffffff" stroke-width="1.5"/><text x="509.66" y="482.79" class="small">120</text><circle cx="507.88" cy="488.36" r="5.5" fill="#1f7a4d" stroke="#ffffff" stroke-width="1.5"/><text x="515.88" y="480.36" class="small">121</text><circle cx="514.10" cy="485.84" r="5.5" fill="#b03a2e" stroke="#ffffff" stroke-width="1.5"/><text x="522.10" y="477.84" class="small">122</text><circle cx="520.31" cy="487.58" r="5.5" fill="#b03a2e" stroke="#ffffff" stroke-width="1.5"/><text x="528.31" y="479.58" class="small">123</text><circle cx="526.53" cy="488.45" r="5.5" fill="#1f7a4d" stroke="#ffffff" stroke-width="1.5"/><text x="534.53" y="480.45" class="small">124</text><circle cx="532.75" cy="488.36" r="5.5" fill="#1f7a4d" stroke="#ffffff" stroke-width="1.5"/><text x="540.75" y="480.36" class="small">125</text><circle cx="538.96" cy="473.33" r="5.5" fill="#b03a2e" stroke="#ffffff" stroke-width="1.5"/><text x="546.96" y="465.33" class="small">126</text><circle cx="545.18" cy="462.91" r="5.5" fill="#b03a2e" stroke="#ffffff" stroke-width="1.5"/><text x="553.18" y="454.91" class="small">127</text><circle cx="551.40" cy="487.06" r="5.5" fill="#b03a2e" stroke="#ffffff" stroke-width="1.5"/><text x="559.40" y="479.06" class="small">128</text><circle cx="557.61" cy="488.01" r="5.5" fill="#b03a2e" stroke="#ffffff" stroke-width="1.5"/><text x="565.61" y="480.01" class="small">129</text><circle cx="563.83" cy="464.73" r="5.5" fill="#b03a2e" stroke="#ffffff" stroke-width="1.5"/><text x="571.83" y="456.73" class="small">130</text><circle cx="570.05" cy="497.83" r="5.5" fill="#1f7a4d" stroke="#ffffff" stroke-width="1.5"/><text x="578.05" y="489.83" class="small">001</text><circle cx="576.27" cy="493.57" r="5.5" fill="#b03a2e" stroke="#ffffff" stroke-width="1.5"/><text x="584.27" y="485.57" class="small">002</text><circle cx="582.48" cy="494.79" r="5.5" fill="#b03a2e" stroke="#ffffff" stroke-width="1.5"/><text x="590.48" y="486.79" class="small">003</text><circle cx="588.70" cy="498.00" r="5.5" fill="#1f7a4d" stroke="#ffffff" stroke-width="1.5"/><text x="596.70" y="490.00" class="small">004</text><circle cx="594.92" cy="495.74" r="5.5" fill="#1f7a4d" stroke="#ffffff" stroke-width="1.5"/><text x="602.92" y="487.74" class="small">005</text><circle cx="601.13" cy="485.84" r="5.5" fill="#b03a2e" stroke="#ffffff" stroke-width="1.5"/><text x="609.13" y="477.84" class="small">011</text><circle cx="607.35" cy="480.80" r="5.5" fill="#b03a2e" stroke="#ffffff" stroke-width="1.5"/><text x="615.35" y="472.80" class="small">012</text><circle cx="613.57" cy="493.57" r="5.5" fill="#b03a2e" stroke="#ffffff" stroke-width="1.5"/><text x="621.57" y="485.57" class="small">013</text><circle cx="619.78" cy="494.70" r="5.5" fill="#b03a2e" stroke="#ffffff" stroke-width="1.5"/><text x="627.78" y="486.70" class="small">014</text><circle cx="626.00" cy="492.27" r="5.5" fill="#b03a2e" stroke="#ffffff" stroke-width="1.5"/><text x="634.00" y="484.27" class="small">015</text><rect x="670" y="220" width="610" height="320" rx="18" fill="#ffffff" stroke="#d6d3d1"/><text x="690" y="248" class="paneltitle">Running best frontier</text><line x1="740" y1="498" x2="1256" y2="498" stroke="#94a3b8" stroke-width="1.5"/><line x1="740" y1="498" x2="740" y2="268" stroke="#94a3b8" stroke-width="1.5"/><text x="998.00" y="526.00" class="small">experiment order</text><text x="692.00" y="258.00" class="small">best so far</text><line x1="740" y1="498.00" x2="1256" y2="498.00" stroke="#e5e7eb" stroke-width="1"/><text x="686.00" y="502.00" class="small">1.3451</text><line x1="740" y1="383.00" x2="1256" y2="383.00" stroke="#e5e7eb" stroke-width="1"/><text x="686.00" y="387.00" class="small">1.4775</text><line x1="740" y1="268.00" x2="1256" y2="268.00" stroke="#e5e7eb" stroke-width="1"/><text x="686.00" y="272.00" class="small">1.6099</text><polyline fill="none" stroke="#1d4ed8" stroke-width="3" points="740.00,268.00 746.22,283.46 752.43,429.56 758.65,439.11 764.87,451.18 771.08,451.18 777.30,457.61 783.52,457.87 789.73,457.87 795.95,457.87 802.17,457.87 808.39,457.87 814.60,457.87 820.82,459.09 827.04,459.09 833.25,464.39 839.47,464.39 845.69,464.39 851.90,464.39 858.12,474.55 864.34,474.55 870.55,474.55 876.77,474.55 882.99,474.55 889.20,475.59 895.42,475.59 901.64,475.59 907.86,475.59 914.07,475.59 920.29,483.84 926.51,486.62 932.72,486.62 938.94,486.62 945.16,488.19 951.37,488.19 957.59,488.19 963.81,488.19 970.02,488.19 976.24,488.19 982.46,488.19 988.67,488.19 994.89,488.19 1001.11,488.19 1007.33,488.19 1013.54,488.19 1019.76,488.19 1025.98,488.19 1032.19,488.19 1038.41,488.19 1044.63,488.19 1050.84,488.19 1057.06,488.62 1063.28,494.79 1069.49,494.79 1075.71,494.79 1081.93,494.79 1088.14,494.79 1094.36,494.79 1100.58,494.79 1106.80,494.79 1113.01,494.79 1119.23,494.79 1125.45,494.79 1131.66,494.79 1137.88,494.79 1144.10,494.79 1150.31,494.79 1156.53,494.79 1162.75,494.79 1168.96,494.79 1175.18,494.79 1181.40,494.79 1187.61,494.79 1193.83,494.79 1200.05,497.83 1206.27,497.83 1212.48,497.83 1218.70,498.00 1224.92,498.00 1231.13,498.00 1237.35,498.00 1243.57,498.00 1249.78,498.00 1256.00,498.00"/><circle cx="740.00" cy="268.00" r="5.5" fill="#1f7a4d" stroke="#ffffff" stroke-width="1.5"/><circle cx="746.22" cy="283.46" r="5.5" fill="#1f7a4d" stroke="#ffffff" stroke-width="1.5"/><circle cx="752.43" cy="429.56" r="5.5" fill="#1f7a4d" stroke="#ffffff" stroke-width="1.5"/><circle cx="758.65" cy="439.11" r="5.5" fill="#1f7a4d" stroke="#ffffff" stroke-width="1.5"/><circle cx="764.87" cy="451.18" r="5.5" fill="#1f7a4d" stroke="#ffffff" stroke-width="1.5"/><circle cx="771.08" cy="451.18" r="5.5" fill="#b03a2e" stroke="#ffffff" stroke-width="1.5"/><circle cx="777.30" cy="457.61" r="5.5" fill="#1f7a4d" stroke="#ffffff" stroke-width="1.5"/><circle cx="783.52" cy="457.87" r="5.5" fill="#1f7a4d" stroke="#ffffff" stroke-width="1.5"/><circle cx="789.73" cy="457.87" r="5.5" fill="#b03a2e" stroke="#ffffff" stroke-width="1.5"/><circle cx="795.95" cy="457.87" r="5.5" fill="#b03a2e" stroke="#ffffff" stroke-width="1.5"/><circle cx="802.17" cy="457.87" r="5.5" fill="#b03a2e" stroke="#ffffff" stroke-width="1.5"/><circle cx="808.39" cy="457.87" r="5.5" fill="#b03a2e" stroke="#ffffff" stroke-width="1.5"/><circle cx="814.60" cy="457.87" r="5.5" fill="#b03a2e" stroke="#ffffff" stroke-width="1.5"/><circle cx="820.82" cy="459.09" r="5.5" fill="#b03a2e" stroke="#ffffff" stroke-width="1.5"/><circle cx="827.04" cy="459.09" r="5.5" fill="#b03a2e" stroke="#ffffff" stroke-width="1.5"/><circle cx="833.25" cy="464.39" r="5.5" fill="#1f7a4d" stroke="#ffffff" stroke-width="1.5"/><circle cx="839.47" cy="464.39" r="5.5" fill="#b03a2e" stroke="#ffffff" stroke-width="1.5"/><circle cx="845.69" cy="464.39" r="5.5" fill="#b03a2e" stroke="#ffffff" stroke-width="1.5"/><circle cx="851.90" cy="464.39" r="5.5" fill="#b03a2e" stroke="#ffffff" stroke-width="1.5"/><circle cx="858.12" cy="474.55" r="5.5" fill="#1f7a4d" stroke="#ffffff" stroke-width="1.5"/><circle cx="864.34" cy="474.55" r="5.5" fill="#b03a2e" stroke="#ffffff" stroke-width="1.5"/><circle cx="870.55" cy="474.55" r="5.5" fill="#b03a2e" stroke="#ffffff" stroke-width="1.5"/><circle cx="876.77" cy="474.55" r="5.5" fill="#b03a2e" stroke="#ffffff" stroke-width="1.5"/><circle cx="882.99" cy="474.55" r="5.5" fill="#b03a2e" stroke="#ffffff" stroke-width="1.5"/><circle cx="889.20" cy="475.59" r="5.5" fill="#1f7a4d" stroke="#ffffff" stroke-width="1.5"/><circle cx="895.42" cy="475.59" r="5.5" fill="#b03a2e" stroke="#ffffff" stroke-width="1.5"/><circle cx="901.64" cy="475.59" r="5.5" fill="#b03a2e" stroke="#ffffff" stroke-width="1.5"/><circle cx="907.86" cy="475.59" r="5.5" fill="#b03a2e" stroke="#ffffff" stroke-width="1.5"/><circle cx="914.07" cy="475.59" r="5.5" fill="#b03a2e" stroke="#ffffff" stroke-width="1.5"/><circle cx="920.29" cy="483.84" r="5.5" fill="#1f7a4d" stroke="#ffffff" stroke-width="1.5"/><circle cx="926.51" cy="486.62" r="5.5" fill="#1f7a4d" stroke="#ffffff" stroke-width="1.5"/><circle cx="932.72" cy="486.62" r="5.5" fill="#b03a2e" stroke="#ffffff" stroke-width="1.5"/><circle cx="938.94" cy="486.62" r="5.5" fill="#b03a2e" stroke="#ffffff" stroke-width="1.5"/><circle cx="945.16" cy="488.19" r="5.5" fill="#1f7a4d" stroke="#ffffff" stroke-width="1.5"/><circle cx="951.37" cy="488.19" r="5.5" fill="#b03a2e" stroke="#ffffff" stroke-width="1.5"/><circle cx="957.59" cy="488.19" r="5.5" fill="#b03a2e" stroke="#ffffff" stroke-width="1.5"/><circle cx="963.81" cy="488.19" r="5.5" fill="#b03a2e" stroke="#ffffff" stroke-width="1.5"/><circle cx="970.02" cy="488.19" r="5.5" fill="#b03a2e" stroke="#ffffff" stroke-width="1.5"/><circle cx="976.24" cy="488.19" r="5.5" fill="#b03a2e" stroke="#ffffff" stroke-width="1.5"/><circle cx="982.46" cy="488.19" r="5.5" fill="#b03a2e" stroke="#ffffff" stroke-width="1.5"/><circle cx="988.67" cy="488.19" r="5.5" fill="#b03a2e" stroke="#ffffff" stroke-width="1.5"/><circle cx="994.89" cy="488.19" r="5.5" fill="#b03a2e" stroke="#ffffff" stroke-width="1.5"/><circle cx="1001.11" cy="488.19" r="5.5" fill="#b03a2e" stroke="#ffffff" stroke-width="1.5"/><circle cx="1007.33" cy="488.19" r="5.5" fill="#b03a2e" stroke="#ffffff" stroke-width="1.5"/><circle cx="1013.54" cy="488.19" r="5.5" fill="#b03a2e" stroke="#ffffff" stroke-width="1.5"/><circle cx="1019.76" cy="488.19" r="5.5" fill="#b03a2e" stroke="#ffffff" stroke-width="1.5"/><circle cx="1025.98" cy="488.19" r="5.5" fill="#b03a2e" stroke="#ffffff" stroke-width="1.5"/><circle cx="1032.19" cy="488.19" r="5.5" fill="#b03a2e" stroke="#ffffff" stroke-width="1.5"/><circle cx="1038.41" cy="488.19" r="5.5" fill="#b03a2e" stroke="#ffffff" stroke-width="1.5"/><circle cx="1044.63" cy="488.19" r="5.5" fill="#b03a2e" stroke="#ffffff" stroke-width="1.5"/><circle cx="1050.84" cy="488.19" r="5.5" fill="#b03a2e" stroke="#ffffff" stroke-width="1.5"/><circle cx="1057.06" cy="488.62" r="5.5" fill="#1f7a4d" stroke="#ffffff" stroke-width="1.5"/><circle cx="1063.28" cy="494.79" r="5.5" fill="#1f7a4d" stroke="#ffffff" stroke-width="1.5"/><circle cx="1069.49" cy="494.79" r="5.5" fill="#b03a2e" stroke="#ffffff" stroke-width="1.5"/><circle cx="1075.71" cy="494.79" r="5.5" fill="#b03a2e" stroke="#ffffff" stroke-width="1.5"/><circle cx="1081.93" cy="494.79" r="5.5" fill="#b03a2e" stroke="#ffffff" stroke-width="1.5"/><circle cx="1088.14" cy="494.79" r="5.5" fill="#b03a2e" stroke="#ffffff" stroke-width="1.5"/><circle cx="1094.36" cy="494.79" r="5.5" fill="#b03a2e" stroke="#ffffff" stroke-width="1.5"/><circle cx="1100.58" cy="494.79" r="5.5" fill="#b03a2e" stroke="#ffffff" stroke-width="1.5"/><circle cx="1106.80" cy="494.79" r="5.5" fill="#1f7a4d" stroke="#ffffff" stroke-width="1.5"/><circle cx="1113.01" cy="494.79" r="5.5" fill="#b03a2e" stroke="#ffffff" stroke-width="1.5"/><circle cx="1119.23" cy="494.79" r="5.5" fill="#b03a2e" stroke="#ffffff" stroke-width="1.5"/><circle cx="1125.45" cy="494.79" r="5.5" fill="#b03a2e" stroke="#ffffff" stroke-width="1.5"/><circle cx="1131.66" cy="494.79" r="5.5" fill="#1f7a4d" stroke="#ffffff" stroke-width="1.5"/><circle cx="1137.88" cy="494.79" r="5.5" fill="#1f7a4d" stroke="#ffffff" stroke-width="1.5"/><circle cx="1144.10" cy="494.79" r="5.5" fill="#b03a2e" stroke="#ffffff" stroke-width="1.5"/><circle cx="1150.31" cy="494.79" r="5.5" fill="#b03a2e" stroke="#ffffff" stroke-width="1.5"/><circle cx="1156.53" cy="494.79" r="5.5" fill="#1f7a4d" stroke="#ffffff" stroke-width="1.5"/><circle cx="1162.75" cy="494.79" r="5.5" fill="#1f7a4d" stroke="#ffffff" stroke-width="1.5"/><circle cx="1168.96" cy="494.79" r="5.5" fill="#b03a2e" stroke="#ffffff" stroke-width="1.5"/><circle cx="1175.18" cy="494.79" r="5.5" fill="#b03a2e" stroke="#ffffff" stroke-width="1.5"/><circle cx="1181.40" cy="494.79" r="5.5" fill="#b03a2e" stroke="#ffffff" stroke-width="1.5"/><circle cx="1187.61" cy="494.79" r="5.5" fill="#b03a2e" stroke="#ffffff" stroke-width="1.5"/><circle cx="1193.83" cy="494.79" r="5.5" fill="#b03a2e" stroke="#ffffff" stroke-width="1.5"/><circle cx="1200.05" cy="497.83" r="5.5" fill="#1f7a4d" stroke="#ffffff" stroke-width="1.5"/><circle cx="1206.27" cy="497.83" r="5.5" fill="#b03a2e" stroke="#ffffff" stroke-width="1.5"/><circle cx="1212.48" cy="497.83" r="5.5" fill="#b03a2e" stroke="#ffffff" stroke-width="1.5"/><circle cx="1218.70" cy="498.00" r="5.5" fill="#1f7a4d" stroke="#ffffff" stroke-width="1.5"/><circle cx="1224.92" cy="498.00" r="5.5" fill="#1f7a4d" stroke="#ffffff" stroke-width="1.5"/><circle cx="1231.13" cy="498.00" r="5.5" fill="#b03a2e" stroke="#ffffff" stroke-width="1.5"/><circle cx="1237.35" cy="498.00" r="5.5" fill="#b03a2e" stroke="#ffffff" stroke-width="1.5"/><circle cx="1243.57" cy="498.00" r="5.5" fill="#b03a2e" stroke="#ffffff" stroke-width="1.5"/><circle cx="1249.78" cy="498.00" r="5.5" fill="#b03a2e" stroke="#ffffff" stroke-width="1.5"/><circle cx="1256.00" cy="498.00" r="5.5" fill="#b03a2e" stroke="#ffffff" stroke-width="1.5"/><rect x="40" y="590" width="610" height="320" rx="18" fill="#ffffff" stroke="#d6d3d1"/><text x="60" y="618" class="paneltitle">Training steps vs val_bpb</text><line x1="110" y1="868" x2="626" y2="868" stroke="#94a3b8" stroke-width="1.5"/><line x1="110" y1="868" x2="110" y2="638" stroke="#94a3b8" stroke-width="1.5"/><text x="368.00" y="896.00" class="small">steps in 600s</text><text x="62.00" y="628.00" class="small">val_bpb</text><line x1="110" y1="868.00" x2="626" y2="868.00" stroke="#e5e7eb" stroke-width="1"/><text x="56.00" y="872.00" class="small">1.3451</text><line x1="110" y1="753.00" x2="626" y2="753.00" stroke="#e5e7eb" stroke-width="1"/><text x="56.00" y="757.00" class="small">1.4686</text><line x1="110" y1="638.00" x2="626" y2="638.00" stroke="#e5e7eb" stroke-width="1"/><text x="56.00" y="642.00" class="small">1.5921</text><line x1="110.00" y1="868" x2="110.00" y2="638" stroke="#f1f5f9" stroke-width="1"/><text x="98.00" y="886.00" class="small">342.0</text><line x1="368.00" y1="868" x2="368.00" y2="638" stroke="#f1f5f9" stroke-width="1"/><text x="356.00" y="886.00" class="small">1194.5</text><line x1="626.00" y1="868" x2="626.00" y2="638" stroke="#f1f5f9" stroke-width="1"/><text x="614.00" y="886.00" class="small">2047.0</text><circle cx="110.00" cy="638.00" r="6" fill="#1f7a4d" stroke="#ffffff" stroke-width="1.5"/><text x="118.00" y="630.00" class="small">002</text><circle cx="216.83" cy="794.62" r="6" fill="#1f7a4d" stroke="#ffffff" stroke-width="1.5"/><text x="224.83" y="786.62" class="small">003</text><circle cx="233.78" cy="817.81" r="6" fill="#1f7a4d" stroke="#ffffff" stroke-width="1.5"/><text x="241.78" y="809.81" class="small">001</text><circle cx="211.08" cy="806.36" r="6" fill="#b03a2e" stroke="#ffffff" stroke-width="1.5"/><text x="219.08" y="798.36" class="small">002</text><circle cx="272.21" cy="824.70" r="6" fill="#1f7a4d" stroke="#ffffff" stroke-width="1.5"/><text x="280.21" y="816.70" class="small">003</text><circle cx="372.09" cy="824.98" r="6" fill="#1f7a4d" stroke="#ffffff" stroke-width="1.5"/><text x="380.09" y="816.98" class="small">004</text><circle cx="277.66" cy="819.39" r="6" fill="#b03a2e" stroke="#ffffff" stroke-width="1.5"/><text x="285.66" y="811.39" class="small">005</text><circle cx="322.45" cy="818.18" r="6" fill="#b03a2e" stroke="#ffffff" stroke-width="1.5"/><text x="330.45" y="810.18" class="small">006</text><circle cx="232.27" cy="810.73" r="6" fill="#b03a2e" stroke="#ffffff" stroke-width="1.5"/><text x="240.27" y="802.73" class="small">007</text><circle cx="293.40" cy="813.99" r="6" fill="#b03a2e" stroke="#ffffff" stroke-width="1.5"/><text x="301.40" y="805.99" class="small">008</text><circle cx="257.39" cy="821.26" r="6" fill="#b03a2e" stroke="#ffffff" stroke-width="1.5"/><text x="265.39" y="813.26" class="small">009</text><circle cx="356.05" cy="826.28" r="6" fill="#b03a2e" stroke="#ffffff" stroke-width="1.5"/><text x="364.05" y="818.28" class="small">010</text><circle cx="353.32" cy="819.67" r="6" fill="#b03a2e" stroke="#ffffff" stroke-width="1.5"/><text x="361.32" y="811.67" class="small">011</text><circle cx="414.76" cy="831.96" r="6" fill="#1f7a4d" stroke="#ffffff" stroke-width="1.5"/><text x="422.76" y="823.96" class="small">012</text><circle cx="395.99" cy="824.79" r="6" fill="#b03a2e" stroke="#ffffff" stroke-width="1.5"/><text x="403.99" y="816.79" class="small">013</text><circle cx="401.14" cy="824.23" r="6" fill="#b03a2e" stroke="#ffffff" stroke-width="1.5"/><text x="409.14" y="816.23" class="small">014</text><circle cx="397.51" cy="825.63" r="6" fill="#b03a2e" stroke="#ffffff" stroke-width="1.5"/><text x="405.51" y="817.63" class="small">015</text><circle cx="526.43" cy="842.86" r="6" fill="#1f7a4d" stroke="#ffffff" stroke-width="1.5"/><text x="534.43" y="834.86" class="small">016</text><circle cx="414.46" cy="825.35" r="6" fill="#b03a2e" stroke="#ffffff" stroke-width="1.5"/><text x="422.46" y="817.35" class="small">017</text><circle cx="526.73" cy="836.81" r="6" fill="#b03a2e" stroke="#ffffff" stroke-width="1.5"/><text x="534.73" y="828.81" class="small">018</text><circle cx="507.37" cy="834.76" r="6" fill="#b03a2e" stroke="#ffffff" stroke-width="1.5"/><text x="515.37" y="826.76" class="small">019</text><circle cx="507.97" cy="830.57" r="6" fill="#b03a2e" stroke="#ffffff" stroke-width="1.5"/><text x="515.97" y="822.57" class="small">020</text><circle cx="506.46" cy="843.98" r="6" fill="#1f7a4d" stroke="#ffffff" stroke-width="1.5"/><text x="514.46" y="835.98" class="small">021</text><circle cx="535.51" cy="819.86" r="6" fill="#b03a2e" stroke="#ffffff" stroke-width="1.5"/><text x="543.51" y="811.86" class="small">022</text><circle cx="505.55" cy="838.67" r="6" fill="#b03a2e" stroke="#ffffff" stroke-width="1.5"/><text x="513.55" y="830.67" class="small">023</text><circle cx="526.13" cy="837.64" r="6" fill="#b03a2e" stroke="#ffffff" stroke-width="1.5"/><text x="534.13" y="829.64" class="small">024</text><circle cx="526.13" cy="840.81" r="6" fill="#b03a2e" stroke="#ffffff" stroke-width="1.5"/><text x="534.13" y="832.81" class="small">025</text><circle cx="506.15" cy="852.82" r="6" fill="#1f7a4d" stroke="#ffffff" stroke-width="1.5"/><text x="514.15" y="844.82" class="small">026</text><circle cx="506.15" cy="855.80" r="6" fill="#1f7a4d" stroke="#ffffff" stroke-width="1.5"/><text x="514.15" y="847.80" class="small">027</text><circle cx="505.85" cy="851.52" r="6" fill="#b03a2e" stroke="#ffffff" stroke-width="1.5"/><text x="513.85" y="843.52" class="small">028</text><circle cx="506.15" cy="854.50" r="6" fill="#b03a2e" stroke="#ffffff" stroke-width="1.5"/><text x="514.15" y="846.50" class="small">029</text><circle cx="505.85" cy="857.48" r="6" fill="#1f7a4d" stroke="#ffffff" stroke-width="1.5"/><text x="513.85" y="849.48" class="small">030</text><circle cx="506.15" cy="857.48" r="6" fill="#b03a2e" stroke="#ffffff" stroke-width="1.5"/><text x="514.15" y="849.48" class="small">001</text><circle cx="506.46" cy="856.92" r="6" fill="#b03a2e" stroke="#ffffff" stroke-width="1.5"/><text x="514.46" y="848.92" class="small">002</text><circle cx="506.46" cy="854.22" r="6" fill="#b03a2e" stroke="#ffffff" stroke-width="1.5"/><text x="514.46" y="846.22" class="small">003</text><circle cx="507.06" cy="856.55" r="6" fill="#b03a2e" stroke="#ffffff" stroke-width="1.5"/><text x="515.06" y="848.55" class="small">004</text><circle cx="506.46" cy="857.38" r="6" fill="#b03a2e" stroke="#ffffff" stroke-width="1.5"/><text x="514.46" y="849.38" class="small">005</text><circle cx="520.08" cy="838.95" r="6" fill="#b03a2e" stroke="#ffffff" stroke-width="1.5"/><text x="528.08" y="830.95" class="small">006</text><circle cx="516.44" cy="847.98" r="6" fill="#b03a2e" stroke="#ffffff" stroke-width="1.5"/><text x="524.44" y="839.98" class="small">007</text><circle cx="506.46" cy="857.11" r="6" fill="#b03a2e" stroke="#ffffff" stroke-width="1.5"/><text x="514.46" y="849.11" class="small">008</text><circle cx="508.58" cy="853.19" r="6" fill="#b03a2e" stroke="#ffffff" stroke-width="1.5"/><text x="516.58" y="845.19" class="small">009</text><circle cx="533.70" cy="834.85" r="6" fill="#b03a2e" stroke="#ffffff" stroke-width="1.5"/><text x="541.70" y="826.85" class="small">010</text><circle cx="504.94" cy="843.14" r="6" fill="#b03a2e" stroke="#ffffff" stroke-width="1.5"/><text x="512.94" y="835.14" class="small">011</text><circle cx="516.14" cy="829.45" r="6" fill="#b03a2e" stroke="#ffffff" stroke-width="1.5"/><text x="524.14" y="821.45" class="small">012</text><circle cx="512.51" cy="846.21" r="6" fill="#b03a2e" stroke="#ffffff" stroke-width="1.5"/><text x="520.51" y="838.21" class="small">013</text><circle cx="513.12" cy="841.37" r="6" fill="#b03a2e" stroke="#ffffff" stroke-width="1.5"/><text x="521.12" y="833.37" class="small">014</text><circle cx="462.27" cy="827.77" r="6" fill="#b03a2e" stroke="#ffffff" stroke-width="1.5"/><text x="470.27" y="819.77" class="small">015</text><circle cx="574.55" cy="867.81" r="6" fill="#1f7a4d" stroke="#ffffff" stroke-width="1.5"/><text x="582.55" y="859.81" class="small">001</text><circle cx="626.00" cy="863.25" r="6" fill="#b03a2e" stroke="#ffffff" stroke-width="1.5"/><text x="634.00" y="855.25" class="small">002</text><circle cx="606.03" cy="864.55" r="6" fill="#b03a2e" stroke="#ffffff" stroke-width="1.5"/><text x="614.03" y="856.55" class="small">003</text><circle cx="582.42" cy="868.00" r="6" fill="#1f7a4d" stroke="#ffffff" stroke-width="1.5"/><text x="590.42" y="860.00" class="small">004</text><circle cx="592.10" cy="865.58" r="6" fill="#1f7a4d" stroke="#ffffff" stroke-width="1.5"/><text x="600.10" y="857.58" class="small">005</text><circle cx="593.31" cy="854.96" r="6" fill="#b03a2e" stroke="#ffffff" stroke-width="1.5"/><text x="601.31" y="846.96" class="small">011</text><circle cx="592.71" cy="849.56" r="6" fill="#b03a2e" stroke="#ffffff" stroke-width="1.5"/><text x="600.71" y="841.56" class="small">012</text><circle cx="593.01" cy="863.25" r="6" fill="#b03a2e" stroke="#ffffff" stroke-width="1.5"/><text x="601.01" y="855.25" class="small">013</text><circle cx="593.01" cy="864.46" r="6" fill="#b03a2e" stroke="#ffffff" stroke-width="1.5"/><text x="601.01" y="856.46" class="small">014</text><circle cx="593.31" cy="861.85" r="6" fill="#b03a2e" stroke="#ffffff" stroke-width="1.5"/><text x="601.31" y="853.85" class="small">015</text><rect x="670" y="590" width="610" height="320" rx="18" fill="#ffffff" stroke="#d6d3d1"/><text x="690" y="618" class="paneltitle">Artifact size vs val_bpb</text><line x1="740" y1="868" x2="1256" y2="868" stroke="#94a3b8" stroke-width="1.5"/><line x1="740" y1="868" x2="740" y2="638" stroke="#94a3b8" stroke-width="1.5"/><text x="998.00" y="896.00" class="small">artifact MB</text><text x="692.00" y="628.00" class="small">val_bpb</text><line x1="740" y1="868.00" x2="1256" y2="868.00" stroke="#e5e7eb" stroke-width="1"/><text x="686.00" y="872.00" class="small">1.3451</text><line x1="740" y1="753.00" x2="1256" y2="753.00" stroke="#e5e7eb" stroke-width="1"/><text x="686.00" y="757.00" class="small">1.3782</text><line x1="740" y1="638.00" x2="1256" y2="638.00" stroke="#e5e7eb" stroke-width="1"/><text x="686.00" y="642.00" class="small">1.4113</text><line x1="740.00" y1="868" x2="740.00" y2="638" stroke="#f1f5f9" stroke-width="1"/><text x="728.00" y="886.00" class="small">11.3</text><line x1="998.00" y1="868" x2="998.00" y2="638" stroke="#f1f5f9" stroke-width="1"/><text x="986.00" y="886.00" class="small">14.5</text><line x1="1256.00" y1="868" x2="1256.00" y2="638" stroke="#f1f5f9" stroke-width="1"/><text x="1244.00" y="886.00" class="small">17.7</text><circle cx="850.28" cy="680.73" r="6" fill="#1f7a4d" stroke="#ffffff" stroke-width="1.5"/><text x="858.28" y="672.73" class="small">001</text><circle cx="933.20" cy="638.00" r="6" fill="#b03a2e" stroke="#ffffff" stroke-width="1.5"/><text x="941.20" y="630.00" class="small">002</text><circle cx="1001.62" cy="706.44" r="6" fill="#1f7a4d" stroke="#ffffff" stroke-width="1.5"/><text x="1009.62" y="698.44" class="small">003</text><circle cx="1106.27" cy="707.49" r="6" fill="#1f7a4d" stroke="#ffffff" stroke-width="1.5"/><text x="1114.27" y="699.49" class="small">004</text><circle cx="911.46" cy="686.64" r="6" fill="#b03a2e" stroke="#ffffff" stroke-width="1.5"/><text x="919.46" y="678.64" class="small">005</text><circle cx="740.00" cy="682.12" r="6" fill="#b03a2e" stroke="#ffffff" stroke-width="1.5"/><text x="748.00" y="674.12" class="small">006</text><circle cx="1235.88" cy="654.33" r="6" fill="#b03a2e" stroke="#ffffff" stroke-width="1.5"/><text x="1243.88" y="646.33" class="small">007</text><circle cx="801.18" cy="666.49" r="6" fill="#b03a2e" stroke="#ffffff" stroke-width="1.5"/><text x="809.18" y="658.49" class="small">008</text><circle cx="1135.25" cy="693.59" r="6" fill="#b03a2e" stroke="#ffffff" stroke-width="1.5"/><text x="1143.25" y="685.59" class="small">009</text><circle cx="1256.00" cy="712.35" r="6" fill="#b03a2e" stroke="#ffffff" stroke-width="1.5"/><text x="1264.00" y="704.35" class="small">010</text><circle cx="1091.78" cy="687.68" r="6" fill="#b03a2e" stroke="#ffffff" stroke-width="1.5"/><text x="1099.78" y="679.68" class="small">011</text><circle cx="1018.53" cy="733.54" r="6" fill="#1f7a4d" stroke="#ffffff" stroke-width="1.5"/><text x="1026.53" y="725.54" class="small">012</text><circle cx="975.06" cy="706.79" r="6" fill="#b03a2e" stroke="#ffffff" stroke-width="1.5"/><text x="983.06" y="698.79" class="small">013</text><circle cx="1144.11" cy="704.71" r="6" fill="#b03a2e" stroke="#ffffff" stroke-width="1.5"/><text x="1152.11" y="696.71" class="small">014</text><circle cx="993.57" cy="709.92" r="6" fill="#b03a2e" stroke="#ffffff" stroke-width="1.5"/><text x="1001.57" y="701.92" class="small">015</text><circle cx="1078.90" cy="774.19" r="6" fill="#1f7a4d" stroke="#ffffff" stroke-width="1.5"/><text x="1086.90" y="766.19" class="small">016</text><circle cx="1033.82" cy="708.88" r="6" fill="#b03a2e" stroke="#ffffff" stroke-width="1.5"/><text x="1041.82" y="700.88" class="small">017</text><circle cx="1084.54" cy="751.61" r="6" fill="#b03a2e" stroke="#ffffff" stroke-width="1.5"/><text x="1092.54" y="743.61" class="small">018</text><circle cx="1055.56" cy="743.97" r="6" fill="#b03a2e" stroke="#ffffff" stroke-width="1.5"/><text x="1063.56" y="735.97" class="small">019</text><circle cx="1062.80" cy="728.33" r="6" fill="#b03a2e" stroke="#ffffff" stroke-width="1.5"/><text x="1070.80" y="720.33" class="small">020</text><circle cx="1066.83" cy="778.36" r="6" fill="#1f7a4d" stroke="#ffffff" stroke-width="1.5"/><text x="1074.83" y="770.36" class="small">021</text><circle cx="991.96" cy="688.38" r="6" fill="#b03a2e" stroke="#ffffff" stroke-width="1.5"/><text x="999.96" y="680.38" class="small">022</text><circle cx="1065.22" cy="758.56" r="6" fill="#b03a2e" stroke="#ffffff" stroke-width="1.5"/><text x="1073.22" y="750.56" class="small">023</text><circle cx="1076.49" cy="754.74" r="6" fill="#b03a2e" stroke="#ffffff" stroke-width="1.5"/><text x="1084.49" y="746.74" class="small">024</text><circle cx="1078.90" cy="766.55" r="6" fill="#b03a2e" stroke="#ffffff" stroke-width="1.5"/><text x="1086.90" y="758.55" class="small">025</text><circle cx="1103.05" cy="811.37" r="6" fill="#1f7a4d" stroke="#ffffff" stroke-width="1.5"/><text x="1111.05" y="803.37" class="small">026</text><circle cx="1102.25" cy="822.49" r="6" fill="#1f7a4d" stroke="#ffffff" stroke-width="1.5"/><text x="1110.25" y="814.49" class="small">027</text><circle cx="1102.25" cy="806.50" r="6" fill="#b03a2e" stroke="#ffffff" stroke-width="1.5"/><text x="1110.25" y="798.50" class="small">028</text><circle cx="1099.83" cy="817.62" r="6" fill="#b03a2e" stroke="#ffffff" stroke-width="1.5"/><text x="1107.83" y="809.62" class="small">029</text><circle cx="1104.66" cy="828.74" r="6" fill="#1f7a4d" stroke="#ffffff" stroke-width="1.5"/><text x="1112.66" y="820.74" class="small">030</text><circle cx="1105.47" cy="828.74" r="6" fill="#b03a2e" stroke="#ffffff" stroke-width="1.5"/><text x="1113.47" y="820.74" class="small">001</text><circle cx="1103.86" cy="826.66" r="6" fill="#b03a2e" stroke="#ffffff" stroke-width="1.5"/><text x="1111.86" y="818.66" class="small">002</text><circle cx="1104.66" cy="816.58" r="6" fill="#b03a2e" stroke="#ffffff" stroke-width="1.5"/><text x="1112.66" y="808.58" class="small">003</text><circle cx="1105.47" cy="825.27" r="6" fill="#b03a2e" stroke="#ffffff" stroke-width="1.5"/><text x="1113.47" y="817.27" class="small">004</text><circle cx="1106.27" cy="828.39" r="6" fill="#b03a2e" stroke="#ffffff" stroke-width="1.5"/><text x="1114.27" y="820.39" class="small">005</text><circle cx="1106.27" cy="759.60" r="6" fill="#b03a2e" stroke="#ffffff" stroke-width="1.5"/><text x="1114.27" y="751.60" class="small">006</text><circle cx="1091.78" cy="793.30" r="6" fill="#b03a2e" stroke="#ffffff" stroke-width="1.5"/><text x="1099.78" y="785.30" class="small">007</text><circle cx="1104.66" cy="827.35" r="6" fill="#b03a2e" stroke="#ffffff" stroke-width="1.5"/><text x="1112.66" y="819.35" class="small">008</text><circle cx="1105.47" cy="812.76" r="6" fill="#b03a2e" stroke="#ffffff" stroke-width="1.5"/><text x="1113.47" y="804.76" class="small">009</text><circle cx="1092.59" cy="744.31" r="6" fill="#b03a2e" stroke="#ffffff" stroke-width="1.5"/><text x="1100.59" y="736.31" class="small">010</text><circle cx="1107.08" cy="775.24" r="6" fill="#b03a2e" stroke="#ffffff" stroke-width="1.5"/><text x="1115.08" y="767.24" class="small">011</text><circle cx="1018.53" cy="724.16" r="6" fill="#b03a2e" stroke="#ffffff" stroke-width="1.5"/><text x="1026.53" y="716.16" class="small">012</text><circle cx="1066.02" cy="786.70" r="6" fill="#b03a2e" stroke="#ffffff" stroke-width="1.5"/><text x="1074.02" y="778.70" class="small">013</text><circle cx="1064.41" cy="768.63" r="6" fill="#b03a2e" stroke="#ffffff" stroke-width="1.5"/><text x="1072.41" y="760.63" class="small">014</text><circle cx="1107.88" cy="717.91" r="6" fill="#b03a2e" stroke="#ffffff" stroke-width="1.5"/><text x="1115.88" y="709.91" class="small">015</text><circle cx="1043.48" cy="867.31" r="6" fill="#1f7a4d" stroke="#ffffff" stroke-width="1.5"/><text x="1051.48" y="859.31" class="small">001</text><circle cx="992.77" cy="850.28" r="6" fill="#b03a2e" stroke="#ffffff" stroke-width="1.5"/><text x="1000.77" y="842.28" class="small">002</text><circle cx="991.16" cy="855.15" r="6" fill="#b03a2e" stroke="#ffffff" stroke-width="1.5"/><text x="999.16" y="847.15" class="small">003</text><circle cx="1043.48" cy="868.00" r="6" fill="#1f7a4d" stroke="#ffffff" stroke-width="1.5"/><text x="1051.48" y="860.00" class="small">004</text><circle cx="1017.72" cy="858.97" r="6" fill="#1f7a4d" stroke="#ffffff" stroke-width="1.5"/><text x="1025.72" y="850.97" class="small">005</text><circle cx="1025.77" cy="819.36" r="6" fill="#b03a2e" stroke="#ffffff" stroke-width="1.5"/><text x="1033.77" y="811.36" class="small">011</text><circle cx="1000.82" cy="799.21" r="6" fill="#b03a2e" stroke="#ffffff" stroke-width="1.5"/><text x="1008.82" y="791.21" class="small">012</text><circle cx="1017.72" cy="850.28" r="6" fill="#b03a2e" stroke="#ffffff" stroke-width="1.5"/><text x="1025.72" y="842.28" class="small">013</text><circle cx="1017.72" cy="854.80" r="6" fill="#b03a2e" stroke="#ffffff" stroke-width="1.5"/><text x="1025.72" y="846.80" class="small">014</text><circle cx="1025.77" cy="845.07" r="6" fill="#b03a2e" stroke="#ffffff" stroke-width="1.5"/><text x="1033.77" y="837.07" class="small">015</text><rect x="40" y="940" width="1240" height="88" rx="14" fill="#fffdf8" stroke="#d6d3d1"/><text x="60" y="964" class="body">Current best: AL-20260331-004 at 1.3451 val_bpb.</text><text x="60" y="982" class="body">Latest run: AL-20260331-015 (discard) tested the best tail may need both a mild global decay and extra control over the output path.</text><text x="60" y="1000" class="body">Latest delta vs best: +0.0066 val_bpb.</text><text x="60" y="1018" class="body">Read agent_lab/state.md for the live dashboard and agent_lab/tranches.md for the tranche map.</text></svg>
